<svg xmlns="http://www.w3.org/2000/svg" width="1254" height="1254" viewBox="0 0 1254 1254" version="1.1"><path d="M 423.844 283.912 C 394.355 290.317, 372 318.100, 372 348.345 C 372 376.466, 389.122 400.851, 415.746 410.647 C 422.962 413.302, 424.506 413.499, 438 413.479 C 452.044 413.459, 452.759 413.354, 460.732 410.163 C 476.433 403.879, 488.584 392.932, 496.429 378.003 C 501.043 369.222, 503.264 359.635, 503.264 348.500 C 503.264 337.498, 501.148 328.229, 496.550 319.100 C 482.936 292.065, 453.004 277.579, 423.844 283.912 M 156 284.515 C 138.887 289.160, 122.039 303.037, 114.131 319.001 C 104.871 337.694, 104.860 359.286, 114.100 377.934 C 120.306 390.459, 131.206 401.168, 144 407.310 C 155.862 413.005, 162.897 414.395, 176.743 413.779 C 185.746 413.378, 188.826 412.782, 195.632 410.123 C 224.200 398.962, 241.677 370.559, 237.978 341.304 C 234.773 315.958, 219.370 296.065, 195.500 286.446 C 189.231 283.919, 187.090 283.593, 175 283.323 C 165.331 283.107, 159.939 283.445, 156 284.515 M 834 387.694 C 816.883 389.525, 795.589 397.143, 782 406.297 C 772.010 413.027, 759.979 424.558, 752.449 434.621 C 747.560 441.155, 747.635 441.026, 727.315 477.500 C 719.348 491.800, 710.432 507.775, 707.501 513 C 701.231 524.179, 682.892 557.183, 664.993 589.500 C 645.893 623.986, 634.540 644.337, 622.038 666.500 C 615.833 677.500, 605.589 695.950, 599.273 707.500 C 592.956 719.050, 586.992 729.850, 586.018 731.500 C 583.971 734.967, 583.944 735.017, 562.476 774 C 553.540 790.225, 544.087 807.325, 541.468 812 C 538.850 816.675, 531.892 829.275, 526.007 840 C 520.122 850.725, 514.031 861.750, 512.472 864.500 C 498.124 889.805, 495.886 894.496, 496.353 898.289 C 496.896 902.697, 498.186 904.501, 502.427 906.790 C 505.134 908.250, 509.845 908.441, 542 908.393 L 578.500 908.338 584.072 905.803 C 590.380 902.933, 596.243 897.399, 599.227 891.500 C 600.340 889.300, 603.834 883, 606.993 877.500 C 615.593 862.525, 640.698 818.287, 648.988 803.500 C 652.996 796.350, 658.865 786, 662.030 780.500 C 665.195 775, 671.702 763.525, 676.490 755 C 681.278 746.475, 688.701 733.425, 692.986 726 C 697.271 718.575, 710.105 696.075, 721.506 676 C 732.907 655.925, 743.934 636.575, 746.010 633 C 749.791 626.493, 763.106 603.008, 796.472 544 C 806.269 526.675, 815.423 510.789, 816.814 508.697 C 825.516 495.621, 845.054 489.874, 861.310 495.609 C 867.226 497.697, 875.545 504.354, 878.356 509.251 C 879.698 511.588, 885.493 521.825, 891.235 532 C 907.883 561.502, 939.333 616.984, 965.776 663.500 C 1010.778 742.665, 1012.259 745.275, 1024.493 767 C 1029.293 775.525, 1035.153 785.875, 1037.515 790 C 1043.402 800.283, 1053.863 818.921, 1062.493 834.500 C 1066.453 841.650, 1071.036 849.750, 1072.677 852.500 C 1074.318 855.250, 1079.191 863.800, 1083.506 871.500 C 1100.050 901.021, 1100.602 901.725, 1110.744 906.211 C 1115.173 908.170, 1117.327 908.281, 1152.956 908.388 C 1187.473 908.491, 1190.768 908.354, 1193.829 906.684 C 1197.711 904.565, 1200.453 898.980, 1199.511 895.108 C 1198.919 892.675, 1191.121 877.883, 1179.947 858 C 1171.534 843.030, 1141.838 788.795, 1137.238 780 C 1134.793 775.325, 1131.542 769.475, 1130.013 767 C 1128.484 764.525, 1122.160 753.275, 1115.958 742 C 1109.757 730.725, 1102.569 717.675, 1099.983 713 C 1097.398 708.325, 1091.556 697.750, 1087.001 689.500 C 1077.370 672.055, 1077.087 671.546, 1065.299 650.500 C 1060.370 641.700, 1052.837 628.200, 1048.558 620.500 C 1044.280 612.800, 1036.618 599.075, 1031.533 590 C 1026.447 580.925, 1018.548 566.750, 1013.978 558.500 C 1004.800 541.929, 994.613 523.680, 976.018 490.500 C 944.676 434.572, 942.655 431.479, 929.363 419.065 C 916.389 406.949, 907.021 401.062, 890 394.326 C 874.989 388.387, 852.466 385.719, 834 387.694 M 180.370 489 C 180.370 494.775, 180.535 497.137, 180.737 494.250 C 180.939 491.363, 180.939 486.637, 180.737 483.750 C 180.535 480.863, 180.370 483.225, 180.370 489 M 434.483 593 C 434.483 653.225, 434.603 677.862, 434.750 647.750 C 434.897 617.637, 434.897 568.362, 434.750 538.250 C 434.603 508.137, 434.483 532.775, 434.483 593 M 180.482 613 C 180.482 670.475, 180.602 693.987, 180.750 665.250 C 180.897 636.512, 180.897 589.487, 180.750 560.750 C 180.602 532.012, 180.482 555.525, 180.482 613 M 791.384 674.862 C 789.120 675.918, 785.970 678.484, 784.384 680.563 L 781.500 684.344 781.235 776.986 L 780.970 869.628 783.288 874.011 C 785.920 878.990, 792.275 883, 797.532 883 C 804.286 883, 809.755 879.825, 846 854.866 C 849.575 852.404, 857 847.304, 862.500 843.534 C 868 839.763, 876.550 833.898, 881.500 830.501 C 896.120 820.467, 906.806 813.154, 918.500 805.177 C 931.859 796.065, 934.568 793.662, 937.300 788.500 C 940.344 782.748, 940.162 773.736, 936.873 767.334 C 934.169 762.069, 931.022 759.588, 902 739.836 C 893.475 734.034, 875.925 721.990, 863 713.072 C 813.334 678.801, 805.960 674.133, 800.500 673.511 C 796.753 673.084, 794.468 673.422, 791.384 674.862 M 180.343 725.500 C 180.346 729.900, 180.522 731.576, 180.733 729.224 C 180.945 726.872, 180.942 723.272, 180.727 721.224 C 180.512 719.176, 180.339 721.100, 180.343 725.500 M 272.250 816.749 C 286.962 816.905, 311.038 816.905, 325.750 816.749 C 340.462 816.593, 328.425 816.466, 299 816.466 C 269.575 816.466, 257.538 816.593, 272.250 816.749 M 259.324 908.750 C 279.577 908.901, 312.427 908.901, 332.324 908.750 C 352.221 908.598, 335.650 908.474, 295.500 908.474 C 255.350 908.475, 239.071 908.598, 259.324 908.750" stroke="none" fill="#faba28" fill-rule="evenodd"/><path d="M 113.344 459.993 C 104.370 461.873, 97.314 467.381, 92.837 476 L 90.500 480.500 90.217 622.500 C 89.943 760.249, 90.233 777.676, 92.996 789.122 C 98.159 810.516, 101.128 818.909, 108.307 832.403 C 115.996 846.858, 121.994 854.991, 133.500 866.565 C 155.639 888.836, 183.052 902.488, 213.695 906.505 C 230.149 908.662, 361.861 908.688, 376.129 906.537 C 404.872 902.204, 431.576 885.885, 449.662 861.601 C 452.488 857.806, 463.037 839.581, 473.105 821.101 C 483.172 802.620, 493.725 783.450, 496.555 778.500 C 512.152 751.218, 519.233 736.904, 521.573 727.922 C 525.902 711.305, 526.133 703.730, 525.808 589 L 525.500 480.500 523.145 476 C 519.565 469.156, 513.362 463.294, 507.558 461.267 C 503.289 459.776, 498.912 459.500, 479.500 459.500 C 457.446 459.500, 456.284 459.597, 451.258 461.870 C 448.375 463.173, 444.394 466.035, 442.411 468.230 C 434.982 476.454, 435.559 466.769, 434.976 593 C 434.451 706.419, 434.449 706.505, 432.248 713.654 C 430.950 717.874, 423.737 732.438, 414.668 749.154 C 406.210 764.744, 397.808 780.425, 395.997 784 C 386.197 803.347, 374.082 812.996, 355.883 815.949 C 347.436 817.320, 252.107 817.333, 241.198 815.966 C 214.394 812.605, 193.869 795.269, 183.753 767.447 L 180.500 758.500 180.296 618.828 C 180.122 499.460, 179.881 478.652, 178.643 475.688 C 176.396 470.311, 170.506 464.471, 164.742 461.908 C 159.859 459.736, 158.060 459.561, 138.500 459.349 C 126.950 459.224, 115.630 459.514, 113.344 459.993" stroke="none" fill="#fefefe" fill-rule="evenodd"/><path d="M 0 627.001 L 0 1254.002 627.250 1253.751 L 1254.500 1253.500 1254.751 626.750 L 1255.002 0 627.501 0 L 0 0 0 627.001 M 0.497 627.500 C 0.497 972.350, 0.611 1113.276, 0.750 940.668 C 0.889 768.060, 0.889 485.910, 0.750 313.668 C 0.611 141.426, 0.497 282.650, 0.497 627.500 M 423.844 283.912 C 394.355 290.317, 372 318.100, 372 348.345 C 372 376.466, 389.122 400.851, 415.746 410.647 C 422.962 413.302, 424.506 413.499, 438 413.479 C 452.044 413.459, 452.759 413.354, 460.732 410.163 C 476.433 403.879, 488.584 392.932, 496.429 378.003 C 501.043 369.222, 503.264 359.635, 503.264 348.500 C 503.264 337.498, 501.148 328.229, 496.550 319.100 C 482.936 292.065, 453.004 277.579, 423.844 283.912 M 156 284.515 C 138.887 289.160, 122.039 303.037, 114.131 319.001 C 104.871 337.694, 104.860 359.286, 114.100 377.934 C 120.306 390.459, 131.206 401.168, 144 407.310 C 155.862 413.005, 162.897 414.395, 176.743 413.779 C 185.746 413.378, 188.826 412.782, 195.632 410.123 C 224.200 398.962, 241.677 370.559, 237.978 341.304 C 234.773 315.958, 219.370 296.065, 195.500 286.446 C 189.231 283.919, 187.090 283.593, 175 283.323 C 165.331 283.107, 159.939 283.445, 156 284.515 M 834 387.694 C 816.883 389.525, 795.589 397.143, 782 406.297 C 772.010 413.027, 759.979 424.558, 752.449 434.621 C 747.560 441.155, 747.635 441.026, 727.315 477.500 C 719.348 491.800, 710.432 507.775, 707.501 513 C 701.231 524.179, 682.892 557.183, 664.993 589.500 C 645.893 623.986, 634.540 644.337, 622.038 666.500 C 615.833 677.500, 605.589 695.950, 599.273 707.500 C 592.956 719.050, 586.992 729.850, 586.018 731.500 C 583.971 734.967, 583.944 735.017, 562.476 774 C 553.540 790.225, 544.087 807.325, 541.468 812 C 538.850 816.675, 531.892 829.275, 526.007 840 C 520.122 850.725, 514.031 861.750, 512.472 864.500 C 498.124 889.805, 495.886 894.496, 496.353 898.289 C 496.896 902.697, 498.186 904.501, 502.427 906.790 C 505.134 908.250, 509.845 908.441, 542 908.393 L 578.500 908.338 584.072 905.803 C 590.380 902.933, 596.243 897.399, 599.227 891.500 C 600.340 889.300, 603.834 883, 606.993 877.500 C 615.593 862.525, 640.698 818.287, 648.988 803.500 C 652.996 796.350, 658.865 786, 662.030 780.500 C 665.195 775, 671.702 763.525, 676.490 755 C 681.278 746.475, 688.701 733.425, 692.986 726 C 697.271 718.575, 710.105 696.075, 721.506 676 C 732.907 655.925, 743.934 636.575, 746.010 633 C 749.791 626.493, 763.106 603.008, 796.472 544 C 806.269 526.675, 815.423 510.789, 816.814 508.697 C 825.516 495.621, 845.054 489.874, 861.310 495.609 C 867.226 497.697, 875.545 504.354, 878.356 509.251 C 879.698 511.588, 885.493 521.825, 891.235 532 C 907.883 561.502, 939.333 616.984, 965.776 663.500 C 1010.778 742.665, 1012.259 745.275, 1024.493 767 C 1029.293 775.525, 1035.153 785.875, 1037.515 790 C 1043.402 800.283, 1053.863 818.921, 1062.493 834.500 C 1066.453 841.650, 1071.036 849.750, 1072.677 852.500 C 1074.318 855.250, 1079.191 863.800, 1083.506 871.500 C 1100.050 901.021, 1100.602 901.725, 1110.744 906.211 C 1115.173 908.170, 1117.327 908.281, 1152.956 908.388 C 1187.473 908.491, 1190.768 908.354, 1193.829 906.684 C 1197.711 904.565, 1200.453 898.980, 1199.511 895.108 C 1198.919 892.675, 1191.121 877.883, 1179.947 858 C 1171.534 843.030, 1141.838 788.795, 1137.238 780 C 1134.793 775.325, 1131.542 769.475, 1130.013 767 C 1128.484 764.525, 1122.160 753.275, 1115.958 742 C 1109.757 730.725, 1102.569 717.675, 1099.983 713 C 1097.398 708.325, 1091.556 697.750, 1087.001 689.500 C 1077.370 672.055, 1077.087 671.546, 1065.299 650.500 C 1060.370 641.700, 1052.837 628.200, 1048.558 620.500 C 1044.280 612.800, 1036.618 599.075, 1031.533 590 C 1026.447 580.925, 1018.548 566.750, 1013.978 558.500 C 1004.800 541.929, 994.613 523.680, 976.018 490.500 C 944.676 434.572, 942.655 431.479, 929.363 419.065 C 916.389 406.949, 907.021 401.062, 890 394.326 C 874.989 388.387, 852.466 385.719, 834 387.694 M 109.764 459.964 C 105.437 461.317, 100.492 464.713, 96.637 468.980 C 89.516 476.863, 89.905 466.799, 90.280 633.103 C 90.646 795.291, 90.292 784.818, 96.056 804.062 C 106.631 839.369, 127.505 867.561, 157.173 886.605 C 171.481 895.789, 186.041 901.638, 204.761 905.721 L 217.500 908.500 295.500 908.500 L 373.500 908.500 384 905.759 C 406.701 899.834, 423.599 890.278, 439.271 874.504 C 451.158 862.539, 452.216 860.824, 486.739 797.500 C 489.738 792, 492.997 786.150, 493.981 784.500 C 494.965 782.850, 500.954 772.010, 507.290 760.412 C 519.952 737.235, 523.386 728.201, 525.044 713.715 C 525.740 707.626, 525.997 666.162, 525.799 591.500 L 525.500 478.500 522.788 473.887 C 519.544 468.368, 514.123 463.415, 508.565 460.890 C 504.989 459.266, 501.688 459.041, 481.116 459.022 C 466.564 459.008, 456.308 459.427, 453.962 460.130 C 447.617 462.031, 440.865 467.914, 437.518 474.457 L 434.500 480.356 433.977 593.928 C 433.495 698.539, 433.315 707.973, 431.691 713.500 C 430.722 716.800, 424.463 729.625, 417.784 742 C 411.104 754.375, 402.939 769.675, 399.640 776 C 396.341 782.325, 392.001 790.200, 389.997 793.500 C 386.053 799.993, 377.468 807.620, 370.320 810.980 C 360.162 815.754, 357.049 815.969, 297.878 815.985 L 242.256 816 232.669 813.568 C 207.278 807.127, 188.648 787.223, 182.529 760 C 180.989 753.151, 180.853 740.669, 180.961 616.233 C 181.074 484.866, 181.011 479.813, 179.197 475.733 C 176.608 469.907, 172.640 465.461, 167.145 462.230 L 162.500 459.500 137.500 459.305 C 123.750 459.197, 111.269 459.494, 109.764 459.964 M 791.384 674.862 C 789.120 675.918, 785.970 678.484, 784.384 680.563 L 781.500 684.344 781.235 776.986 L 780.970 869.628 783.288 874.011 C 785.920 878.990, 792.275 883, 797.532 883 C 804.286 883, 809.755 879.825, 846 854.866 C 849.575 852.404, 857 847.304, 862.500 843.534 C 868 839.763, 876.550 833.898, 881.500 830.501 C 896.120 820.467, 906.806 813.154, 918.500 805.177 C 931.859 796.065, 934.568 793.662, 937.300 788.500 C 940.344 782.748, 940.162 773.736, 936.873 767.334 C 934.169 762.069, 931.022 759.588, 902 739.836 C 893.475 734.034, 875.925 721.990, 863 713.072 C 813.334 678.801, 805.960 674.133, 800.500 673.511 C 796.753 673.084, 794.468 673.422, 791.384 674.862" stroke="none" fill="#040404" fill-rule="evenodd"/></svg>