<?xml version="1.0" encoding="UTF-8"?>
<svg version="1.1" xmlns="http://www.w3.org/2000/svg" width="1254" height="1254">
<path d="M0 0 C14.68447031 -0.11540607 29.3690076 -0.10225709 44.05377588 -0.06911301 C50.48290356 -0.05571825 56.91182748 -0.06082082 63.34094857 -0.07533159 C152.95455079 -0.26200754 242.2178916 3.06351574 679.31976317 156.69380293 C734.77256075 213.04738518 766.4624577 293.37331443 836.08267911 775.42781563 C836.06928435 781.85694331 836.07438692 788.28586723 836.0888977 794.71498833 C836.27557364 884.32859054 832.95005036 973.59193135 679.31976317 1410.69380293 C622.96618092 1466.1466005 542.64025167 1497.83649745 60.58575047 1567.45671886 C54.15662279 1567.44332411 47.72769887 1567.44842667 41.29857778 1567.46293745 C-48.31502444 1567.64961339 -137.57836525 1564.32409011 -574.68023683 1410.69380293 C-630.1330344 1354.34022067 -661.82293135 1274.01429143 -731.44315276 791.95979022 C-731.42975801 785.53066254 -731.43486057 779.10173862 -731.44937135 772.67261753 C-731.63604729 683.05901531 -728.31052401 593.7956745 0 0 Z " fill="#000000" transform="translate(574.6802368259523,-156.69380292703863)"/>
<path d="M0 0 C0.79059814 -0.00467285 1.58119629 -0.0093457 2.39575195 -0.01416016 C7.81072067 0.0004158 13.08317746 0.27986218 18.4375 1.125 C18.4375 1.785 18.4375 2.445 18.4375 3.125 C20.80755067 3.48785767 20.80755067 3.48785767 23.75 3.5625 C29.81288246 3.96621155 35.78042978 4.79758332 41.4375 7.125 C41.4375 7.785 41.4375 8.445 41.4375 9.125 C42.26894531 9.2590625 43.10039063 9.393125 43.95703125 9.53125 C48.13210176 10.24349547 51.36962849 11.72766798 55.125 13.625 C55.82906982 13.97957275 56.53313965 14.33414551 57.25854492 14.69946289 C63.70587162 18.06472469 68.99306361 22.32302358 74.4375 27.125 C76.31081053 28.58550291 78.18582403 30.04382404 80.0625 31.5 C88.24942642 38.20370295 95.25412515 46.87623311 100.4375 56.125 C100.4375 56.785 100.4375 57.445 100.4375 58.125 C101.0975 58.125 101.7575 58.125 102.4375 58.125 C103.5078125 60.0234375 103.5078125 60.0234375 104.5625 62.5 C105.09230469 63.71816406 105.09230469 63.71816406 105.6328125 64.9609375 C106.4375 67.125 106.4375 67.125 106.4375 69.125 C107.0975 69.125 107.7575 69.125 108.4375 69.125 C109.7265625 71.2421875 109.7265625 71.2421875 111.0625 74 C111.50851562 74.90492188 111.95453125 75.80984375 112.4140625 76.7421875 C113.4375 79.125 113.4375 79.125 113.4375 81.125 C114.0975 81.125 114.7575 81.125 115.4375 81.125 C116.77171565 83.2667369 117.96639043 85.38522554 119.1328125 87.6171875 C119.48511932 88.2783255 119.83742615 88.9394635 120.20040894 89.62063599 C120.94540933 91.02263841 121.68660506 92.42666806 122.42431641 93.83251953 C123.55637212 95.98833048 124.7009476 98.13711026 125.84765625 100.28515625 C126.56846105 101.64543474 127.28853763 103.00609941 128.0078125 104.3671875 C128.35151886 105.01307831 128.69522522 105.65896912 129.04934692 106.32443237 C131.4375 110.89316299 131.4375 110.89316299 131.4375 113.125 C132.0975 113.125 132.7575 113.125 133.4375 113.125 C134.79443359 115.30883789 134.79443359 115.30883789 136.3359375 118.34765625 C136.89796875 119.44400391 137.46 120.54035156 138.0390625 121.66992188 C138.62429688 122.83072266 139.20953125 123.99152344 139.8125 125.1875 C140.96489882 127.44985439 142.11851375 129.71158979 143.2734375 131.97265625 C143.81709961 133.0414502 144.36076172 134.11024414 144.92089844 135.21142578 C146.17420874 137.61918579 147.4752821 139.97012965 148.8515625 142.30859375 C150.4375 145.125 150.4375 145.125 150.4375 147.125 C151.0975 147.125 151.7575 147.125 152.4375 147.125 C153.79443359 149.20117188 153.79443359 149.20117188 155.3359375 152.09375 C155.89796875 153.14046875 156.46 154.1871875 157.0390625 155.265625 C157.62429688 156.37421875 158.20953125 157.4828125 158.8125 158.625 C159.67875 160.24148438 159.67875 160.24148438 160.5625 161.890625 C162.20257949 164.96109346 163.82534351 168.03979131 165.4375 171.125 C165.86836914 171.94871094 166.29923828 172.77242187 166.74316406 173.62109375 C169.4375 178.8720815 169.4375 178.8720815 169.4375 181.125 C170.0975 181.125 170.7575 181.125 171.4375 181.125 C172.5078125 183.0234375 172.5078125 183.0234375 173.5625 185.5 C173.91570313 186.31210937 174.26890625 187.12421875 174.6328125 187.9609375 C175.4375 190.125 175.4375 190.125 175.4375 192.125 C176.0975 192.125 176.7575 192.125 177.4375 192.125 C178.5078125 194.0234375 178.5078125 194.0234375 179.5625 196.5 C179.91570313 197.31210937 180.26890625 198.12421875 180.6328125 198.9609375 C181.4375 201.125 181.4375 201.125 181.4375 203.125 C182.0975 203.125 182.7575 203.125 183.4375 203.125 C184.7265625 205.2421875 184.7265625 205.2421875 186.0625 208 C186.50851562 208.90492188 186.95453125 209.80984375 187.4140625 210.7421875 C188.4375 213.125 188.4375 213.125 188.4375 215.125 C189.0975 215.125 189.7575 215.125 190.4375 215.125 C191.83984375 217.5390625 191.83984375 217.5390625 193.375 220.75 C193.87902344 221.79414062 194.38304687 222.83828125 194.90234375 223.9140625 C195.66224609 225.50347656 195.66224609 225.50347656 196.4375 227.125 C196.99566406 228.20523438 197.55382813 229.28546875 198.12890625 230.3984375 C199.4375 233.125 199.4375 233.125 199.4375 235.125 C200.0975 235.125 200.7575 235.125 201.4375 235.125 C202.5078125 237.0234375 202.5078125 237.0234375 203.5625 239.5 C203.91570313 240.31210937 204.26890625 241.12421875 204.6328125 241.9609375 C205.4375 244.125 205.4375 244.125 205.4375 246.125 C206.0975 246.125 206.7575 246.125 207.4375 246.125 C208.69140625 247.953125 208.69140625 247.953125 210 250.375 C210.43441406 251.16390625 210.86882813 251.9528125 211.31640625 252.765625 C212.4375 255.125 212.4375 255.125 212.96484375 257.359375 C213.19880859 258.23335937 213.19880859 258.23335937 213.4375 259.125 C214.0975 259.455 214.7575 259.785 215.4375 260.125 C216.5078125 262.12109375 216.5078125 262.12109375 217.5625 264.5625 C217.91570313 265.36558594 218.26890625 266.16867187 218.6328125 266.99609375 C219.4375 269.125 219.4375 269.125 219.4375 271.125 C220.0975 271.125 220.7575 271.125 221.4375 271.125 C222.35175393 273.4289199 222.97942829 275.77266051 223.65625 278.15625 C223.9140625 278.8059375 224.171875 279.455625 224.4375 280.125 C225.0975 280.125 225.7575 280.125 226.4375 280.125 C227.67431641 282.02099609 227.67431641 282.02099609 229.0390625 284.6484375 C229.52890625 285.586875 230.01875 286.5253125 230.5234375 287.4921875 C231.03132813 288.48476563 231.53921875 289.47734375 232.0625 290.5 C232.578125 291.48484375 233.09375 292.4696875 233.625 293.484375 C237.4375 300.84713955 237.4375 300.84713955 237.4375 303.125 C238.0975 303.125 238.7575 303.125 239.4375 303.125 C240.5078125 305.0234375 240.5078125 305.0234375 241.5625 307.5 C241.91570313 308.31210937 242.26890625 309.12421875 242.6328125 309.9609375 C243.4375 312.125 243.4375 312.125 243.4375 314.125 C244.0975 314.125 244.7575 314.125 245.4375 314.125 C246.4015918 315.91545621 247.34907729 317.71651563 248.21875 319.5546875 C250.14216288 323.61111594 252.22169942 327.58915233 254.265625 331.5859375 C255.4375 334.125 255.4375 334.125 255.4375 336.125 C256.0975 336.125 256.7575 336.125 257.4375 336.125 C258.76953125 338.43359375 258.76953125 338.43359375 260.25 341.5625 C262.52277028 346.28115084 264.91931062 350.85792012 267.5546875 355.3828125 C268.4375 357.125 268.4375 357.125 268.4375 359.125 C269.0975 359.125 269.7575 359.125 270.4375 359.125 C271.5078125 361.0234375 271.5078125 361.0234375 272.5625 363.5 C272.91570313 364.31210937 273.26890625 365.12421875 273.6328125 365.9609375 C274.4375 368.125 274.4375 368.125 274.4375 370.125 C275.0975 370.125 275.7575 370.125 276.4375 370.125 C277.41972516 371.99377903 278.39005452 373.86988192 279.29589844 375.77685547 C280.42920586 378.10793991 281.65836393 380.3481958 282.9453125 382.59765625 C283.37457031 383.35240234 283.80382813 384.10714844 284.24609375 384.88476562 C285.12730856 386.42623782 286.01276606 387.96529195 286.90234375 389.50195312 C288.89409386 393.01910702 290.60390896 396.25590492 291.6171875 400.18359375 C291.88789062 401.15425781 292.15859375 402.12492187 292.4375 403.125 C293.0975 403.125 293.7575 403.125 294.4375 403.125 C295.71850586 405.15698242 295.71850586 405.15698242 297.15234375 407.98046875 C297.67376953 408.99560547 298.19519531 410.01074219 298.73242188 411.05664062 C299.27447266 412.13107422 299.81652344 413.20550781 300.375 414.3125 C301.44531076 416.41082181 302.51688387 418.50850031 303.58984375 420.60546875 C304.3012854 422.01155396 304.3012854 422.01155396 305.02709961 423.44604492 C306.85497453 426.91796313 308.87765383 430.23893304 310.97265625 433.5546875 C315.59724681 440.95876343 315.59724681 440.95876343 316.6875 445.25 C316.935 446.19875 317.1825 447.1475 317.4375 448.125 C318.0975 448.125 318.7575 448.125 319.4375 448.125 C320.5078125 450.0234375 320.5078125 450.0234375 321.5625 452.5 C321.91570313 453.31210937 322.26890625 454.12421875 322.6328125 454.9609375 C323.4375 457.125 323.4375 457.125 323.4375 459.125 C324.0975 459.125 324.7575 459.125 325.4375 459.125 C326.5078125 461.0234375 326.5078125 461.0234375 327.5625 463.5 C327.91570313 464.31210937 328.26890625 465.12421875 328.6328125 465.9609375 C329.4375 468.125 329.4375 468.125 329.4375 470.125 C330.0975 470.125 330.7575 470.125 331.4375 470.125 C332.80839481 472.37686832 334.04192133 474.60915092 335.24609375 476.94921875 C335.6134816 477.64763382 335.98086945 478.34604889 336.35939026 479.06562805 C337.5386293 481.31081372 338.70709649 483.56140017 339.875 485.8125 C341.04147237 488.04456715 342.21012172 490.2754764 343.37989807 492.5058136 C344.10800226 493.89582164 344.83381073 495.28703535 345.55699158 496.67961121 C347.01242696 499.47247013 348.48627807 502.20226464 350.16821289 504.86645508 C351.94895515 508.03507339 351.70207954 510.55317623 351.4375 514.125 C350.0647614 518.24321581 348.05199864 519.54857462 344.44619751 521.84143066 C338.17728837 524.51587019 331.27786105 523.9805176 324.57421875 523.921875 C322.93430567 523.92592572 321.29439611 523.93175626 319.65449524 523.93927002 C316.22740172 523.9480815 312.80125084 523.93537692 309.37426758 523.90722656 C305.0131182 523.87312178 300.65419133 523.89269038 296.2931242 523.92866135 C292.90832756 523.95050463 289.52404416 523.94336781 286.13923073 523.92789459 C284.5331069 523.92393223 282.92693427 523.92866052 281.32086754 523.94277191 C269.72325266 524.02230149 260.75853757 522.21671621 251.46484375 514.73046875 C248.92535586 511.4668109 246.94257045 508.08025013 245 504.4375 C244.22139743 503.00968221 243.44144897 501.58259753 242.66015625 500.15625 C242.28391113 499.46660156 241.90766602 498.77695312 241.52001953 498.06640625 C239.65000553 494.71269599 237.59928556 491.47245908 235.53125 488.23828125 C234.4375 486.125 234.4375 486.125 233.90625 483.35546875 C233.7515625 482.61941406 233.596875 481.88335938 233.4375 481.125 C232.7775 481.125 232.1175 481.125 231.4375 481.125 C230.0703125 478.74609375 230.0703125 478.74609375 228.5625 475.5625 C226.83065902 471.96723209 225.10202328 468.43076952 223.0625 465 C221.4375 462.125 221.4375 462.125 221.4375 460.125 C220.7775 460.125 220.1175 460.125 219.4375 460.125 C218.2109375 457.9921875 218.2109375 457.9921875 216.8125 455 C213.89052412 448.94066918 210.65370922 443.1587318 207.26953125 437.3515625 C202.4375 428.84141791 202.4375 428.84141791 202.4375 426.125 C201.4475 425.795 200.4575 425.465 199.4375 425.125 C198.55859375 423.05859375 198.55859375 423.05859375 197.875 420.5625 C197.24750433 418.1295403 197.24750433 418.1295403 196.4375 416.125 C195.7775 416.125 195.1175 416.125 194.4375 416.125 C193.52324607 413.8210801 192.89557171 411.47733949 192.21875 409.09375 C191.9609375 408.4440625 191.703125 407.794375 191.4375 407.125 C190.7775 407.125 190.1175 407.125 189.4375 407.125 C188.02050781 404.78930664 188.02050781 404.78930664 186.390625 401.53515625 C186.09694031 400.9572081 185.80325562 400.37925995 185.50067139 399.78379822 C184.55541218 397.92206284 183.62058895 396.05536132 182.6875 394.1875 C179.0398109 386.90655094 175.40362447 379.75903278 170.75048828 373.05395508 C168.86223427 370.27985784 167.31628088 367.40576657 165.75 364.4375 C165.18925781 363.38175781 164.62851562 362.32601563 164.05078125 361.23828125 C163.51839844 360.21089844 162.98601563 359.18351562 162.4375 358.125 C161.87417969 357.04605469 161.31085937 355.96710938 160.73046875 354.85546875 C159.4375 352.125 159.4375 352.125 159.4375 350.125 C158.4475 349.795 157.4575 349.465 156.4375 349.125 C155.21008047 346.97315115 154.15587522 344.87012728 153.125 342.625 C148.84026068 333.63847905 143.95171268 325.02000316 139.01049805 316.38085938 C138.41922119 315.33994141 137.82794434 314.29902344 137.21875 313.2265625 C136.68314453 312.29150879 136.14753906 311.35645508 135.59570312 310.39306641 C134.4375 308.125 134.4375 308.125 134.4375 306.125 C133.4475 305.795 132.4575 305.465 131.4375 305.125 C129.93382097 302.53598066 128.59900018 300.00566797 127.3125 297.3125 C126.95285156 296.58740234 126.59320312 295.86230469 126.22265625 295.11523438 C123.53021092 289.60429291 123.53021092 289.60429291 123.01611328 286.9465332 C122.8251709 286.34542725 122.63422852 285.74432129 122.4375 285.125 C121.4475 284.795 120.4575 284.465 119.4375 284.125 C118.12663015 281.8271935 116.98488739 279.58051863 115.875 277.1875 C112.83472715 270.86514723 109.61612671 264.6832714 106.1875 258.5625 C105.77556396 257.82588135 105.36362793 257.0892627 104.93920898 256.33032227 C102.62458861 252.20541656 102.62458861 252.20541656 100.25195312 248.11376953 C97.4375 243.32450022 97.4375 243.32450022 97.4375 241.125 C96.4475 240.795 95.4575 240.465 94.4375 240.125 C93.26953125 238.12890625 93.26953125 238.12890625 92.25 235.6875 C91.90582031 234.88441406 91.56164062 234.08132813 91.20703125 233.25390625 C90.4375 231.125 90.4375 231.125 90.4375 229.125 C89.7775 229.125 89.1175 229.125 88.4375 229.125 C87.52324607 226.8210801 86.89557171 224.47733949 86.21875 222.09375 C85.9609375 221.4440625 85.703125 220.794375 85.4375 220.125 C84.7775 220.125 84.1175 220.125 83.4375 220.125 C82.18823242 218.140625 82.18823242 218.140625 80.79296875 215.375 C80.02436523 213.87259766 80.02436523 213.87259766 79.24023438 212.33984375 C78.70720703 211.27894531 78.17417969 210.21804688 77.625 209.125 C72.87306593 199.7335117 72.87306593 199.7335117 67.41137695 190.74609375 C66.4375 189.125 66.4375 189.125 65.4375 186.125 C64.963125 185.7125 64.48875 185.3 64 184.875 C61.72213446 182.3237906 61.35663658 179.37261591 60.4375 176.125 C59.7775 176.125 59.1175 176.125 58.4375 176.125 C57.03006009 173.58204593 55.74361614 171.05936227 54.5 168.4375 C53.80526623 166.99518629 53.1086892 165.5537588 52.41015625 164.11328125 C52.07773926 163.42572754 51.74532227 162.73817383 51.40283203 162.02978516 C50.57163474 160.38967356 49.63645927 158.80301518 48.68359375 157.23046875 C47.4375 155.125 47.4375 155.125 47.4375 153.125 C46.7775 153.125 46.1175 153.125 45.4375 153.125 C44.40234375 151.296875 44.40234375 151.296875 43.375 148.875 C42.86259766 147.69164062 42.86259766 147.69164062 42.33984375 146.484375 C41.4375 144.125 41.4375 144.125 40.94140625 141.828125 C40.77511719 141.26609375 40.60882812 140.7040625 40.4375 140.125 C39.7775 140.125 39.1175 140.125 38.4375 140.125 C36.52615723 136.72663256 34.78653273 133.28039407 33.06640625 129.78320312 C28.65558221 121.06520944 28.65558221 121.06520944 21.25292969 115.05834961 C20.65383789 114.75034424 20.05474609 114.44233887 19.4375 114.125 C19.4375 113.465 19.4375 112.805 19.4375 112.125 C17.77708925 111.76178515 16.10806149 111.43823028 14.4375 111.125 C13.32375 110.609375 12.21 110.09375 11.0625 109.5625 C1.98600634 106.0794599 -8.58350797 107.65070535 -17.68359375 110.2734375 C-18.30363281 110.55445313 -18.92367188 110.83546875 -19.5625 111.125 C-19.5625 111.785 -19.5625 112.445 -19.5625 113.125 C-21.06640625 114.09765625 -21.06640625 114.09765625 -23.125 115.1875 C-31.16485216 120.05970723 -35.09554979 127.5161034 -38.51953125 136.03515625 C-38.86371094 136.72480469 -39.20789063 137.41445313 -39.5625 138.125 C-40.2225 138.125 -40.8825 138.125 -41.5625 138.125 C-42.28295764 140.1062585 -42.94251259 142.11004093 -43.5625 144.125 C-44.5625 146.5 -44.5625 146.5 -45.5625 148.125 C-46.2225 148.125 -46.8825 148.125 -47.5625 148.125 C-48.25669295 150.11561312 -48.91745111 152.11792343 -49.5625 154.125 C-50.63517643 156.17408703 -51.76612188 158.19319168 -52.9375 160.1875 C-53.65009913 161.41124904 -54.36231262 162.63522269 -55.07421875 163.859375 C-55.46657715 164.53033203 -55.85893555 165.20128906 -56.26318359 165.89257812 C-58.78516407 170.22572159 -61.26396266 174.58367265 -63.75 178.9375 C-64.24870605 179.80834229 -64.74741211 180.67918457 -65.26123047 181.57641602 C-67.62759976 185.71264708 -69.98525541 189.85381518 -72.3203125 194.0078125 C-72.9083667 195.05219482 -72.9083667 195.05219482 -73.50830078 196.11767578 C-74.55203471 198.1050728 -75.4143093 200.10528495 -76.25 202.1875 C-76.683125 203.156875 -77.11625 204.12625 -77.5625 205.125 C-78.2225 205.125 -78.8825 205.125 -79.5625 205.125 C-79.85125 205.99125 -80.14 206.8575 -80.4375 207.75 C-81.65745554 211.40986661 -83.35313447 213.97832789 -85.5625 217.125 C-87.79325228 220.58839115 -87.79325228 220.58839115 -89.125 224.4375 C-89.269375 224.994375 -89.41375 225.55125 -89.5625 226.125 C-90.2225 226.125 -90.8825 226.125 -91.5625 226.125 C-92.24275637 228.12041868 -92.90740497 230.12117991 -93.5625 232.125 C-94.54490019 233.47135346 -95.54667552 234.80368308 -96.5625 236.125 C-97.46591367 237.6080606 -98.34106954 239.10869512 -99.1875 240.625 C-99.82558594 241.75421875 -99.82558594 241.75421875 -100.4765625 242.90625 C-101.64191129 245.07409404 -101.64191129 245.07409404 -102.0859375 247.40625 C-102.24320313 247.9734375 -102.40046875 248.540625 -102.5625 249.125 C-103.2225 249.125 -103.8825 249.125 -104.5625 249.125 C-104.8925 250.28 -105.2225 251.435 -105.5625 252.625 C-105.8925 253.78 -106.2225 254.935 -106.5625 256.125 C-107.2225 256.125 -107.8825 256.125 -108.5625 256.125 C-109.26960678 257.77491582 -109.92812656 259.4457762 -110.5625 261.125 C-111.305 262.3315625 -111.305 262.3315625 -112.0625 263.5625 C-113.70424888 266.15413922 -113.70424888 266.15413922 -114.625 269.4375 C-114.934375 270.324375 -115.24375 271.21125 -115.5625 272.125 C-116.2225 272.125 -116.8825 272.125 -117.5625 272.125 C-118.24239679 274.12054123 -118.90635027 276.12152502 -119.5625 278.125 C-120.69474893 280.03387234 -121.88374538 281.91014451 -123.125 283.75 C-125.27870623 286.94697765 -126.64755981 289.41295695 -127.5625 293.125 C-128.2225 293.125 -128.8825 293.125 -129.5625 293.125 C-130.27155938 295.11036627 -130.92944179 297.11410922 -131.5625 299.125 C-133.0625 302.5 -133.0625 302.5 -134.5625 305.125 C-135.2225 305.125 -135.8825 305.125 -136.5625 305.125 C-136.93375 306.300625 -136.93375 306.300625 -137.3125 307.5 C-138.40007029 310.65395383 -139.54225891 312.90354384 -141.2734375 315.7109375 C-144.42354663 320.88032317 -147.44558097 326.11284073 -150.4375 331.375 C-151.48426551 333.21360401 -152.53114083 335.0521455 -153.578125 336.890625 C-154.08408203 337.77943359 -154.59003906 338.66824219 -155.11132812 339.58398438 C-156.41560002 341.86777675 -157.72830679 344.14631639 -159.046875 346.421875 C-159.41312988 347.05577148 -159.77938477 347.68966797 -160.15673828 348.34277344 C-161.11550242 350.00051343 -162.07716542 351.65657592 -163.0390625 353.3125 C-164.58376673 356.02889921 -164.58376673 356.02889921 -165.5625 358.6640625 C-166.72560999 361.5264035 -168.24330231 363.91801313 -169.9375 366.5 C-174.26801017 373.20155396 -178.02950212 379.95098223 -181.4140625 387.18359375 C-181.98253906 388.14458984 -181.98253906 388.14458984 -182.5625 389.125 C-183.2225 389.125 -183.8825 389.125 -184.5625 389.125 C-185.24748646 391.11879989 -185.90945389 393.12051123 -186.5625 395.125 C-187.8522596 397.58221441 -189.1695815 399.97863925 -190.5625 402.375 C-191.36916709 403.78346635 -192.1751287 405.19233694 -192.98046875 406.6015625 C-193.40118652 407.33536133 -193.8219043 408.06916016 -194.25537109 408.82519531 C-195.60163987 411.19386394 -196.92356011 413.57462531 -198.23828125 415.9609375 C-198.67849609 416.75983398 -199.11871094 417.55873047 -199.57226562 418.38183594 C-200.42021671 419.92327625 -201.26665113 421.46555218 -202.11132812 423.00878906 C-204.41825372 427.18890794 -206.89157911 431.16276612 -209.5625 435.125 C-210.5665243 436.86085787 -211.54660675 438.61082635 -212.5 440.375 C-213.00917969 441.31472656 -213.51835938 442.25445313 -214.04296875 443.22265625 C-215.95614131 446.87686503 -217.74050663 450.58652754 -219.484375 454.32421875 C-219.84015625 454.91847656 -220.1959375 455.51273438 -220.5625 456.125 C-221.2225 456.125 -221.8825 456.125 -222.5625 456.125 C-223.25700604 458.11550391 -223.91606833 460.11836836 -224.5625 462.125 C-225.79556559 464.80444053 -227.17162459 467.39966771 -228.5625 470 C-228.91828125 470.68835938 -229.2740625 471.37671875 -229.640625 472.0859375 C-230.55221615 473.80027309 -231.55054633 475.46792586 -232.5625 477.125 C-233.2225 477.125 -233.8825 477.125 -234.5625 477.125 C-235.27354915 479.10965452 -235.93172645 481.1133914 -236.5625 483.125 C-238.47875324 487.16045853 -240.62702816 491.069989 -242.75 495 C-243.57854492 496.57587891 -243.57854492 496.57587891 -244.42382812 498.18359375 C-248.73188819 506.17927317 -253.75634473 514.12105431 -261.5625 519.125 C-263.5549325 519.50093066 -265.5543674 519.84479545 -267.5625 520.125 C-267.5625 520.785 -267.5625 521.445 -267.5625 522.125 C-271.09233008 523.51954761 -274.83722262 523.25203442 -278.57836914 523.25439453 C-279.27639145 523.25614685 -279.97441376 523.25789917 -280.69358826 523.25970459 C-282.99496973 523.26409672 -285.29627403 523.26119473 -287.59765625 523.2578125 C-289.19901036 523.25848622 -290.80036438 523.25945682 -292.40171814 523.26071167 C-295.75488256 523.262185 -299.10802032 523.2600455 -302.46118164 523.25537109 C-306.76095987 523.24966942 -311.06067574 523.25295789 -315.3604517 523.25894356 C-318.66581188 523.26255507 -321.97115724 523.26140794 -325.27651787 523.25881577 C-326.8621668 523.25814837 -328.44781707 523.25896839 -330.03346443 523.26129532 C-332.24768775 523.26383199 -334.46180964 523.2599671 -336.67602539 523.25439453 C-337.936371 523.25359894 -339.19671661 523.25280334 -340.49525452 523.25198364 C-343.5625 523.125 -343.5625 523.125 -346.5625 522.125 C-346.5625 521.465 -346.5625 520.805 -346.5625 520.125 C-347.8778341 519.42348848 -349.21367592 518.75974075 -350.5625 518.125 C-352.9698459 515.7176541 -352.93644558 514.94443298 -353.0625 511.625 C-352.93373387 507.48713497 -352.21900199 505.03906474 -349.9609375 501.58203125 C-346.22723498 495.64807174 -342.97075389 489.5041143 -339.6875 483.3125 C-335.39056367 475.26048137 -331.05831918 467.31585017 -326.11328125 459.640625 C-324.40884524 456.87574643 -322.99116593 454.04139815 -321.5625 451.125 C-319.34206065 446.88312295 -317.08171707 442.66313893 -314.81152344 438.44775391 C-313.9214942 436.79260571 -313.03444449 435.13585386 -312.14941406 433.47802734 C-310.66994593 430.71022553 -309.17977875 427.9484123 -307.6875 425.1875 C-306.97303711 423.84534424 -306.97303711 423.84534424 -306.24414062 422.47607422 C-305.79490234 421.64994629 -305.34566406 420.82381836 -304.8828125 419.97265625 C-304.48336426 419.23023682 -304.08391602 418.48781738 -303.67236328 417.72290039 C-303.3061084 417.19559326 -302.93985352 416.66828613 -302.5625 416.125 C-301.9025 416.125 -301.2425 416.125 -300.5625 416.125 C-299.71006164 414.2273518 -299.71006164 414.2273518 -299.0625 411.875 C-298.13655311 408.79522012 -297.2358937 405.88863505 -295.5625 403.125 C-294.9025 403.125 -294.2425 403.125 -293.5625 403.125 C-293.11525091 401.47361874 -292.67190634 399.82110065 -292.24609375 398.1640625 C-291.51951792 395.99679059 -290.57742722 394.39941147 -289.3125 392.5 C-285.8083672 387.04617556 -282.95896891 381.27427545 -280.04882812 375.48828125 C-279.62666016 374.66714844 -279.20449219 373.84601563 -278.76953125 373 C-278.3928833 372.25492188 -278.01623535 371.50984375 -277.62817383 370.7421875 C-277.27650146 370.20851563 -276.9248291 369.67484375 -276.5625 369.125 C-275.9025 369.125 -275.2425 369.125 -274.5625 369.125 C-274.21975594 367.46024314 -273.88885698 365.79304677 -273.5625 364.125 C-272.125 360.8125 -272.125 360.8125 -270.5625 358.125 C-269.9025 358.125 -269.2425 358.125 -268.5625 358.125 C-268.21975594 356.46024314 -267.88885698 354.79304677 -267.5625 353.125 C-266.125 349.8125 -266.125 349.8125 -264.5625 347.125 C-263.9025 347.125 -263.2425 347.125 -262.5625 347.125 C-261.71591884 345.08821024 -261.71591884 345.08821024 -261.0625 342.625 C-260.34375 340.09375 -260.34375 340.09375 -259.5625 338.125 C-258.9025 338.125 -258.2425 338.125 -257.5625 338.125 C-256.82730478 336.14916285 -256.17177518 334.14322402 -255.5625 332.125 C-254.5625 329.25 -254.5625 329.25 -253.5625 327.125 C-252.9025 327.125 -252.2425 327.125 -251.5625 327.125 C-251.21370183 325.46150106 -250.8838218 323.79402402 -250.5625 322.125 C-249.73033178 320.38476548 -248.82853059 318.67681232 -247.875 317 C-247.33488281 316.03964844 -246.79476562 315.07929687 -246.23828125 314.08984375 C-245.68527344 313.11144531 -245.13226562 312.13304687 -244.5625 311.125 C-243.56005595 309.27215355 -242.56000204 307.41801171 -241.5625 305.5625 C-239.63943569 302.03187412 -237.647661 298.56225758 -235.5625 295.125 C-231.90923255 289.0957 -228.58206035 282.90043698 -225.25732422 276.68505859 C-223.78266998 273.93207247 -222.29792765 271.18468552 -220.8125 268.4375 C-220.32821533 267.52693848 -219.84393066 266.61637695 -219.3449707 265.67822266 C-218.88566162 264.83179199 -218.42635254 263.98536133 -217.953125 263.11328125 C-217.3348584 261.96146362 -217.3348584 261.96146362 -216.70410156 260.78637695 C-216.32737305 260.23812256 -215.95064453 259.68986816 -215.5625 259.125 C-214.9025 259.125 -214.2425 259.125 -213.5625 259.125 C-213.21975594 257.46024314 -212.88885698 255.79304677 -212.5625 254.125 C-211.125 250.8125 -211.125 250.8125 -209.5625 248.125 C-208.9025 248.125 -208.2425 248.125 -207.5625 248.125 C-206.82730478 246.14916285 -206.17177518 244.14322402 -205.5625 242.125 C-204.5625 239.25 -204.5625 239.25 -203.5625 237.125 C-202.9025 237.125 -202.2425 237.125 -201.5625 237.125 C-201.315 236.36445312 -201.0675 235.60390625 -200.8125 234.8203125 C-199.0238928 229.53274245 -196.27345469 224.86565217 -193.5625 220 C-192.47864652 218.03934995 -191.39529323 216.07842328 -190.3125 214.1171875 C-189.83296875 213.25464355 -189.3534375 212.39209961 -188.859375 211.50341797 C-187.54623776 209.16492674 -187.54623776 209.16492674 -186.515625 206.81298828 C-186.20109375 206.25595215 -185.8865625 205.69891602 -185.5625 205.125 C-184.9025 205.125 -184.2425 205.125 -183.5625 205.125 C-183.376875 204.135 -183.376875 204.135 -183.1875 203.125 C-182.35958057 199.15098675 -180.79855415 195.5254899 -178.5625 192.125 C-177.9025 192.125 -177.2425 192.125 -176.5625 192.125 C-175.85723572 190.13828242 -175.19897427 188.13481217 -174.5625 186.125 C-172.67240582 182.20829099 -170.60689921 178.3900546 -168.54003906 174.56396484 C-167.55648823 172.7388443 -166.58658873 170.90688595 -165.6171875 169.07421875 C-165.00101563 167.92824219 -164.38484375 166.78226563 -163.75 165.6015625 C-163.18667969 164.55049316 -162.62335938 163.49942383 -162.04296875 162.41650391 C-161.55441406 161.66030762 -161.06585937 160.90411133 -160.5625 160.125 C-159.9025 160.125 -159.2425 160.125 -158.5625 160.125 C-157.82730478 158.14916285 -157.17177518 156.14322402 -156.5625 154.125 C-155.5625 151.25 -155.5625 151.25 -154.5625 149.125 C-153.9025 149.125 -153.2425 149.125 -152.5625 149.125 C-151.86199752 147.13659845 -151.20334026 145.13342431 -150.5625 143.125 C-149.44495004 140.83739772 -148.27930508 138.57294315 -147.078125 136.328125 C-146.74004822 135.69445007 -146.40197144 135.06077515 -146.0536499 134.40789795 C-145.33974965 133.07217256 -144.62358354 131.73765597 -143.90527344 130.40429688 C-142.82457552 128.39742442 -141.75155478 126.38660005 -140.6796875 124.375 C-137.16793381 117.80838204 -133.57872517 111.32118901 -129.68261719 104.97167969 C-128.53020921 103.128326 -128.53020921 103.128326 -127.5625 101.125 C-126.9025 101.125 -126.2425 101.125 -125.5625 101.125 C-125.19378912 99.46580104 -124.86654678 97.79725729 -124.5625 96.125 C-123.625 93.8125 -123.625 93.8125 -122.5625 92.125 C-121.9025 92.125 -121.2425 92.125 -120.5625 92.125 C-119.67514065 90.16032723 -119.67514065 90.16032723 -119 87.75 C-117.61577869 83.23155738 -117.61577869 83.23155738 -116.5625 81.125 C-115.9025 81.125 -115.2425 81.125 -114.5625 81.125 C-113.89386709 79.12565649 -113.22787035 77.12543164 -112.5625 75.125 C-110.9279174 71.76957328 -109.12151181 68.5139811 -107.3125 65.25 C-106.84714844 64.39019531 -106.38179687 63.53039062 -105.90234375 62.64453125 C-102.8541194 57.11070247 -99.5078682 52.05671025 -95.5625 47.125 C-94.881875 46.27035156 -94.881875 46.27035156 -94.1875 45.3984375 C-83.00110841 31.56263738 -83.00110841 31.56263738 -76.5625 27.125 C-75.9025 27.125 -75.2425 27.125 -74.5625 27.125 C-74.5625 26.465 -74.5625 25.805 -74.5625 25.125 C-72.50849525 23.60576572 -70.47325447 22.22774949 -68.3125 20.875 C-67.67932861 20.47531006 -67.04615723 20.07562012 -66.39379883 19.66381836 C-57.72170027 14.26883395 -49.61112295 10.13472459 -39.5625 8.125 C-39.5625 7.465 -39.5625 6.805 -39.5625 6.125 C-37.1507038 5.46365211 -34.8281081 4.94726436 -32.375 4.5 C-31.70146484 4.3659375 -31.02792969 4.231875 -30.33398438 4.09375 C-27.36864018 3.52671833 -24.59772821 3.1245395 -21.57421875 3.1640625 C-20.57841797 3.14472656 -20.57841797 3.14472656 -19.5625 3.125 C-19.5625 2.465 -19.5625 1.805 -19.5625 1.125 C-13.06420419 0.05970561 -6.57000942 0.02691314 0 0 Z " fill="#F9B927" transform="translate(848.5625,385.875)"/>
<path d="M0 0 C0.94198242 -0.01929062 1.88396484 -0.03858124 2.85449219 -0.05845642 C7.17492412 -0.11669038 11.49519682 -0.16552001 15.81591797 -0.19628906 C18.08332614 -0.21780178 20.3506528 -0.25182368 22.61767578 -0.29882812 C47.93236819 -0.81828399 47.93236819 -0.81828399 58.15844727 7.83325195 C65.0368625 14.9028763 65.68105381 23.98842805 65.61682129 33.37545776 C65.62135142 34.46821742 65.62588155 35.56097708 65.63054895 36.68685067 C65.64213416 40.33212804 65.63254108 43.97703572 65.62304688 47.62231445 C65.62715396 50.24302913 65.63261564 52.86374199 65.639328 55.48445129 C65.65186824 61.1220809 65.65387604 66.75963381 65.64897156 72.39727402 C65.64214194 80.56891963 65.65472052 88.74045047 65.67247874 96.91207553 C65.7011063 110.19910977 65.71863371 123.48613157 65.72705078 136.77319336 C65.72781155 137.9647963 65.72781155 137.9647963 65.72858769 139.18047203 C65.7321125 144.81489461 65.73524127 150.44931738 65.73828125 156.08374023 C65.74174736 162.50268573 65.7453979 168.92163105 65.74951172 175.34057617 C65.75001433 176.13097081 65.75051695 176.92136545 65.7510348 177.73571144 C65.75980996 190.96290693 65.78031181 204.19006 65.80899382 217.41722691 C65.82608161 225.55658047 65.83280033 233.69581329 65.82568777 241.83518238 C65.82147604 247.4259882 65.8279614 253.01671843 65.8424865 258.60750668 C65.85046377 261.82206917 65.85210957 265.03640802 65.84366417 268.25097466 C65.81614761 279.60504362 65.85288104 290.82043143 67.5748291 302.06546021 C67.69105039 302.82767596 67.80727168 303.58989172 67.92701483 304.37520492 C68.66904657 308.57942771 69.84412741 311.68642741 72.23828125 315.20874023 C72.89568631 316.84190004 73.52132389 318.48823576 74.11328125 320.14624023 C75.86052117 324.60994372 77.93680032 327.67692342 81.23828125 331.20874023 C82.36357679 332.54182415 83.48855686 333.8751744 84.61328125 335.20874023 C91.05797946 342.51644339 98.46368572 348.62477797 107.73828125 351.89624023 C108.89328125 352.32936523 110.04828125 352.76249023 111.23828125 353.20874023 C111.23828125 353.86874023 111.23828125 354.52874023 111.23828125 355.20874023 C113.71681214 355.72269521 116.07185071 356.0602532 118.58349609 356.31713867 C119.38328573 356.40135952 120.18307537 356.48558037 121.00710106 356.57235336 C132.54808177 357.65954541 144.1345986 357.49648744 155.71484375 357.47436523 C158.22260577 357.47571507 160.73036753 357.47765825 163.23812866 357.48016357 C168.45044488 357.48309006 173.6626919 357.47889103 178.875 357.46948242 C184.90457987 357.45913074 190.93399408 357.46220653 196.96356833 357.47313523 C202.78993058 357.48327181 208.61624151 357.48224529 214.44260788 357.47637177 C216.915511 357.47503422 219.38841756 357.47668664 221.86131668 357.48133087 C225.29126615 357.4863688 228.72094946 357.47872964 232.15087891 357.4675293 C233.17923355 357.47157776 234.2075882 357.47562622 235.2671051 357.47979736 C236.19189163 357.47415771 237.11667816 357.46851807 238.06948853 357.46270752 C238.87941065 357.46195347 239.68933277 357.46119942 240.52379799 357.46042252 C241.3724672 357.33583979 241.3724672 357.33583979 242.23828125 357.20874023 C242.23828125 356.54874023 242.23828125 355.88874023 242.23828125 355.20874023 C244.90563063 354.46001058 247.53770702 353.80834325 250.23828125 353.20874023 C254.68172558 352.11608999 257.12148266 351.44928269 260.23828125 348.20874023 C261.68705921 347.11266103 263.14623011 346.03023834 264.61328125 344.95874023 C270.77812165 340.20500779 273.81893344 335.10428962 277.23828125 328.20874023 C282.55781321 317.88530892 288.05303898 307.65409109 293.61328125 297.45874023 C294.1127124 296.54286133 294.61214355 295.62698242 295.12670898 294.68334961 C297.78179348 289.82905446 300.48051395 285.00536969 303.23828125 280.20874023 C305.29914734 276.57255243 307.29083177 272.90697558 309.23828125 269.20874023 C309.78226562 268.18393555 310.32625 267.15913086 310.88671875 266.10327148 C311.41523438 265.04495117 311.94375 263.98663086 312.48828125 262.89624023 C312.9678125 261.95135742 313.44734375 261.00647461 313.94140625 260.03295898 C318.70663356 247.82241705 317.50948254 233.35871849 317.46191406 220.50683594 C317.46138889 218.34530642 317.46182777 216.18377649 317.46315002 214.02224731 C317.46447647 209.39362387 317.46011552 204.76505388 317.45154572 200.13643837 C317.43909645 192.81058618 317.44614746 185.48483149 317.45697021 178.15898132 C317.48535091 157.33626638 317.49783132 136.51363721 317.46826172 115.69091797 C317.45206534 104.17073707 317.45722506 92.65077064 317.486058 81.13061208 C317.50311903 73.85437291 317.4941992 66.57878426 317.46600294 59.30258715 C317.45482231 54.77211042 317.46878671 50.24196738 317.48982048 45.71153641 C317.49457932 43.61820546 317.48916875 41.52482168 317.47258949 39.43155098 C317.31039475 17.4999712 317.31039475 17.4999712 326.05765152 8.29395008 C327.72235819 6.7274099 329.32600784 5.46495103 331.23828125 4.20874023 C332.20668945 3.53254639 333.17509766 2.85635254 334.17285156 2.15966797 C339.03079742 -0.58601188 343.828534 -0.36653326 349.2890625 -0.32250977 C350.34304733 -0.32633667 351.39703217 -0.33016357 352.48295593 -0.33410645 C354.70601357 -0.33681994 356.92910345 -0.32949837 359.15209961 -0.31274414 C362.52987066 -0.29139195 365.90549916 -0.31253304 369.28320312 -0.33813477 C371.45182756 -0.33549014 373.62045067 -0.33036238 375.7890625 -0.32250977 C376.78730545 -0.33060669 377.7855484 -0.33870361 378.81404114 -0.3470459 C387.97013688 -0.22649684 395.81410979 2.19422573 402.67578125 8.45874023 C403.47886719 9.16514648 404.28195312 9.87155273 405.109375 10.59936523 C410.13697926 16.76163981 410.67872189 23.24738669 410.6259613 30.8817749 C410.63403961 32.29806258 410.63403961 32.29806258 410.64228112 33.74296212 C410.65653255 36.89152003 410.64946356 40.03965583 410.64233398 43.18823242 C410.64803942 45.45250281 410.65500435 47.71677033 410.66313171 49.98103333 C410.68106979 56.12431003 410.67989213 62.26744392 410.67418933 68.41073895 C410.67109503 73.55140972 410.67719341 78.69205316 410.68322808 83.83272004 C410.69807997 96.66981842 410.69445859 109.50681696 410.68236477 122.34391144 C410.67246011 133.44914814 410.68532615 144.55421756 410.70929896 155.65942845 C410.73379722 167.09552904 410.74287244 178.53152261 410.73664623 189.96765447 C410.73329134 196.37449246 410.73559212 202.78119271 410.75289726 209.18801117 C410.76849292 215.22591564 410.76427219 221.26350475 410.74559212 227.30139732 C410.7419393 229.50220624 410.74491647 231.70303916 410.75547791 233.90382576 C410.81622756 247.62451295 410.16743379 260.96681389 406.23828125 274.20874023 C405.57828125 274.20874023 404.91828125 274.20874023 404.23828125 274.20874023 C403.85078912 276.53369301 403.52070008 278.86869853 403.23828125 281.20874023 C402.90828125 281.86874023 402.57828125 282.52874023 402.23828125 283.20874023 C401.57828125 283.20874023 400.91828125 283.20874023 400.23828125 283.20874023 C399.51394778 285.18858504 398.86084153 287.19457462 398.23828125 289.20874023 C397.34514092 291.62746081 396.35784538 293.87631496 395.23828125 296.20874023 C394.57828125 296.20874023 393.91828125 296.20874023 393.23828125 296.20874023 C392.55770996 298.20405153 391.89482147 300.20539319 391.23828125 302.20874023 C389.93185034 304.83500496 388.46085567 307.36019069 386.98828125 309.89624023 C386.17664584 311.31786555 385.36544919 312.73974145 384.5546875 314.16186523 C383.96131592 315.19730469 383.96131592 315.19730469 383.35595703 316.25366211 C380.01955779 322.08981003 376.74608064 327.89310384 374.11328125 334.08374023 C372.58434394 337.64290578 370.68380593 340.18779798 368.23828125 343.20874023 C367.33188549 344.76992358 366.45718853 346.34963332 365.6015625 347.93920898 C365.07143555 348.92244141 364.54130859 349.90567383 363.99511719 350.91870117 C360.40827247 357.6358106 356.83246579 364.35882537 353.27270508 371.09033203 C340.84174471 394.58683158 340.84174471 394.58683158 333.23828125 404.20874023 C332.7175 404.91385742 332.19671875 405.61897461 331.66015625 406.34545898 C324.64141431 415.74204574 316.45157758 424.27717198 306.23828125 430.20874023 C305.57828125 430.20874023 304.91828125 430.20874023 304.23828125 430.20874023 C304.23828125 430.86874023 304.23828125 431.52874023 304.23828125 432.20874023 C302.09342993 433.57700746 299.98812019 434.78444082 297.73828125 435.95874023 C297.06555176 436.31073486 296.39282227 436.66272949 295.69970703 437.02539062 C284.93446293 442.52510744 274.77635489 446.8271178 262.51953125 447.00561523 C261.76671875 447.07264648 261.01390625 447.13967773 260.23828125 447.20874023 C260.23828125 447.86874023 260.23828125 448.52874023 260.23828125 449.20874023 C255.7049926 450.11411903 251.285155 450.33415075 246.6730957 450.33572388 C244.75540878 450.33995361 244.75540878 450.33995361 242.79898071 450.3442688 C241.39984116 450.3423249 240.00070176 450.34027676 238.6015625 450.33813477 C237.11436928 450.33949117 235.62717639 450.34127246 234.13998413 450.34344482 C230.11525519 450.34799063 226.09055198 450.34624134 222.0658226 450.34306574 C217.84637128 450.34052739 213.62692211 450.34288378 209.4074707 450.3444519 C202.3227499 450.34626929 195.23803953 450.34387858 188.15332031 450.33911133 C179.97186477 450.33366954 171.79043416 450.3354325 163.60897923 450.34093773 C156.57438984 450.34548112 149.53980793 450.3461134 142.50521755 450.34349906 C138.30821258 450.34194304 134.1112193 450.34172402 129.91421509 450.34503555 C125.96779849 450.34793207 122.02141391 450.34590589 118.07500076 450.3401413 C116.62985919 450.33882324 115.18471491 450.33919155 113.73957443 450.34140396 C111.76087289 450.34415308 109.78216543 450.34008818 107.8034668 450.33572388 C106.69811081 450.33534685 105.59275482 450.33496983 104.4539032 450.33458138 C100.9720251 450.19832048 97.6570593 449.89153134 94.23828125 449.20874023 C94.23828125 448.54874023 94.23828125 447.88874023 94.23828125 447.20874023 C92.4307987 446.84274006 92.4307987 446.84274006 90.11328125 446.77124023 C79.89982079 445.93098391 70.42356276 443.75262684 61.23828125 439.20874023 C60.24828125 438.83749023 59.25828125 438.46624023 58.23828125 438.08374023 C56.23828125 437.20874023 56.23828125 437.20874023 55.23828125 435.20874023 C52.6618156 434.08126125 50.03712171 433.15895504 47.390625 432.20874023 C46.68035156 431.87874023 45.97007812 431.54874023 45.23828125 431.20874023 C45.23828125 430.54874023 45.23828125 429.88874023 45.23828125 429.20874023 C44.366875 428.9212793 43.49546875 428.63381836 42.59765625 428.33764648 C27.66197798 423.3185639 14.64782229 407.34940219 5.57421875 394.93920898 C4.2156312 393.08488031 4.2156312 393.08488031 2.17578125 391.27124023 C-0.34130348 388.59176294 -1.86952143 385.62590279 -3.58984375 382.39233398 C-4.51563022 380.6672852 -5.53013677 378.98987027 -6.57421875 377.33374023 C-7.76171875 375.20874023 -7.76171875 375.20874023 -7.76171875 372.20874023 C-8.42171875 372.20874023 -9.08171875 372.20874023 -9.76171875 372.20874023 C-10.82889838 369.77861977 -11.75657252 367.3944133 -12.63671875 364.89624023 C-13.03370972 363.80061768 -13.03370972 363.80061768 -13.4387207 362.68286133 C-13.97225827 361.20854027 -14.5023184 359.73295591 -15.02880859 358.25610352 C-15.97747948 355.6060189 -16.96630665 352.9712843 -17.94921875 350.33374023 C-23.5319223 334.85969056 -25.91506135 320.38854245 -25.90216064 303.95007324 C-25.90513177 302.75210381 -25.90810289 301.55413438 -25.91116405 300.31986284 C-25.91829724 297.02108532 -25.92101965 293.72235993 -25.92176151 290.4235785 C-25.92362424 286.85569832 -25.93117726 283.28782916 -25.93789673 279.71995544 C-25.95142746 271.93293598 -25.95749565 264.1459217 -25.96190739 256.35889244 C-25.96467698 251.4926022 -25.96891545 246.62631393 -25.97341156 241.76002502 C-25.98559403 228.2727445 -25.99589751 214.78546553 -25.99928665 201.29817963 C-25.99950622 200.43653636 -25.99972578 199.57489309 -25.999952 198.68713942 C-26.00017028 197.82351526 -26.00038856 196.95989109 -26.00061345 196.07009649 C-26.00105691 194.32024987 -26.00150347 192.57040326 -26.00195312 190.82055664 C-26.00217455 189.95258463 -26.00239598 189.08461262 -26.00262412 188.19033843 C-26.00657472 174.11684459 -26.0240413 160.04340243 -26.04731265 145.96992856 C-26.07104052 131.50314288 -26.08348904 117.03638315 -26.08465457 102.56957769 C-26.08557016 94.45395428 -26.09129398 86.33839836 -26.10947418 78.22279358 C-26.1248941 71.31546197 -26.12998423 64.40821876 -26.12173608 57.50087321 C-26.11783716 53.97958486 -26.11872208 50.45847447 -26.13279343 46.93720818 C-26.14793193 43.11386502 -26.13964405 39.29077049 -26.12921143 35.46740723 C-26.14129603 33.81125987 -26.14129603 33.81125987 -26.15362477 32.12165499 C-26.10515731 24.51393393 -25.43838043 16.9868853 -20.9296875 10.62280273 C-19.94935547 9.7372168 -19.94935547 9.7372168 -18.94921875 8.83374023 C-17.89541016 7.87661133 -17.89541016 7.87661133 -16.8203125 6.90014648 C-11.36937371 2.42148141 -7.14870056 0.1375052 0 0 Z " fill="#FCFCFC" transform="translate(115.76171875,458.791259765625)"/>
<path d="M0 0 C0.99 0.66 1.98 1.32 3 2 C3 2.66 3 3.32 3 4 C4.65532216 4.69435637 6.32459336 5.35561283 8 6 C9.5936799 7.01513392 11.15576643 8.08110732 12.6875 9.1875 C13.55632813 9.80882812 14.42515625 10.43015625 15.3203125 11.0703125 C16.20460938 11.70710937 17.08890625 12.34390625 18 13 C24.27181525 17.43054839 30.597818 21.760588 37 26 C38.84128654 27.22594657 40.68169912 28.45319744 42.52197266 29.68066406 C44.47649144 30.98431989 46.4315978 32.28709125 48.38671875 33.58984375 C50.55811845 35.03725442 52.72726941 36.48779068 54.89453125 37.94140625 C55.69246094 38.47636719 56.49039063 39.01132812 57.3125 39.5625 C57.98925781 40.01753906 58.66601562 40.47257813 59.36328125 40.94140625 C61.02235643 42.05710938 61.02235643 42.05710938 63 43 C63 43.66 63 44.32 63 45 C64.65302778 45.69980096 66.32258082 46.36087003 68 47 C69.40659954 47.88938687 70.78007519 48.83234262 72.125 49.8125 C77.16512102 53.41905366 82.25835436 56.94027421 87.375 60.4375 C88.20467285 61.00533203 89.0343457 61.57316406 89.88916016 62.15820312 C94.40439538 65.243688 98.93694398 68.29826195 103.5 71.3125 C127.61136034 87.3192014 127.61136034 87.3192014 129.6875 95.8125 C129.790625 96.864375 129.89375 97.91625 130 99 C130.12375 100.2375 130.2475 101.475 130.375 102.75 C130.27075428 108.79625178 127.41492206 114.30343691 123.42578125 118.7578125 C119.78413324 122.00049208 115.67894421 124.63978155 111.59765625 127.29296875 C108.46571347 129.35110258 105.38811864 131.48416257 102.3125 133.625 C99.19844051 135.79229415 96.08118912 137.94601129 92.921875 140.046875 C89.37387528 142.41853257 85.92206194 144.91263133 82.46484375 147.4140625 C80 149 80 149 77.19140625 150.0859375 C76.10666016 150.53839844 76.10666016 150.53839844 75 151 C75 151.66 75 152.32 75 153 C72.9453125 154.48046875 72.9453125 154.48046875 70.125 156.1875 C66.42623145 158.47452483 62.79521047 160.79384879 59.25 163.3125 C55.0505892 166.28819714 50.7891909 169.15635815 46.5 172 C42.2987646 174.78677787 38.11762443 177.59021207 34 180.5 C28.03462916 184.7114329 21.94222333 188.72985085 15.85742188 192.765625 C14.084483 193.94385567 12.31494247 195.12697499 10.546875 196.3125 C9.50015625 197.01375 8.4534375 197.715 7.375 198.4375 C6.45460938 199.05496094 5.53421875 199.67242188 4.5859375 200.30859375 C2.09083013 201.94058996 -0.42206352 203.50246085 -3 205 C-3.65226563 205.38414062 -4.30453125 205.76828125 -4.9765625 206.1640625 C-9.11954815 207.87564344 -13.61691156 207.51379184 -18 207 C-21.85736458 205.17282731 -23.48542927 204.1320556 -25.25 200.25 C-25.62125 199.13625 -25.62125 199.13625 -26 198 C-26.66 198 -27.32 198 -28 198 C-29.48732923 195.02534155 -29.14078211 191.9934486 -29.13371277 188.7318573 C-29.13597833 187.97413554 -29.13824388 187.21641378 -29.14057809 186.43573076 C-29.14693516 183.88316396 -29.14608763 181.33065003 -29.14526367 178.77807617 C-29.14825414 176.95340404 -29.1516564 175.12873255 -29.15544128 173.30406189 C-29.16429786 168.33705749 -29.16662012 163.3700703 -29.16725707 158.40305877 C-29.16820504 154.26038566 -29.17188211 150.11771659 -29.17542917 145.97504503 C-29.18358035 136.2020299 -29.18601283 126.42902399 -29.18530273 116.65600586 C-29.18470205 106.56770004 -29.19525048 96.47944771 -29.2110464 86.39115542 C-29.22411471 77.7371782 -29.22948692 69.08321848 -29.22884732 60.42923146 C-29.22859209 55.25745568 -29.23145724 50.08572739 -29.24202538 44.91396141 C-29.2516942 40.04915106 -29.25179388 35.18443372 -29.24450874 30.31962013 C-29.24346132 28.53339121 -29.24583509 26.74715654 -29.2518692 24.9609375 C-29.25957004 22.52354628 -29.254957 20.08647774 -29.24723816 17.64909363 C-29.25238172 16.94130569 -29.25752529 16.23351776 -29.26282471 15.5042817 C-29.21745112 9.02566858 -27.52981551 4.65224295 -23 0 C-14.90922094 -4.42703005 -8.17851636 -3.45526466 0 0 Z " fill="#F9BA27" transform="translate(810,676)"/>
<path d="M0 0 C0.82628906 0.56976563 1.65257812 1.13953125 2.50390625 1.7265625 C16.06026392 11.67575021 26.07867917 26.28451333 29 43 C30.63764683 60.56976459 28.01482219 75.19882325 18 90 C17.63632324 90.54043945 17.27264648 91.08087891 16.89794922 91.63769531 C8.64100949 103.69933766 -1.71199113 112.71790096 -16 117 C-17.32 117 -18.64 117 -20 117 C-20 117.66 -20 118.32 -20 119 C-25.74718384 120.55839009 -31.90174029 120.18388486 -37.8125 120.1875 C-38.85470703 120.19974609 -39.89691406 120.21199219 -40.97070312 120.22460938 C-48.66942497 120.23910791 -56.29942729 119.84865917 -63.1875 116.0625 C-63.83976562 115.711875 -64.49203125 115.36125 -65.1640625 115 C-65.76992188 114.67 -66.37578125 114.34 -67 114 C-68.010625 113.525625 -69.02125 113.05125 -70.0625 112.5625 C-78.27521392 108.19403515 -84.20719724 102.29296285 -89.8125 94.875 C-90.60269531 93.84117187 -91.39289063 92.80734375 -92.20703125 91.7421875 C-94 89 -94 89 -94 86 C-94.66 86 -95.32 86 -96 86 C-96.96484375 83.83984375 -96.96484375 83.83984375 -97.9375 80.9375 C-99.00334849 77.79173664 -100.03557254 74.93369002 -101.609375 72 C-104.05687129 66.37933674 -103.39122136 60.06736545 -103.3125 54.0625 C-103.31572266 52.80630859 -103.31894531 51.55011719 -103.32226562 50.25585938 C-103.28145734 43.42603722 -103.28145734 43.42603722 -103 41 C-102.34 41 -101.68 41 -101 41 C-100.40865458 38.73220347 -100.40865458 38.73220347 -100.0625 35.9375 C-99.27949895 31.16550934 -98.27707095 27.26950803 -96 23 C-95.34 23 -94.68 23 -94 23 C-93.8659375 22.27425781 -93.731875 21.54851562 -93.59375 20.80078125 C-91.58480516 11.32437696 -80.432374 2.97816897 -72.7734375 -2.16796875 C-50.44389038 -16.1255082 -21.32993237 -14.76898792 0 0 Z " fill="#F9BA27" transform="translate(475,294)"/>
<path d="M0 0 C0.66386719 0.5671875 1.32773438 1.134375 2.01171875 1.71875 C2.60339844 2.2034375 3.19507813 2.688125 3.8046875 3.1875 C13.91657325 12.25811605 22.33160585 28.25247164 23.13671875 41.82617188 C23.75266884 60.7820359 23.75266884 60.7820359 20.01171875 69.71875 C19.79515625 70.38390625 19.57859375 71.0490625 19.35546875 71.734375 C13.66409872 88.94399389 0.67281441 101.84735288 -15.11328125 110.03125 C-17.04379052 110.98556691 -19.00620928 111.87674198 -20.98828125 112.71875 C-21.61379883 112.98945313 -22.23931641 113.26015625 -22.88378906 113.5390625 C-29.69160093 116.17595705 -36.25844602 116.16533253 -43.48828125 116.09375 C-44.66003906 116.10535156 -45.83179688 116.11695313 -47.0390625 116.12890625 C-53.93954516 116.1056723 -59.63391332 115.42791376 -65.98828125 112.71875 C-67.07238281 112.28433594 -68.15648437 111.84992188 -69.2734375 111.40234375 C-70.18996094 110.99113281 -71.10648438 110.57992187 -72.05078125 110.15625 C-73.46037109 109.53556641 -73.46037109 109.53556641 -74.8984375 108.90234375 C-75.58808594 108.51175781 -76.27773437 108.12117188 -76.98828125 107.71875 C-76.98828125 107.05875 -76.98828125 106.39875 -76.98828125 105.71875 C-77.64828125 105.491875 -78.30828125 105.265 -78.98828125 105.03125 C-83.4256649 103.08989465 -86.5197164 100.05217596 -89.98828125 96.71875 C-90.65214844 96.09226562 -91.31601563 95.46578125 -92 94.8203125 C-96.46415502 90.24214173 -99.53592173 85.30989696 -102.42578125 79.65625 C-102.76802734 78.99568604 -103.11027344 78.33512207 -103.46289062 77.65454102 C-105.17250619 74.14086319 -106.1883857 71.1251896 -106.5859375 67.22265625 C-106.71871094 66.06636719 -106.85148437 64.91007812 -106.98828125 63.71875 C-107.64828125 63.71875 -108.30828125 63.71875 -108.98828125 63.71875 C-109.53085496 60.45099727 -109.36789331 57.08782365 -109.36328125 53.78125 C-109.36384521 52.7902832 -109.36440918 51.79931641 -109.36499023 50.77832031 C-109.22844101 41.4870036 -108.21295036 31.16808821 -103.98828125 22.71875 C-103.32828125 22.71875 -102.66828125 22.71875 -101.98828125 22.71875 C-101.13735488 20.78625565 -101.13735488 20.78625565 -100.48828125 18.40625 C-99.57631124 15.32835123 -98.80499074 13.44381424 -96.98828125 10.71875 C-96.32828125 10.71875 -95.66828125 10.71875 -94.98828125 10.71875 C-94.69953125 9.935 -94.41078125 9.15125 -94.11328125 8.34375 C-92.77294902 5.21630814 -91.94209763 5.10335143 -88.98828125 3.71875 C-88.67890625 3.05875 -88.36953125 2.39875 -88.05078125 1.71875 C-86.59259217 -1.0260765 -84.81278427 -1.19490269 -81.98828125 -2.28125 C-81.65828125 -3.27125 -81.32828125 -4.26125 -80.98828125 -5.28125 C-56.47993671 -22.48008827 -22.28850599 -18.24696361 0 0 Z " fill="#F9BA27" transform="translate(215.98828125,298.28125)"/>
<path d="M0 0 C1.65598093 3.31196185 1.14412595 7.01143636 1.14044189 10.65261841 C1.14489858 12.01266316 1.14489858 12.01266316 1.1494453 13.40018356 C1.15815933 16.45706516 1.15964284 19.51390772 1.16113281 22.57080078 C1.16575917 24.7551329 1.17078358 26.9394642 1.17617798 29.12379456 C1.18932381 35.07237037 1.19575149 41.02093488 1.20018864 46.96952295 C1.20311658 50.68462814 1.20722091 54.39973021 1.21169281 58.11483383 C1.22616217 70.40276132 1.23548652 82.6906803 1.23955932 94.97861554 C1.23978209 95.64148296 1.24000486 96.30435038 1.24023438 96.98730469 C1.2404558 97.6509823 1.24067723 98.3146599 1.24090537 98.99844895 C1.24485024 109.74354891 1.26229327 120.48858091 1.2855939 131.23365463 C1.30932667 142.26720105 1.32151289 153.30071169 1.32293582 164.33428371 C1.32398432 170.5284287 1.32990147 176.72247797 1.34775543 182.91659927 C1.36422977 188.74585157 1.3663946 194.57493614 1.35761642 200.40420341 C1.35684564 202.54232545 1.36119415 204.68045648 1.37107468 206.81855583 C1.38378639 209.74106334 1.37792129 212.66297615 1.36749268 215.58547974 C1.37554908 216.42849424 1.38360548 217.27150873 1.39190602 218.14006913 C1.3454745 223.7168611 0.30069339 227.90167807 -2 233 C-2.33 233 -2.66 233 -3 233 C-3.09182736 230.10324031 -3.11348934 227.23027027 -3.0957489 224.33319092 C-3.09393091 223.40087969 -3.09211291 222.46856846 -3.09023982 221.50800538 C-3.08280041 218.35263431 -3.06810841 215.19733749 -3.0534668 212.04199219 C-3.0466035 209.79235451 -3.04015334 207.54271553 -3.03408813 205.29307556 C-3.0160973 199.15868079 -2.99154563 193.02432864 -2.96532798 186.8899641 C-2.94390007 181.77802722 -2.92520941 176.66608167 -2.90639621 171.55413461 C-2.86435888 160.18606189 -2.81761983 148.81801837 -2.76722922 137.44998047 C-2.76420227 136.76700937 -2.76117532 136.08403828 -2.75805664 135.38037109 C-2.75502515 134.69656955 -2.75199365 134.01276801 -2.74887029 133.30824521 C-2.70001385 122.23057542 -2.66106528 111.15289592 -2.62663569 100.07517275 C-2.59120561 88.71171254 -2.54822007 77.34830675 -2.49788028 65.98490071 C-2.46972409 59.60086762 -2.44467243 53.21685867 -2.4272213 46.83278656 C-2.41053555 40.82791602 -2.3844006 34.8231609 -2.35091019 28.81836128 C-2.34021636 26.61085203 -2.33292778 24.40332333 -2.32924461 22.19579124 C-2.32370186 19.18864724 -2.30602119 16.18181496 -2.28520203 13.17474365 C-2.28645464 12.29536786 -2.28770726 11.41599206 -2.28899783 10.50996852 C-2.28091564 9.70430674 -2.27283345 8.89864496 -2.26450634 8.06856918 C-2.26168595 7.37444042 -2.25886555 6.68031166 -2.25595969 5.96514869 C-1.95268287 3.63671934 -1.27104668 1.96947038 0 0 Z " fill="#A6A4A5" transform="translate(436,476)"/>
<path d="M0 0 C-0.9075 0.144375 -1.815 0.28875 -2.75 0.4375 C-3.8225 0.623125 -4.895 0.80875 -6 1 C-6 1.66 -6 2.32 -6 3 C-9.52844533 4.39175938 -13.27628902 4.13396079 -17.01586914 4.14526367 C-17.71389145 4.14862228 -18.41191376 4.1519809 -19.13108826 4.15544128 C-21.43246247 4.16492067 -23.73376375 4.16689258 -26.03515625 4.16796875 C-27.63651052 4.17118237 -29.23786449 4.17454653 -30.83921814 4.17805481 C-34.19237957 4.18403777 -37.54551525 4.18589546 -40.89868164 4.18530273 C-45.19850614 4.18520092 -49.49816623 4.19887689 -53.7979517 4.21607494 C-57.10331484 4.22718127 -60.40863798 4.2292224 -63.71401787 4.22869301 C-65.29967251 4.22987428 -66.88532815 4.23430425 -68.47096443 4.24202538 C-70.6852697 4.25180196 -72.89921455 4.24895713 -75.11352539 4.24291992 C-77.00404381 4.24505745 -77.00404381 4.24505745 -78.93275452 4.24723816 C-82 4 -82 4 -85 2 C-82.05716988 0.52858494 -79.07177887 0.82987618 -75.84399414 0.81054688 C-74.73887733 0.79810692 -74.73887733 0.79810692 -73.61143494 0.78541565 C-72.00942711 0.76800184 -70.40739363 0.75283867 -68.80534554 0.73963928 C-66.27132094 0.71863532 -63.73742491 0.69161017 -61.20347595 0.66296387 C-55.82319988 0.60322579 -50.44286417 0.55109569 -45.0625 0.5 C-38.83246953 0.44079315 -32.60250236 0.37849778 -26.3725872 0.30812073 C-23.87374267 0.28152762 -21.37489184 0.26072315 -18.87599182 0.2401123 C-17.34579158 0.22350903 -15.81559422 0.20663717 -14.28540039 0.18945312 C-13.24030807 0.1831765 -13.24030807 0.1831765 -12.17410278 0.17677307 C-7.94094629 0.12164666 -3.96253712 -1.72284223 0 0 Z " fill="#C79A17" transform="translate(587,905)"/>
<path d="M0 0 C2.48730753 -0.10815507 4.94719981 -0.14675254 7.43554688 -0.14526367 C8.22558609 -0.14862228 9.01562531 -0.1519809 9.8296051 -0.15544128 C12.45933575 -0.16499474 15.08900305 -0.16689652 17.71875 -0.16796875 C19.53479032 -0.17117804 21.35083036 -0.17454185 23.16687012 -0.17805481 C26.98023071 -0.18405693 30.7935686 -0.18589358 34.60693359 -0.18530273 C39.51026007 -0.185201 44.41344212 -0.19886049 49.31673431 -0.21607494 C53.06891559 -0.22715434 56.82106148 -0.22922321 60.57325745 -0.22869301 C62.38188679 -0.229879 64.19051687 -0.23433502 65.99913025 -0.24202538 C68.52100961 -0.25174487 71.0425694 -0.24897963 73.56445312 -0.24291992 C74.32186295 -0.24853943 75.07927277 -0.25415894 75.8596344 -0.25994873 C77.57524665 -0.24939022 79.28987372 -0.13749542 81 0 C81 0.66 81 1.32 81 2 C78.01048466 3.49475767 75.28620785 3.13560412 71.95166016 3.14526367 C70.86358315 3.15030159 70.86358315 3.15030159 69.75352478 3.15544128 C67.34868673 3.16496232 64.94391824 3.16689504 62.5390625 3.16796875 C60.86998465 3.17118079 59.20090708 3.17454483 57.53182983 3.17805481 C54.02967679 3.18404915 50.52754844 3.18589442 47.02539062 3.18530273 C42.53728123 3.18520115 38.04933019 3.19884766 33.56125832 3.21607494 C30.11259229 3.22719328 26.66396455 3.22922198 23.21528244 3.22869301 C21.56067739 3.2298736 19.90607136 3.23429978 18.25148392 3.24202538 C15.93658618 3.25182089 13.62203216 3.24894894 11.30712891 3.24291992 C9.98967682 3.24434494 8.67222473 3.24576996 7.31484985 3.24723816 C4.25299601 3.01886971 2.51608182 2.70746384 0 1 C0 0.67 0 0.34 0 0 Z " fill="#C49818" transform="translate(1111,906)"/>
<path d="M0 0 C1.35564364 2.71128728 0.59754574 4.03492352 0 7 C-0.10481612 9.51235841 -0.16319182 11.99827066 -0.17167664 14.51069641 C-0.17802574 15.25817506 -0.18437485 16.00565372 -0.19091636 16.77578324 C-0.21092549 19.27539751 -0.22400227 21.77499867 -0.23706055 24.2746582 C-0.24991699 26.06847918 -0.26317153 27.86229735 -0.27679443 29.65611267 C-0.31235978 34.52340682 -0.34161252 39.39071922 -0.36918616 44.25806451 C-0.38669055 47.29588786 -0.40556574 50.33369947 -0.42493629 53.37151146 C-0.49243445 63.95964513 -0.55485597 74.5477948 -0.61254883 85.13598633 C-0.6665593 95.0239873 -0.7316619 104.9118737 -0.80188721 114.79977161 C-0.86163032 123.27959584 -0.91373582 131.75944439 -0.95981437 140.23935384 C-0.98749083 145.30867056 -1.01833041 150.37792126 -1.05682945 155.44716835 C-1.09271301 160.20689576 -1.11915236 164.96658017 -1.1381073 169.72640419 C-1.14673003 171.47927897 -1.15881438 173.23214041 -1.17449379 174.98496628 C-1.19525886 177.36478237 -1.2039039 179.74432885 -1.20927429 182.1242218 C-1.2183088 182.82896379 -1.22734331 183.53370578 -1.2366516 184.25980359 C-1.25862574 186.32704817 -1.25862574 186.32704817 -1 189 C-0.34 189 0.32 189 1 189 C0.1875 191.125 0.1875 191.125 -1 193 C-2.48732923 190.02534155 -2.14078211 186.9934486 -2.13371277 183.7318573 C-2.13597833 182.97413554 -2.13824388 182.21641378 -2.14057809 181.43573076 C-2.14693516 178.88316396 -2.14608763 176.33065003 -2.14526367 173.77807617 C-2.14825414 171.95340404 -2.1516564 170.12873255 -2.15544128 168.30406189 C-2.16429786 163.33705749 -2.16662012 158.3700703 -2.16725707 153.40305877 C-2.16820504 149.26038566 -2.17188211 145.11771659 -2.17542917 140.97504503 C-2.18358035 131.2020299 -2.18601283 121.42902399 -2.18530273 111.65600586 C-2.18470205 101.56770004 -2.19525048 91.47944771 -2.2110464 81.39115542 C-2.22411471 72.7371782 -2.22948692 64.08321848 -2.22884732 55.42923146 C-2.22859209 50.25745568 -2.23145724 45.08572739 -2.24202538 39.91396141 C-2.2516942 35.04915106 -2.25179388 30.18443372 -2.24450874 25.31962013 C-2.24346132 23.53339121 -2.24583509 21.74715654 -2.2518692 19.9609375 C-2.25957004 17.52354628 -2.254957 15.08647774 -2.24723816 12.64909363 C-2.25238172 11.94130569 -2.25752529 11.23351776 -2.26282471 10.5042817 C-2.23557996 6.61417289 -1.90125298 3.44449183 0 0 Z " fill="#C8A012" transform="translate(783,681)"/>
<path d="M0 0 C0.71285156 0.18304688 1.42570313 0.36609375 2.16015625 0.5546875 C3.9375 1.125 3.9375 1.125 4.9375 2.125 C6.56350311 2.20012142 8.19270618 2.20816437 9.8203125 2.1875 C10.82320312 2.17976563 11.82609375 2.17203125 12.859375 2.1640625 C14.97135767 2.13830661 17.08333696 2.11227136 19.1953125 2.0859375 C27.91321524 2.01921886 27.91321524 2.01921886 32.1796875 2.75 C33.08976562 2.87375 33.99984375 2.9975 34.9375 3.125 C34.9375 2.465 34.9375 1.805 34.9375 1.125 C38.1875 0.875 38.1875 0.875 40.9375 1.125 C39.625 2 39.625 2 36.9375 3.125 C36.18243164 3.47199951 35.42736328 3.81899902 34.64941406 4.17651367 C29.51875953 5.97094947 24.06904048 5.45188915 18.6875 5.4375 C17.49769531 5.45361328 16.30789062 5.46972656 15.08203125 5.48632812 C8.30230806 5.49007383 2.09579626 5.20504271 -4.0625 2.125 C-4.7225 1.465 -5.3825 0.805 -6.0625 0.125 C-3.53869724 -1.13690138 -2.67906307 -0.70987878 0 0 Z " fill="#DAAB1C" transform="translate(154.0625,408.875)"/>
<path d="M0 0 C2.34634647 2.34634647 2.95441302 4.19890199 4.0625 7.3125 C4.40410156 8.25738281 4.74570313 9.20226562 5.09765625 10.17578125 C8.60283989 21.14655081 9.31576035 37.53373611 4 48 C3.67 48 3.34 48 3 48 C2.8125 45 2.8125 45 3 42 C3.66 42 4.32 42 5 42 C5.33457205 37.47143995 4.98894741 32.90902832 4.8125 28.375 C4.78091797 27.08980469 4.74933594 25.80460937 4.71679688 24.48046875 C4.67232422 23.23652344 4.62785156 21.99257813 4.58203125 20.7109375 C4.54311768 19.56931152 4.5042041 18.42768555 4.46411133 17.25146484 C3.92129381 13.44860121 2.79011865 9.79011865 0 7 C-0.1875 3.3125 -0.1875 3.3125 0 0 Z " fill="#A17917" transform="translate(232,320)"/>
<path d="M0 0 C1.07058655 -0.0004985 2.1411731 -0.00099701 3.24420166 -0.00151062 C5.4966417 0.00082133 7.74908478 0.0104977 10.00146484 0.02709961 C13.45563896 0.0507985 16.90904589 0.04764045 20.36328125 0.04101562 C22.55469211 0.04658932 24.74609973 0.05369724 26.9375 0.0625 C27.97187195 0.06158859 29.0062439 0.06067719 30.07196045 0.05973816 C31.03015686 0.06927017 31.98835327 0.07880219 32.97558594 0.08862305 C33.81829041 0.09323044 34.66099487 0.09783783 35.52923584 0.10258484 C37.703125 0.36328125 37.703125 0.36328125 40.703125 2.36328125 C37.35823973 2.52848116 34.08794532 2.54149667 30.7421875 2.48828125 C29.16260757 2.47692139 29.16260757 2.47692139 27.55111694 2.46533203 C23.00182761 2.43239874 18.45288324 2.37675333 13.90380859 2.32226562 C10.59995195 2.28595426 7.29615595 2.26182846 3.9921875 2.23828125 C2.96896393 2.22168457 1.94574036 2.20508789 0.89151001 2.18798828 C-5.37449885 2.14531856 -10.60707465 2.51838107 -16.296875 5.36328125 C-16.956875 4.70328125 -17.616875 4.04328125 -18.296875 3.36328125 C-12.40209369 -0.17563658 -6.72412839 -0.06034203 0 0 Z " fill="#CDCBCC" transform="translate(122.296875,458.63671875)"/>
<path d="M0 0 C2.45920012 2.45920012 2.25638112 3.16333912 2.265625 6.54296875 C2.26820313 7.45240234 2.27078125 8.36183594 2.2734375 9.29882812 C2.26570313 10.25208984 2.25796875 11.20535156 2.25 12.1875 C2.25773437 13.12142578 2.26546875 14.05535156 2.2734375 15.01757812 C2.25845616 20.3396984 1.97738667 25.01964177 0 30 C-1.0031921 26.99042369 -1.12896682 24.96134604 -1.1328125 21.81640625 C-1.13410156 20.80642578 -1.13539063 19.79644531 -1.13671875 18.75585938 C-1.13285156 17.70205078 -1.12898438 16.64824219 -1.125 15.5625 C-1.12886719 14.51255859 -1.13273437 13.46261719 -1.13671875 12.38085938 C-1.13542969 11.36958984 -1.13414062 10.35832031 -1.1328125 9.31640625 C-1.13168457 8.39287354 -1.13055664 7.46934082 -1.12939453 6.51782227 C-1.00963168 4.187418 -0.86919376 2.17436079 0 0 Z " fill="#B58B17" transform="translate(502,335)"/>
<path d="M0 0 C2.11328125 -0.14453125 2.11328125 -0.14453125 5.3125 0.1875 C6.36050781 0.28417969 7.40851563 0.38085938 8.48828125 0.48046875 C9.31714844 0.65191406 10.14601563 0.82335937 11 1 C11 1.66 11 2.32 11 3 C13.43379726 3.36300601 13.43379726 3.36300601 16.46875 3.37890625 C18.16064453 3.43014648 18.16064453 3.43014648 19.88671875 3.48242188 C21.07910156 3.50884766 22.27148438 3.53527344 23.5 3.5625 C25.84386197 3.62204676 28.18762676 3.68560637 30.53125 3.75390625 C31.57861328 3.77783447 32.62597656 3.8017627 33.70507812 3.82641602 C34.84106445 3.91234009 34.84106445 3.91234009 36 4 C36 4.33 36 4.66 36 5 C32.19653558 5.268167 28.37420609 5.18527484 24.5625 5.1875 C23.49322266 5.19974609 22.42394531 5.21199219 21.32226562 5.22460938 C5.70195544 5.25327049 5.70195544 5.25327049 1.12402344 1.43554688 C0.7530957 0.96181641 0.38216797 0.48808594 0 0 Z " fill="#C79D19" transform="translate(413,409)"/>
<path d="M0 0 C0.66 0.33 1.32 0.66 2 1 C0.953125 3.328125 0.953125 3.328125 -0.75 6.25 C-2.33585578 8.99190018 -3.84487497 11.6098009 -5.015625 14.5546875 C-6.0902684 17.22423817 -7.4231204 19.47025861 -9 21.875 C-9.515625 22.67679688 -10.03125 23.47859375 -10.5625 24.3046875 C-11.036875 24.86414063 -11.51125 25.42359375 -12 26 C-12.66 25.67 -13.32 25.34 -14 25 C-13.1875 23.0625 -13.1875 23.0625 -12 21 C-11.67 20.34 -11.34 19.68 -11 19 C-10.34 19 -9.68 19 -9 19 C-9 18.01 -9 17.02 -9 16 C-8.34 15.67 -7.68 15.34 -7 15 C-6.23516702 13.08566722 -6.23516702 13.08566722 -5.625 10.8125 C-4.29670803 6.59837572 -2.79781179 3.42957574 0 0 Z " fill="#E8B21C" transform="translate(688,730)"/>
<path d="M0 0 C0.66 0.33 1.32 0.66 2 1 C-0.0237935 5.32460817 -3.21460283 8.54909953 -6.5625 11.875 C-7.05685547 12.38546875 -7.55121094 12.8959375 -8.06054688 13.421875 C-9.31407457 14.67709894 -10.65132623 15.84761209 -12 17 C-12.66 16.67 -13.32 16.34 -14 16 C-12.40234375 13.671875 -12.40234375 13.671875 -9.9375 10.75 C-8.74447266 9.31914062 -8.74447266 9.31914062 -7.52734375 7.859375 C-5.1012838 5.11459002 -2.72798616 2.44736701 0 0 Z " fill="#D6A21D" transform="translate(768,416)"/>
<path d="M0 0 C0.66 0.33 1.32 0.66 2 1 C0.33962971 3.14708366 -1.33848545 5.08705711 -3.1875 7.0625 C-3.69603516 7.63033203 -4.20457031 8.19816406 -4.72851562 8.78320312 C-6.08565689 10.25329243 -7.53864515 11.63345802 -9 13 C-9.99 13 -10.98 13 -12 13 C-10.8608179 9.12856085 -7.91462635 6.80981644 -5 4.1875 C-4.113125 3.37667969 -3.22625 2.56585938 -2.3125 1.73046875 C-1.549375 1.15941406 -0.78625 0.58835937 0 0 Z " fill="#C49418" transform="translate(399,294)"/>
<path d="M0 0 C1.9453125 0.171875 1.9453125 0.171875 4.125 0.75 C4.84945312 0.93046875 5.57390625 1.1109375 6.3203125 1.296875 C6.87460938 1.52890625 7.42890625 1.7609375 8 2 C8 2.66 8 3.32 8 4 C8.825 4 9.65 4 10.5 4 C11.325 4 12.15 4 13 4 C13 4.66 13 5.32 13 6 C7.42591845 5.70662729 2.91654111 4.67203321 -2 2 C-1.34 1.34 -0.68 0.68 0 0 Z " fill="#B99015" transform="translate(150,408)"/>
<path d="M0 0 C0.33 0 0.66 0 1 0 C1.06492829 1.8947431 1.05860989 3.79190259 1.02734375 5.6875 C1.01509766 6.86054687 1.00285156 8.03359375 0.99023438 9.2421875 C0.95507731 11.74745368 0.91601453 14.2526681 0.87304688 16.7578125 C0.86208984 17.93085937 0.85113281 19.10390625 0.83984375 20.3125 C0.82300537 21.40175781 0.80616699 22.49101563 0.78881836 23.61328125 C0.8585083 24.40089844 0.92819824 25.18851563 1 26 C1.66 26 2.32 26 3 26 C2.1875 28.125 2.1875 28.125 1 30 C-0.40715957 27.18568085 -0.12976236 24.82351164 -0.1328125 21.6796875 C-0.13410156 20.42285156 -0.13539063 19.16601562 -0.13671875 17.87109375 C-0.13285156 16.55238281 -0.12898437 15.23367188 -0.125 13.875 C-0.12855911 12.53515528 -0.13246112 11.19531143 -0.13671875 9.85546875 C-0.13542969 8.60121094 -0.13414062 7.34695313 -0.1328125 6.0546875 C-0.13168457 4.89437012 -0.13055664 3.73405273 -0.12939453 2.53857422 C-0.08669434 1.70084473 -0.04399414 0.86311523 0 0 Z " fill="#BC9414" transform="translate(781,844)"/>
<path d="M0 0 C-0.33 0.66 -0.66 1.32 -1 2 C-3.60761054 2.55250941 -6.11466753 2.97542259 -8.75 3.3125 C-9.48605469 3.42400391 -10.22210938 3.53550781 -10.98046875 3.65039062 C-13.046875 3.92578125 -13.046875 3.92578125 -16 4 C-14.4123265 1.39326164 -12.50950199 0.81490641 -9.6875 -0.25 C-6.00442549 -0.9990999 -3.58998587 -1.07699576 0 0 Z " fill="#C5951B" transform="translate(161,285)"/>
<path d="M0 0 C0.66 0.33 1.32 0.66 2 1 C0.10444096 3.20640635 -1.8034433 5.21923982 -3.875 7.25 C-4.45636719 7.84296875 -5.03773438 8.4359375 -5.63671875 9.046875 C-7.02935468 10.4297266 -8.5062381 11.72705508 -10 13 C-10 9.07575145 -8.73405902 8.22546662 -6.125 5.375 C-5.04605469 4.18003906 -5.04605469 4.18003906 -3.9453125 2.9609375 C-2 1 -2 1 0 0 Z " fill="#312409" transform="translate(825,500)"/>
<path d="M0 0 C3.54711113 2.36474076 4.20866731 4.19341803 6 8 C6.556875 8.9075 7.11375 9.815 7.6875 10.75 C9 13 9 13 9 15 C8.34 15 7.68 15 7 15 C7 14.34 7 13.68 7 13 C6.34 13 5.68 13 5 13 C3.7109375 10.6640625 3.7109375 10.6640625 2.375 7.625 C1.92898438 6.62726562 1.48296875 5.62953125 1.0234375 4.6015625 C0 2 0 2 0 0 Z " fill="#BB9019" transform="translate(1154,812)"/>
<path d="M0 0 C2.34054554 2.34054554 2.99321065 4.21475064 4.125 7.3125 C4.47820312 8.25738281 4.83140625 9.20226562 5.1953125 10.17578125 C5.98200381 12.93683862 6.23247191 15.14546115 6 18 C5.1875 16.6875 5.1875 16.6875 4 14 C2.36536876 10.25537863 2.36536876 10.25537863 0 7 C-0.1875 3.3125 -0.1875 3.3125 0 0 Z " fill="#AC8315" transform="translate(232,320)"/>
<path d="M0 0 C0.99 0.33 1.98 0.66 3 1 C1.140625 2.953125 1.140625 2.953125 -1.75 5.25 C-2.69359375 6.01828125 -3.6371875 6.7865625 -4.609375 7.578125 C-5.79273438 8.28195312 -5.79273438 8.28195312 -7 9 C-7.33 8.01 -7.66 7.02 -8 6 C-6.453125 4.359375 -6.453125 4.359375 -4.25 2.75 C-3.53328125 2.20859375 -2.8165625 1.6671875 -2.078125 1.109375 C-1.04945313 0.56023437 -1.04945313 0.56023437 0 0 Z " fill="#E1AA1E" transform="translate(217,394)"/>
<path d="M0 0 C1.88449877 1.49189486 2.92441805 2.8488361 4 5 C4.35294118 11.47058824 4.35294118 11.47058824 2 15 C1.87857316 12.19134435 2.07953786 9.4158917 2.22265625 6.609375 C2.14917969 5.74828125 2.07570313 4.8871875 2 4 C1.01 3.67 0.02 3.34 -1 3 C-0.67 2.01 -0.34 1.02 0 0 Z " fill="#A98117" transform="translate(1196,888)"/>
<path d="M0 0 C3.27186993 3.38469303 7 8.11224199 7 13 C6.01 12.67 5.02 12.34 4 12 C4 10.68 4 9.36 4 8 C3.34 8 2.68 8 2 8 C0.08311802 5.01818359 0 3.70941279 0 0 Z " fill="#C7971B" transform="translate(985,507)"/>
<path d="M0 0 C0.66 0.33 1.32 0.66 2 1 C1.04240465 4.91743551 -0.25178463 8.02276668 -3 11 C-3.66 11 -4.32 11 -5 11 C-3.96267176 6.9449896 -2.4662964 3.39115754 0 0 Z " fill="#D0A117" transform="translate(679,563)"/>
<path d="M0 0 C0 3.59367386 -0.90853008 4.79559065 -2.875 7.75 C-3.40867187 8.56984375 -3.94234375 9.3896875 -4.4921875 10.234375 C-4.98976563 10.81703125 -5.48734375 11.3996875 -6 12 C-6.66 11.67 -7.32 11.34 -8 11 C-7.1875 9.0625 -7.1875 9.0625 -6 7 C-5.67 6.34 -5.34 5.68 -5 5 C-4.34 5 -3.68 5 -3 5 C-3 4.01 -3 3.02 -3 2 C-2.01 1.34 -1.02 0.68 0 0 Z " fill="#CE9C1C" transform="translate(682,744)"/>
<path d="M0 0 C0.66 0 1.32 0 2 0 C2 0.66 2 1.32 2 2 C2.66 2.33 3.32 2.66 4 3 C8.03680982 8.19018405 8.03680982 8.19018405 7.875 11.75 C7.441875 12.36875 7.441875 12.36875 7 13 C6.71125 12.113125 6.4225 11.22625 6.125 10.3125 C5.75375 9.219375 5.3825 8.12625 5 7 C4.01 6.67 3.02 6.34 2 6 C0.6875 2.9375 0.6875 2.9375 0 0 Z " fill="#CB9E18" transform="translate(978,685)"/>
<path d="M0 0 C-2.93941045 2.42069096 -7.40603747 3.00167708 -11 4 C-11.99 4.495 -11.99 4.495 -13 5 C-13.66 4.34 -14.32 3.68 -15 3 C-9.91735835 0.12720254 -5.80249827 -0.5474055 0 0 Z " fill="#ADACAD" transform="translate(119,459)"/>
<path d="M0 0 C5.1797544 0.25267095 8.8025335 2.14215047 13 5 C8.80609325 6.39796892 6.91351234 4.81698787 3 3 C2.01 2.67 1.02 2.34 0 2 C0 1.34 0 0.68 0 0 Z " fill="#D9A81C" transform="translate(193,286)"/>
<path d="M0 0 C0.66 0 1.32 0 2 0 C1.64453125 1.8984375 1.64453125 1.8984375 0.8125 4.375 C0.55082031 5.18710937 0.28914062 5.99921875 0.01953125 6.8359375 C-1 9 -1 9 -4 11 C-3.74400444 6.90407105 -2.03663469 3.50301167 0 0 Z " fill="#B88D17" transform="translate(639,634)"/>
<path d="M0 0 C1 2 1 2 0.1875 4.9375 C-1 8 -1 8 -3 11 C-3.66 11 -4.32 11 -5 11 C-3.96264093 6.94486909 -2.44731515 3.40496022 0 0 Z " fill="#B48A17" transform="translate(660,597)"/>
<path d="M0 0 C1 2 1 2 0.29296875 4.1640625 C-0.07183594 4.97617187 -0.43664062 5.78828125 -0.8125 6.625 C-1.16957031 7.44226563 -1.52664063 8.25953125 -1.89453125 9.1015625 C-2.25933594 9.72804688 -2.62414062 10.35453125 -3 11 C-3.66 11 -4.32 11 -5 11 C-3.96264093 6.94486909 -2.44731515 3.40496022 0 0 Z " fill="#B98E16" transform="translate(709,509)"/>
<path d="M0 0 C-1.5078125 1.19140625 -1.5078125 1.19140625 -4.125 2.5625 C-5.39730469 3.24505859 -5.39730469 3.24505859 -6.6953125 3.94140625 C-9 5 -9 5 -11 5 C-11 4.34 -11 3.68 -11 3 C-10.01 3 -9.02 3 -8 3 C-8 2.34 -8 1.68 -8 1 C-5.14199024 -0.93936377 -3.22880241 -1.43327326 0 0 Z " fill="#DFAC1B" transform="translate(209,404)"/>
<path d="M0 0 C4 0 4 0 6.3125 1.8125 C6.869375 2.534375 7.42625 3.25625 8 4 C7.67 4.99 7.34 5.98 7 7 C5.6875 5.8125 5.6875 5.8125 4 4 C3.278125 3.649375 2.55625 3.29875 1.8125 2.9375 C1.214375 2.628125 0.61625 2.31875 0 2 C0 1.34 0 0.68 0 0 Z " fill="#D7A917" transform="translate(868,498)"/>
<path d="M0 0 C0.66 0 1.32 0 2 0 C5 5.30769231 5 5.30769231 5 8 C4.01 8 3.02 8 2 8 C0.52465491 5.12695957 0 3.24805833 0 0 Z " fill="#D19F1B" transform="translate(955,455)"/>
<path d="M0 0 C2.56674602 1.51671355 3.23168027 3.54760791 4.375 6.25 C4.58125 7.1575 4.7875 8.065 5 9 C4.01 8.67 3.02 8.34 2 8 C2 7.01 2 6.02 2 5 C1.34 5 0.68 5 0 5 C-0.3125 2.3125 -0.3125 2.3125 0 0 Z " fill="#C2961B" transform="translate(1184,866)"/>
<path d="M0 0 C2.9375 0.25 2.9375 0.25 6 1 C6 1.66 6 2.32 6 3 C6.99 3.33 7.98 3.66 9 4 C8.01 4.495 8.01 4.495 7 5 C1.27272727 2.54545455 1.27272727 2.54545455 0 0 Z " fill="#BE9719" transform="translate(401,403)"/>
<path d="M0 0 C3.25 0.125 3.25 0.125 7 1 C7 1.66 7 2.32 7 3 C7.99 3.33 8.98 3.66 10 4 C6.07553407 4.47859341 4.42333569 4.31044617 1.1875 1.9375 C0.795625 1.298125 0.40375 0.65875 0 0 Z " fill="#BD9119" transform="translate(883,392)"/>
<path d="M0 0 C0.33 0.66 0.66 1.32 1 2 C-0.25 5.5625 -0.25 5.5625 -2 9 C-2.99 9.33 -3.98 9.66 -5 10 C-4.8125 8.0625 -4.8125 8.0625 -4 6 C-3.34 6 -2.68 6 -2 6 C-1.61781233 4.34385343 -1.28604898 2.67542976 -1 1 C-0.67 0.67 -0.34 0.34 0 0 Z " fill="#C09219" transform="translate(383,311)"/>
<path d="M0 0 C1.78125 0.53125 1.78125 0.53125 4 2 C5.3125 4.4375 5.3125 4.4375 6 7 C5.67 7.99 5.34 8.98 5 10 C3.66796875 8.03515625 3.66796875 8.03515625 2.1875 5.0625 C1.68605469 4.08410156 1.18460938 3.10570312 0.66796875 2.09765625 C0.44753906 1.40542969 0.22710938 0.71320312 0 0 Z " fill="#E4B219" transform="translate(955,644)"/>
<path d="M0 0 C0.66 0 1.32 0 2 0 C2 0.66 2 1.32 2 2 C2.66 2 3.32 2 4 2 C4.875 4.625 4.875 4.625 5 7 C3.125 6.625 3.125 6.625 1 5 C0.125 2.375 0.125 2.375 0 0 Z " fill="#CD9F17" transform="translate(911,566)"/>
<path d="M0 0 C0.68620031 1.32338632 1.34786461 2.65949948 2 4 C2.66 4 3.32 4 4 4 C4.75 6 4.75 6 5 8 C4.34 8 3.68 8 3 8 C3 7.34 3 6.68 3 6 C2.01 5.67 1.02 5.34 0 5 C-0.3125 2.1875 -0.3125 2.1875 0 0 Z " fill="#C69917" transform="translate(1016,563)"/>
<path d="M0 0 C0.99 0.33 1.98 0.66 3 1 C4.3125 4 4.3125 4 5 7 C4.01 7.495 4.01 7.495 3 8 C2.04296875 6.3125 2.04296875 6.3125 1.1875 4 C0.89230469 3.236875 0.59710938 2.47375 0.29296875 1.6875 C0.19628906 1.130625 0.09960938 0.57375 0 0 Z " fill="#D1A31A" transform="translate(376,372)"/>
<path d="M0 0 C0.66 0.33 1.32 0.66 2 1 C1.1028125 1.185625 1.1028125 1.185625 0.1875 1.375 C-0.534375 1.58125 -1.25625 1.7875 -2 2 C-2.33 2.99 -2.66 3.98 -3 5 C-5.875 5.4375 -5.875 5.4375 -8 5 C-5.46962696 2.54870112 -3.35244189 1.11748063 0 0 Z " fill="#B98D19" transform="translate(416,285)"/>
</svg>
