<svg id="svg" version="1.1" width="400" height="303.030303030303" viewBox="0 0 400 303.030303030303"
     xmlns="http://www.w3.org/2000/svg">
    <g id="svgg">
        <path id="path0"
              d="M142.576 50.598 C 139.959 50.753,138.955 50.944,137.908 51.488 C 137.174 51.869,136.040 52.369,135.388 52.599 C 133.286 53.341,127.576 58.668,127.576 59.887 C 127.576 60.030,127.105 61.102,126.531 62.270 C 124.645 66.103,124.709 72.491,126.672 76.222 C 127.169 77.167,127.576 78.128,127.576 78.358 C 127.576 78.587,128.292 79.496,129.167 80.378 C 130.042 81.260,131.132 82.481,131.590 83.090 C 132.217 83.927,132.821 84.315,134.050 84.672 C 134.946 84.932,135.850 85.353,136.061 85.606 C 137.215 86.997,147.842 87.556,150.015 86.341 C 153.710 84.275,155.641 82.512,160.190 77.048 C 161.974 74.905,162.417 70.856,161.565 64.489 C 160.985 60.153,155.510 53.739,151.260 52.416 C 150.317 52.122,148.877 51.527,148.061 51.092 C 147.244 50.658,146.426 50.325,146.243 50.352 C 146.059 50.379,144.409 50.490,142.576 50.598 M76.007 50.903 C 75.560 51.038,74.897 51.426,74.532 51.765 C 74.168 52.105,73.357 52.469,72.730 52.575 C 72.043 52.691,71.251 53.121,70.738 53.657 C 70.270 54.146,69.712 54.545,69.499 54.545 C 68.863 54.545,66.976 56.375,66.354 57.595 C 66.035 58.220,65.651 58.779,65.502 58.836 C 64.261 59.309,62.920 63.849,62.794 68.003 C 62.595 74.608,62.780 75.640,64.551 77.768 C 65.365 78.745,66.299 80.117,66.627 80.816 C 67.078 81.776,67.584 82.269,68.706 82.837 C 69.522 83.251,70.375 83.812,70.601 84.085 C 70.827 84.357,71.432 84.778,71.946 85.020 C 72.459 85.261,73.356 85.765,73.939 86.139 C 75.522 87.153,86.418 87.188,87.777 86.183 C 88.250 85.834,89.114 85.306,89.697 85.009 C 90.280 84.712,91.576 83.689,92.577 82.735 C 93.578 81.782,94.824 80.780,95.347 80.510 C 96.259 80.038,96.970 78.753,96.970 77.573 C 96.970 77.288,97.399 76.252,97.923 75.270 C 99.691 71.959,99.600 65.003,97.752 62.280 C 97.322 61.646,96.970 60.802,96.970 60.404 C 96.970 59.677,96.223 58.732,93.577 56.108 C 90.476 53.032,89.607 52.552,84.404 51.043 C 82.784 50.573,77.397 50.483,76.007 50.903 M263.636 98.221 C 259.200 98.470,255.095 99.189,253.826 99.937 C 253.282 100.258,252.141 100.752,251.290 101.035 C 250.440 101.317,249.586 101.738,249.393 101.971 C 249.200 102.203,248.600 102.539,248.058 102.718 C 247.517 102.897,246.778 103.444,246.416 103.933 C 246.039 104.443,245.253 104.975,244.577 105.178 C 243.241 105.578,241.554 107.394,240.600 109.459 C 240.270 110.173,239.383 111.508,238.628 112.424 C 237.874 113.341,236.928 114.807,236.524 115.682 C 236.121 116.557,235.649 117.273,235.476 117.273 C 235.303 117.273,234.821 117.945,234.405 118.766 C 233.989 119.588,233.518 120.341,233.359 120.439 C 233.200 120.537,232.789 121.368,232.446 122.285 C 232.103 123.202,231.131 124.842,230.286 125.931 C 229.441 127.020,228.555 128.463,228.317 129.138 C 228.078 129.814,227.534 130.795,227.108 131.319 C 224.808 134.146,224.274 134.924,224.105 135.692 C 224.003 136.156,223.515 136.917,223.021 137.384 C 222.526 137.851,222.121 138.402,222.121 138.608 C 222.121 138.814,221.716 139.519,221.221 140.173 C 220.725 140.828,220.316 141.529,220.311 141.732 C 220.307 141.934,219.913 142.548,219.436 143.096 C 218.959 143.643,218.358 144.500,218.100 145.000 C 217.843 145.500,216.920 146.859,216.050 148.021 C 215.179 149.182,214.209 150.682,213.894 151.354 C 213.579 152.026,212.718 153.394,211.982 154.394 C 211.245 155.394,210.484 156.757,210.290 157.423 C 210.096 158.088,209.508 159.142,208.984 159.764 C 206.866 162.277,206.433 162.920,206.231 163.848 C 206.114 164.381,205.629 165.308,205.152 165.909 C 204.674 166.510,204.194 167.408,204.085 167.905 C 203.976 168.402,203.569 169.016,203.182 169.270 C 202.794 169.525,202.243 170.236,201.958 170.851 C 201.673 171.466,200.809 172.912,200.038 174.064 C 199.267 175.216,198.327 176.708,197.949 177.379 C 197.571 178.051,197.076 178.813,196.848 179.073 C 196.620 179.333,196.143 180.125,195.787 180.833 C 195.431 181.542,195.029 182.121,194.894 182.121 C 194.759 182.121,194.330 182.803,193.939 183.636 C 193.549 184.469,192.980 185.377,192.676 185.653 C 192.371 185.929,192.121 186.319,192.121 186.520 C 192.121 186.721,191.652 187.415,191.079 188.064 C 190.507 188.712,189.679 189.652,189.240 190.152 C 188.802 190.652,188.206 191.742,187.917 192.576 C 187.628 193.409,186.717 195.028,185.893 196.172 C 184.358 198.303,183.312 199.990,181.990 202.462 C 181.577 203.233,181.026 203.946,180.764 204.047 C 180.501 204.147,180.014 204.812,179.681 205.524 C 178.938 207.111,178.030 208.495,176.769 209.961 C 176.242 210.574,175.715 211.587,175.598 212.212 C 175.480 212.837,175.149 213.515,174.861 213.720 C 174.574 213.924,174.164 214.432,173.950 214.848 C 173.737 215.265,173.245 215.947,172.858 216.364 C 172.470 216.780,171.927 217.662,171.651 218.324 C 171.102 219.638,170.767 220.108,167.955 223.504 C 166.691 225.030,165.948 226.240,165.720 227.143 C 165.533 227.887,164.988 228.989,164.508 229.592 C 164.029 230.196,163.636 230.865,163.636 231.079 C 163.636 231.293,163.282 231.890,162.848 232.405 C 160.741 234.910,162.025 235.152,177.444 235.152 C 193.641 235.152,194.574 234.927,196.001 230.683 C 196.183 230.141,196.680 229.242,197.105 228.684 C 197.531 228.126,197.879 227.522,197.879 227.342 C 197.879 227.161,198.254 226.719,198.712 226.358 C 199.493 225.744,199.965 224.994,201.484 221.951 C 201.823 221.274,202.393 220.456,202.752 220.133 C 203.111 219.810,203.722 218.830,204.110 217.955 C 204.498 217.080,204.956 216.364,205.129 216.364 C 205.301 216.364,205.708 215.843,206.032 215.207 C 206.357 214.571,206.838 213.871,207.102 213.652 C 207.365 213.434,207.664 212.739,207.765 212.108 C 207.884 211.359,208.304 210.615,208.974 209.966 C 209.538 209.420,210.000 208.813,210.000 208.620 C 210.000 208.426,210.476 207.668,211.058 206.937 C 211.639 206.205,212.117 205.440,212.118 205.236 C 212.120 205.033,212.522 204.570,213.011 204.209 C 213.501 203.847,214.065 203.155,214.265 202.673 C 214.465 202.190,214.870 201.666,215.166 201.508 C 215.473 201.343,215.792 200.695,215.910 199.993 C 216.024 199.319,216.427 198.397,216.805 197.944 C 217.183 197.491,217.790 196.535,218.154 195.819 C 218.518 195.102,219.003 194.444,219.233 194.356 C 219.462 194.268,219.886 193.695,220.174 193.083 C 220.462 192.471,220.954 191.629,221.267 191.212 C 223.275 188.539,224.042 187.379,224.350 186.548 C 224.713 185.570,226.790 182.263,227.472 181.578 C 227.687 181.362,228.141 180.612,228.482 179.911 C 229.376 178.071,230.393 176.471,231.272 175.524 C 231.694 175.069,232.189 174.247,232.373 173.697 C 232.727 172.636,233.538 171.450,234.961 169.912 C 235.439 169.395,236.068 168.417,236.359 167.739 C 236.649 167.061,237.125 166.309,237.417 166.067 C 238.321 165.317,240.303 162.038,240.303 161.293 C 240.303 160.889,240.757 160.132,241.364 159.525 C 241.947 158.942,242.424 158.343,242.424 158.195 C 242.424 158.047,242.745 157.540,243.138 157.069 C 243.530 156.598,244.015 155.710,244.215 155.096 C 244.415 154.483,244.980 153.475,245.471 152.858 C 245.962 152.240,246.364 151.557,246.364 151.340 C 246.364 150.966,248.038 148.776,249.381 147.392 C 249.722 147.040,250.159 146.290,250.351 145.725 C 250.543 145.160,251.157 144.185,251.714 143.560 C 252.271 142.934,252.727 142.229,252.727 141.992 C 252.727 141.755,253.046 141.176,253.436 140.705 C 253.826 140.234,254.287 139.432,254.460 138.924 C 254.633 138.415,255.201 137.573,255.721 137.053 C 256.292 136.482,256.667 135.797,256.667 135.324 C 256.667 134.859,256.985 134.265,257.451 133.862 C 257.882 133.488,258.434 132.706,258.677 132.125 C 259.733 129.604,263.032 127.341,264.935 127.832 C 265.637 128.014,267.030 128.319,268.030 128.510 C 271.736 129.219,272.140 129.570,274.848 134.430 C 275.432 135.476,276.468 137.055,277.150 137.939 C 277.833 138.822,278.603 139.955,278.862 140.455 C 279.120 140.956,279.619 141.625,279.969 141.942 C 280.372 142.307,280.606 142.887,280.606 143.523 C 280.606 144.298,280.822 144.685,281.553 145.218 C 282.074 145.598,282.758 146.455,283.073 147.121 C 283.742 148.538,284.773 150.086,285.898 151.364 C 286.751 152.334,287.828 154.029,288.688 155.758 C 288.978 156.341,289.512 157.159,289.874 157.576 C 290.237 157.992,290.692 158.831,290.886 159.439 C 291.080 160.047,291.608 160.944,292.059 161.433 C 292.876 162.320,293.515 163.286,294.734 165.481 C 295.088 166.118,295.736 167.065,296.174 167.586 C 296.612 168.106,296.970 168.715,296.970 168.939 C 296.970 169.164,297.316 169.759,297.740 170.263 C 298.163 170.766,298.732 171.833,299.003 172.634 C 299.469 174.010,300.447 175.508,302.056 177.309 C 302.446 177.746,302.995 178.508,303.277 179.004 C 304.121 180.491,304.960 181.830,305.681 182.836 C 306.055 183.360,306.654 184.402,307.011 185.152 C 307.369 185.902,308.051 186.963,308.527 187.511 C 309.004 188.058,309.394 188.687,309.394 188.909 C 309.394 189.130,310.279 190.455,311.360 191.853 C 312.442 193.250,313.328 194.543,313.330 194.726 C 313.332 194.908,313.622 195.317,313.975 195.635 C 314.328 195.952,314.942 196.894,315.340 197.727 C 316.042 199.199,316.865 200.490,318.183 202.191 C 318.535 202.646,318.903 203.504,318.999 204.097 C 319.115 204.813,319.507 205.453,320.164 205.997 C 320.773 206.502,321.280 207.292,321.482 208.048 C 321.662 208.724,322.119 209.564,322.496 209.913 C 324.109 211.408,326.060 214.063,327.011 216.061 C 327.369 216.811,328.051 217.872,328.527 218.420 C 329.004 218.967,329.394 219.562,329.394 219.743 C 329.394 219.923,329.871 220.720,330.455 221.515 C 331.038 222.310,331.515 223.095,331.515 223.261 C 331.515 223.427,331.742 223.749,332.019 223.978 C 332.296 224.207,332.793 225.008,333.123 225.758 C 333.702 227.074,334.226 227.824,336.253 230.234 C 336.776 230.855,337.408 231.854,337.658 232.454 C 337.929 233.105,338.583 233.837,339.283 234.272 L 340.455 235.000 354.496 235.000 L 368.538 235.000 369.136 234.262 C 369.857 233.371,369.713 232.546,368.496 230.606 C 368.025 229.856,367.539 228.902,367.415 228.485 C 367.199 227.756,366.705 227.061,364.664 224.614 C 364.146 223.993,363.559 222.984,363.361 222.373 C 363.162 221.761,362.792 221.088,362.538 220.878 C 362.284 220.667,361.809 220.009,361.481 219.414 C 361.153 218.820,360.558 217.856,360.158 217.273 C 359.758 216.689,358.980 215.548,358.428 214.736 C 357.876 213.925,357.069 212.834,356.634 212.312 C 356.200 211.790,355.669 210.818,355.454 210.152 C 355.239 209.485,354.709 208.495,354.274 207.953 C 353.840 207.410,353.124 206.521,352.682 205.978 C 352.241 205.435,351.730 204.434,351.547 203.755 C 351.364 203.076,350.935 202.267,350.593 201.958 C 349.793 201.234,347.717 198.196,347.452 197.362 C 347.340 197.009,346.854 196.224,346.372 195.617 C 345.890 195.010,345.406 194.107,345.297 193.610 C 345.188 193.113,344.779 192.497,344.389 192.242 C 343.999 191.986,343.472 191.167,343.218 190.423 C 342.964 189.679,342.068 188.297,341.227 187.353 C 340.385 186.409,339.697 185.464,339.697 185.253 C 339.697 185.042,339.307 184.422,338.830 183.874 C 338.353 183.327,337.723 182.402,337.431 181.818 C 337.138 181.235,336.617 180.449,336.272 180.073 C 335.605 179.343,334.735 177.972,333.533 175.758 C 333.126 175.008,332.505 174.134,332.153 173.816 C 331.801 173.497,331.379 172.740,331.215 172.133 C 331.052 171.525,330.507 170.568,330.004 170.005 C 329.502 169.442,329.091 168.849,329.091 168.686 C 329.091 168.524,328.770 167.969,328.377 167.453 C 327.984 166.937,327.565 166.205,327.445 165.825 C 327.325 165.446,326.702 164.529,326.061 163.788 C 325.419 163.047,324.807 162.164,324.700 161.826 C 324.592 161.489,324.398 161.212,324.268 161.212 C 324.138 161.212,323.782 160.633,323.476 159.924 C 323.171 159.216,322.548 158.227,322.092 157.727 C 321.636 157.227,321.110 156.239,320.923 155.530 C 320.736 154.822,320.463 154.242,320.316 154.242 C 320.169 154.242,319.739 153.731,319.360 153.106 C 318.980 152.481,318.504 151.867,318.301 151.742 C 317.703 151.374,315.612 148.141,315.047 146.712 C 314.761 145.987,314.190 144.899,313.778 144.293 C 313.367 143.688,313.030 143.045,313.030 142.865 C 313.030 142.685,312.621 142.146,312.121 141.667 C 311.621 141.188,311.212 140.641,311.212 140.451 C 311.212 140.262,310.735 139.435,310.152 138.615 C 309.568 137.794,309.091 136.964,309.091 136.770 C 309.091 136.576,308.674 136.067,308.165 135.639 C 307.656 135.210,307.035 134.258,306.784 133.521 C 306.533 132.785,306.063 131.943,305.740 131.650 C 305.416 131.358,305.152 130.948,305.152 130.739 C 305.152 130.531,304.685 129.802,304.115 129.120 C 303.545 128.437,302.995 127.500,302.893 127.036 C 302.791 126.572,302.303 125.810,301.809 125.343 C 301.314 124.876,300.909 124.322,300.909 124.112 C 300.909 123.902,300.628 123.476,300.284 123.164 C 299.940 122.853,299.033 121.434,298.268 120.011 C 297.504 118.588,296.565 117.083,296.183 116.667 C 295.800 116.250,295.262 115.364,294.987 114.697 C 294.712 114.030,294.244 113.212,293.947 112.879 C 293.649 112.545,293.220 111.745,292.993 111.100 C 292.722 110.334,292.157 109.637,291.361 109.089 C 290.691 108.628,289.162 107.218,287.963 105.956 C 286.764 104.694,285.266 103.378,284.634 103.031 C 284.002 102.684,283.060 102.090,282.540 101.712 C 282.020 101.333,280.844 100.855,279.927 100.650 C 279.009 100.445,277.735 100.010,277.095 99.684 C 276.456 99.358,275.649 99.091,275.303 99.091 C 274.956 99.091,273.928 98.902,273.018 98.672 C 270.845 98.121,267.915 97.980,263.636 98.221 M45.232 104.249 C 43.574 105.199,42.561 106.374,42.826 107.036 C 42.934 107.304,42.990 107.277,43.006 106.951 C 43.040 106.283,44.437 105.036,46.181 104.116 C 46.998 103.686,47.475 103.335,47.242 103.336 C 47.009 103.338,46.104 103.748,45.232 104.249 M67.102 103.633 C 69.708 104.134,69.784 104.596,69.563 118.636 C 69.358 131.610,69.352 127.601,69.635 166.364 C 69.883 200.168,69.868 199.882,71.462 201.628 C 71.786 201.983,72.259 202.682,72.514 203.182 C 73.573 205.255,77.300 207.655,80.000 208.003 C 81.304 208.171,81.284 208.154,79.545 207.612 C 76.107 206.542,72.727 204.277,72.727 203.043 C 72.727 202.895,72.374 202.354,71.942 201.841 C 70.092 199.642,69.988 196.389,69.703 132.424 C 69.698 131.174,69.772 124.833,69.868 118.333 C 70.080 103.956,69.930 103.238,66.757 103.368 C 66.068 103.397,66.133 103.446,67.102 103.633 M154.410 103.739 C 154.105 103.961,153.932 104.336,154.025 104.572 C 154.152 104.891,154.201 104.867,154.219 104.478 C 154.233 104.160,154.626 103.846,155.227 103.672 C 155.885 103.482,156.005 103.379,155.588 103.361 C 155.245 103.346,154.715 103.516,154.410 103.739 M177.797 103.783 C 178.335 104.017,179.051 104.659,179.387 105.210 C 179.723 105.761,179.998 106.028,179.999 105.803 C 180.001 105.189,178.021 103.332,177.379 103.345 C 177.019 103.353,177.168 103.509,177.797 103.783 M42.498 156.282 C 42.431 200.639,42.469 205.252,42.913 206.361 C 43.182 207.033,43.328 207.867,43.237 208.213 C 43.142 208.578,43.332 209.246,43.690 209.800 C 44.029 210.327,44.205 210.485,44.080 210.152 C 43.955 209.818,43.765 208.931,43.657 208.180 C 43.549 207.430,43.330 206.612,43.170 206.362 C 42.988 206.080,42.821 187.362,42.725 156.667 L 42.571 107.424 42.498 156.282 M153.159 114.848 C 153.159 118.432,153.203 119.898,153.256 118.106 C 153.310 116.314,153.310 113.383,153.256 111.591 C 153.203 109.799,153.159 111.265,153.159 114.848 M179.835 121.970 C 179.835 128.803,179.875 131.642,179.924 128.278 C 179.973 124.914,179.973 119.323,179.924 115.854 C 179.875 112.384,179.835 115.136,179.835 121.970 M153.427 123.485 C 153.429 124.485,153.486 124.857,153.553 124.313 C 153.620 123.768,153.619 122.950,153.550 122.495 C 153.481 122.039,153.426 122.485,153.427 123.485 M153.144 128.636 C 153.144 130.470,153.194 131.181,153.255 130.216 C 153.315 129.252,153.314 127.752,153.253 126.883 C 153.192 126.014,153.143 126.803,153.144 128.636 M153.165 143.485 C 153.164 148.485,153.206 150.573,153.257 148.125 C 153.308 145.677,153.308 141.586,153.257 139.034 C 153.206 136.482,153.165 138.485,153.165 143.485 M179.836 151.667 C 179.836 159.167,179.876 162.191,179.924 158.388 C 179.972 154.585,179.972 148.449,179.924 144.752 C 179.876 141.055,179.836 144.167,179.836 151.667 M153.136 155.152 C 153.136 156.568,153.188 157.148,153.252 156.439 C 153.316 155.731,153.316 154.572,153.252 153.864 C 153.188 153.155,153.136 153.735,153.136 155.152 M153.443 161.212 C 153.443 162.795,153.494 163.443,153.556 162.652 C 153.618 161.860,153.618 160.564,153.556 159.773 C 153.494 158.981,153.443 159.629,153.443 161.212 M153.096 169.545 C 153.029 174.655,152.976 175.104,152.263 176.635 C 151.845 177.534,151.553 178.321,151.616 178.384 C 152.480 179.248,153.342 174.577,153.257 169.492 L 153.167 164.091 153.096 169.545 M180.094 167.727 C 180.096 168.727,180.152 169.100,180.220 168.555 C 180.287 168.011,180.286 167.192,180.217 166.737 C 180.147 166.282,180.092 166.727,180.094 167.727 M179.780 172.727 C 179.780 173.477,179.839 173.784,179.911 173.409 C 179.983 173.034,179.983 172.420,179.911 172.045 C 179.839 171.670,179.780 171.977,179.780 172.727 M179.630 176.916 C 179.526 178.376,179.256 179.377,178.712 180.325 C 178.288 181.063,177.849 182.008,177.737 182.424 C 177.624 182.841,178.036 182.227,178.653 181.061 C 179.664 179.148,180.548 174.848,179.930 174.848 C 179.847 174.848,179.712 175.779,179.630 176.916 M256.151 176.803 C 255.351 177.172,254.315 177.570,253.849 177.686 C 253.223 177.842,252.852 178.243,252.434 179.219 C 252.123 179.945,251.721 180.631,251.540 180.742 C 251.007 181.072,251.165 182.938,251.817 184.008 C 252.405 184.972,252.422 185.546,252.423 204.284 L 252.424 223.567 253.561 224.674 C 255.265 226.334,258.567 226.620,260.078 225.237 C 260.452 224.895,261.073 224.519,261.459 224.402 C 261.845 224.285,262.595 223.813,263.126 223.355 C 263.657 222.896,264.562 222.359,265.138 222.163 C 265.715 221.967,266.465 221.553,266.805 221.243 C 267.146 220.934,267.970 220.511,268.636 220.304 C 269.303 220.097,270.189 219.615,270.606 219.234 C 271.023 218.853,271.883 218.327,272.518 218.066 C 273.154 217.805,274.040 217.307,274.488 216.960 C 276.137 215.684,277.457 214.843,278.766 214.235 C 279.503 213.892,280.434 213.285,280.833 212.886 C 281.233 212.486,281.991 212.065,282.519 211.949 C 283.047 211.833,283.889 211.437,284.391 211.069 C 284.893 210.701,285.780 210.220,286.364 209.999 C 286.947 209.779,287.697 209.364,288.030 209.077 C 288.364 208.790,289.046 208.349,289.546 208.097 C 290.047 207.844,290.728 207.337,291.061 206.968 C 291.394 206.600,292.178 206.038,292.803 205.719 C 295.901 204.138,296.628 199.604,294.040 197.999 C 293.568 197.706,293.012 197.261,292.804 197.010 C 292.362 196.476,290.127 195.136,288.182 194.238 C 287.432 193.892,286.614 193.475,286.364 193.311 C 286.114 193.147,285.516 192.778,285.036 192.491 C 284.555 192.204,283.570 191.492,282.846 190.909 C 280.241 188.810,279.719 188.466,278.475 188.027 C 277.781 187.782,276.959 187.259,276.648 186.864 C 276.338 186.469,275.467 185.973,274.714 185.762 C 273.961 185.552,273.177 185.177,272.972 184.930 C 272.768 184.683,271.913 184.154,271.073 183.755 C 269.501 183.007,268.104 182.108,266.515 180.823 C 266.015 180.418,265.115 179.928,264.514 179.732 C 263.914 179.536,263.106 179.039,262.719 178.628 C 262.332 178.216,261.853 177.879,261.655 177.879 C 261.456 177.879,260.927 177.590,260.478 177.237 C 259.115 176.165,257.813 176.034,256.151 176.803 M150.407 180.076 C 150.072 180.451,149.235 181.644,148.546 182.727 C 147.857 183.811,146.945 185.174,146.520 185.758 C 146.094 186.341,145.278 187.459,144.706 188.241 C 144.134 189.024,143.396 190.192,143.067 190.837 C 142.738 191.482,142.245 192.196,141.972 192.422 C 141.699 192.649,141.261 193.254,141.000 193.766 C 140.739 194.278,139.882 195.521,139.095 196.528 C 138.308 197.535,137.492 198.694,137.282 199.104 C 137.071 199.513,136.608 200.096,136.252 200.399 L 135.606 200.950 136.285 200.617 C 136.658 200.435,137.190 199.846,137.468 199.309 C 137.745 198.772,138.482 197.720,139.105 196.970 C 140.312 195.518,142.081 192.920,143.346 190.742 C 143.770 190.013,144.402 189.104,144.750 188.723 C 145.099 188.342,145.608 187.587,145.881 187.045 C 146.155 186.504,146.487 186.061,146.619 186.061 C 146.750 186.061,147.178 185.481,147.570 184.773 C 148.424 183.227,149.910 181.015,150.726 180.076 C 151.051 179.701,151.250 179.394,151.166 179.394 C 151.083 179.394,150.741 179.701,150.407 180.076 M176.773 184.167 C 176.042 185.159,175.380 186.364,175.565 186.364 C 175.638 186.364,176.016 185.852,176.404 185.227 C 176.793 184.602,177.223 183.920,177.359 183.712 C 177.829 182.991,177.384 183.337,176.773 184.167 M174.667 187.540 C 174.318 187.976,173.854 188.674,173.636 189.091 C 173.418 189.508,172.852 190.323,172.378 190.902 C 171.903 191.482,171.515 192.072,171.515 192.213 C 171.515 192.534,173.442 190.030,173.946 189.053 C 174.151 188.657,174.597 188.027,174.938 187.653 C 175.279 187.278,175.501 186.921,175.430 186.859 C 175.360 186.797,175.017 187.104,174.667 187.540 M170.152 194.749 C 169.485 195.829,168.586 197.145,168.154 197.674 C 167.722 198.203,166.790 199.591,166.083 200.758 C 165.377 201.924,164.230 203.722,163.536 204.752 C 162.841 205.783,161.727 207.539,161.061 208.655 C 160.394 209.772,159.423 211.178,158.904 211.782 C 158.384 212.385,157.664 213.424,157.303 214.091 C 156.526 215.525,155.401 217.241,153.939 219.219 C 152.583 221.056,151.717 222.424,151.910 222.424 C 151.994 222.424,152.573 221.640,153.197 220.682 C 153.821 219.723,154.633 218.598,155.000 218.182 C 155.368 217.765,156.192 216.538,156.832 215.455 C 157.473 214.371,158.295 213.144,158.659 212.727 C 159.024 212.311,160.240 210.470,161.363 208.636 C 162.485 206.803,163.791 204.758,164.265 204.091 C 164.739 203.424,165.701 201.924,166.404 200.758 C 167.107 199.591,167.974 198.295,168.331 197.879 C 169.220 196.840,171.625 193.039,171.481 192.899 C 171.416 192.837,170.818 193.670,170.152 194.749 M135.282 201.944 C 134.568 204.792,130.186 207.726,126.364 207.917 C 125.465 207.962,125.428 207.989,126.119 208.094 C 127.445 208.297,130.271 207.642,131.274 206.901 C 133.626 205.163,136.200 201.857,135.639 201.295 C 135.554 201.210,135.393 201.502,135.282 201.944 M92.197 208.409 C 98.155 208.455,107.905 208.455,113.864 208.409 C 119.822 208.363,114.947 208.325,103.030 208.325 C 91.114 208.325,86.239 208.363,92.197 208.409 M44.313 211.818 C 44.313 212.402,44.375 212.640,44.451 212.348 C 44.528 212.057,44.528 211.580,44.451 211.288 C 44.375 210.996,44.313 211.235,44.313 211.818 M44.711 214.054 C 44.883 214.943,46.364 217.383,46.364 216.778 C 46.364 216.595,46.111 216.120,45.803 215.723 C 45.494 215.325,45.084 214.591,44.892 214.091 L 44.542 213.182 44.711 214.054 M46.686 218.748 C 46.675 218.976,47.076 219.628,47.576 220.198 C 48.076 220.767,48.485 221.113,48.485 220.967 C 48.485 220.820,48.196 220.440,47.843 220.123 C 47.490 219.805,47.090 219.273,46.953 218.939 C 46.817 218.606,46.696 218.520,46.686 218.748 M48.788 222.580 C 48.788 222.700,50.371 224.346,52.307 226.239 C 56.270 230.115,62.455 233.664,65.909 234.045 C 66.945 234.159,67.184 234.130,66.667 233.954 C 66.250 233.813,65.583 233.683,65.185 233.667 C 62.490 233.554,55.560 229.174,51.304 224.894 C 49.920 223.502,48.788 222.461,48.788 222.580 M149.697 225.051 C 149.697 225.382,145.198 229.319,144.140 229.914 C 143.780 230.116,143.621 230.282,143.788 230.282 C 144.647 230.282,150.312 225.363,149.913 224.963 C 149.794 224.844,149.697 224.884,149.697 225.051 M141.364 231.212 C 140.530 231.706,139.956 232.113,140.086 232.116 C 140.217 232.119,141.036 231.713,141.905 231.215 C 142.774 230.717,143.348 230.310,143.182 230.311 C 143.015 230.312,142.197 230.718,141.364 231.212 M138.030 232.780 C 137.364 233.129,136.000 233.598,135.000 233.823 L 133.182 234.232 134.814 234.070 C 136.168 233.935,140.548 232.156,139.545 232.148 C 139.379 232.146,138.697 232.431,138.030 232.780 M69.242 234.574 C 76.619 235.751,126.519 236.247,129.821 235.176 C 130.836 234.847,132.008 234.521,132.424 234.452 C 133.154 234.330,133.150 234.323,132.339 234.284 C 131.875 234.261,130.677 234.518,129.676 234.855 C 127.651 235.538,83.429 235.574,75.303 234.900 C 73.303 234.734,70.712 234.528,69.545 234.441 L 67.424 234.284 69.242 234.574 "
              stroke="none" fill="#f8c13b" fill-rule="evenodd"></path>
        <path id="path1"
              d="M46.212 104.093 C 45.379 104.532,44.288 105.294,43.788 105.785 L 42.879 106.678 42.800 155.839 C 42.742 192.006,42.812 205.240,43.066 205.909 C 43.256 206.409,43.520 207.432,43.653 208.182 C 43.786 208.932,44.050 210.159,44.240 210.909 C 44.430 211.659,44.715 212.860,44.872 213.577 C 45.029 214.295,45.421 215.249,45.742 215.699 C 46.064 216.148,46.483 217.129,46.674 217.879 C 46.866 218.629,47.333 219.583,47.712 220.000 C 48.092 220.417,48.542 221.177,48.713 221.690 C 49.030 222.645,52.646 226.455,55.322 228.654 C 57.063 230.086,63.433 233.309,65.261 233.684 C 71.329 234.928,77.579 235.199,103.474 235.337 C 124.743 235.451,128.159 235.408,129.140 235.016 C 129.762 234.767,131.676 234.341,133.393 234.069 C 135.110 233.797,136.856 233.393,137.273 233.171 C 137.689 232.948,139.530 232.054,141.364 231.184 C 144.916 229.497,145.241 229.271,148.840 226.002 C 150.340 224.640,151.443 223.333,151.947 222.323 C 152.376 221.462,153.239 220.092,153.864 219.278 C 155.270 217.447,156.445 215.675,157.303 214.091 C 157.664 213.424,158.384 212.385,158.904 211.782 C 159.423 211.178,160.394 209.772,161.061 208.655 C 161.727 207.539,162.841 205.783,163.536 204.752 C 164.230 203.722,165.377 201.924,166.084 200.758 C 166.791 199.591,167.698 198.227,168.100 197.727 C 169.121 196.457,171.515 192.664,171.515 192.317 C 171.515 192.158,171.929 191.470,172.434 190.787 C 173.980 188.699,174.795 187.478,175.486 186.212 C 175.850 185.545,176.453 184.591,176.827 184.091 C 177.200 183.591,177.604 182.841,177.724 182.424 C 177.844 182.008,178.252 181.121,178.631 180.455 C 179.777 178.439,179.781 178.310,179.761 141.421 C 179.740 101.725,179.901 104.676,177.713 103.763 C 175.755 102.944,154.242 103.234,154.242 104.078 C 154.242 104.139,154.043 105.230,153.800 106.502 C 153.428 108.446,153.360 114.086,153.375 141.848 L 153.394 174.880 152.154 177.364 C 151.472 178.731,150.362 180.598,149.688 181.515 C 149.014 182.432,148.105 183.830,147.668 184.621 C 147.231 185.413,146.762 186.061,146.626 186.061 C 146.490 186.061,146.155 186.504,145.881 187.045 C 145.608 187.587,145.099 188.342,144.750 188.723 C 144.402 189.104,143.770 190.013,143.346 190.742 C 142.081 192.920,140.312 195.518,139.105 196.970 C 138.482 197.720,137.745 198.772,137.468 199.309 C 137.190 199.846,136.716 200.417,136.414 200.579 C 136.112 200.741,135.706 201.393,135.513 202.028 C 134.861 204.165,131.258 207.373,128.885 207.928 C 126.726 208.433,83.603 208.661,80.758 208.182 C 77.213 207.586,73.664 205.433,72.514 203.182 C 72.259 202.682,71.786 201.983,71.462 201.628 C 69.868 199.882,69.883 200.168,69.635 166.364 C 69.353 127.753,69.360 131.734,69.558 118.266 C 69.799 101.962,71.052 103.520,57.590 103.390 L 47.727 103.295 46.212 104.093 "
              stroke="none" fill="#f5f5f5" fill-rule="evenodd"></path>
    </g>
</svg>