<?xml version="1.0" encoding="UTF-8"?>
<svg version="1.1" xmlns="http://www.w3.org/2000/svg" width="1254" height="1254">
<path d="M0 0 C413.82 0 827.64 0 1254 0 C1254 413.82 1254 827.64 1254 1254 C840.18 1254 426.36 1254 0 1254 C0 840.18 0 426.36 0 0 Z " fill="#000000" transform="translate(0,0)"/>
<path d="M0 0 C0 0.66 0 1.32 0 2 C0.8353125 2.16435547 0.8353125 2.16435547 1.6875 2.33203125 C7.03341031 3.44275248 11.93063816 4.97225526 17 7 C17 7.66 17 8.32 17 9 C19.97 9.99 22.94 10.98 26 12 C26 12.66 26 13.32 26 14 C26.804375 14.12375 26.804375 14.12375 27.625 14.25 C32.70865164 15.85536367 36.35899444 19.25190604 40 23 C41.24381462 24.09042941 42.49461625 25.17291005 43.75 26.25 C54.95567673 35.98951342 54.95567673 35.98951342 59 42 C59 42.66 59 43.32 59 44 C59.66 44 60.32 44 61 44 C61.26554687 44.56589844 61.53109375 45.13179688 61.8046875 45.71484375 C62.33449219 46.81505859 62.33449219 46.81505859 62.875 47.9375 C63.22304688 48.66839844 63.57109375 49.39929688 63.9296875 50.15234375 C64.8684977 52.16332459 64.8684977 52.16332459 67 53 C68.0703125 54.7421875 68.0703125 54.7421875 69.125 56.875 C69.47820312 57.57367188 69.83140625 58.27234375 70.1953125 58.9921875 C71 61 71 61 71 64 C71.66 64 72.32 64 73 64 C75.08324537 67.51996631 76.9334202 70.83909883 78.5 74.625 C79.84597908 78.05036106 79.84597908 78.05036106 82.1875 80.6875 C84 83 84 83 84 87 C84.66 87 85.32 87 86 87 C86.52787109 88.10794922 86.52787109 88.10794922 87.06640625 89.23828125 C89.63365083 94.51353317 92.2817771 99.59023901 95.5 104.5 C98.56080973 109.18202983 101.08249927 113.9851185 103.52734375 119.01171875 C107.05324084 126.16639056 111.03020034 133.0848651 115 140 C115.77229471 141.39502531 116.54301002 142.79092566 117.3125 144.1875 C120.92583943 150.70940988 124.66651849 157.16600127 128.54296875 163.53515625 C130.02599289 166.04397189 131.37640873 168.58500351 132.6875 171.1875 C133.34298828 172.47720703 133.34298828 172.47720703 134.01171875 173.79296875 C135 176 135 176 135 178 C135.66 178 136.32 178 137 178 C137.24234375 178.58007812 137.4846875 179.16015625 137.734375 179.7578125 C139.33877869 183.49730725 140.90657654 186.86119943 143.1875 190.25 C144.97543398 192.96272742 145.62446655 194.80796563 146 198 C146.66 198 147.32 198 148 198 C148.43570313 198.89460937 148.87140625 199.78921875 149.3203125 200.7109375 C152.52019718 207.22644159 155.83625826 213.55502012 159.64453125 219.7421875 C165 228.66282421 165 228.66282421 165 232 C165.66 232 166.32 232 167 232 C167.99 234.97 168.98 237.94 170 241 C170.66 241 171.32 241 172 241 C172.49628906 242.02738281 172.99257812 243.05476562 173.50390625 244.11328125 C177.07470679 251.42487829 180.77296476 258.39901443 185.26171875 265.19921875 C189.16164834 271.48292553 193.60233357 278.70704824 195 286 C195.66 286 196.32 286 197 286 C199.32914008 289.93544359 201.3415338 293.74822116 203.08984375 297.98046875 C205.67734401 303.72183199 208.75998961 309.34121294 212.375 314.5 C214 317 214 317 214 320 C214.66 320 215.32 320 216 320 C216.67119549 321.4562545 217.33681807 322.91507867 218 324.375 C218.37125 325.18710937 218.7425 325.99921875 219.125 326.8359375 C220 329 220 329 220 331 C220.66 331 221.32 331 222 331 C222.52787109 332.07314453 222.52787109 332.07314453 223.06640625 333.16796875 C228.12437442 343.37634837 233.45826426 353.42445157 239.15234375 363.29296875 C240 365 240 365 240 367 C240.66 367 241.32 367 242 367 C242.56976562 368.15886719 243.13953125 369.31773437 243.7265625 370.51171875 C245.81550293 374.688681 248.06289292 378.7559259 250.375 382.8125 C251.16846868 384.21456094 251.96143587 385.61690581 252.75390625 387.01953125 C253.13691895 387.69709473 253.51993164 388.3746582 253.91455078 389.07275391 C257.04476705 394.63054231 260.14555282 400.20110432 262.9375 405.9375 C264.59229543 409.30888821 266.46016635 412.51950384 268.375 415.75 C278 432.08963283 278 432.08963283 278 436 C278.66 436 279.32 436 280 436 C280.51949219 437.0621875 281.03898437 438.124375 281.57421875 439.21875 C285.8593884 448.09359926 285.8593884 448.09359926 290.875 456.5625 C293.1014485 459.92841036 294.10013872 463.07333262 295 467 C295.66 467 296.32 467 297 467 C300 472.625 300 472.625 300 476 C300.66 476 301.32 476 302 476 C302.83790789 477.78953185 303.67019396 479.58169695 304.5 481.375 C304.9640625 482.37273437 305.428125 483.37046875 305.90625 484.3984375 C307 487 307 487 307 489 C307.66 489 308.32 489 309 489 C309.83790789 490.78953185 310.67019396 492.58169695 311.5 494.375 C311.9640625 495.37273437 312.428125 496.37046875 312.90625 497.3984375 C314 500 314 500 314 502 C314.66 502 315.32 502 316 502 C316.48428405 509.14318976 316.48428405 509.14318976 314.375 512.875 C309.75029099 517.01289753 304.71066785 517.2543949 298.70043945 517.29052734 C297.64298271 517.30060318 297.64298271 517.30060318 296.56416321 517.31088257 C294.24712961 517.32978684 291.93038705 517.3337834 289.61328125 517.3359375 C287.98910914 517.34237255 286.36493817 517.34910143 284.74076843 517.35610962 C281.33895179 517.36806482 277.93723654 517.37179245 274.53540039 517.37060547 C270.20258767 517.37040281 265.87043473 517.3976577 261.5377779 517.43214989 C258.18231801 517.45452895 254.82701388 517.4584396 251.47148705 517.45738602 C249.87568078 517.45972727 248.27986923 517.46846642 246.68413734 517.48405075 C235.72269302 517.58104996 224.20530438 517.18813379 215.7421875 509.2109375 C211.8445613 504.26462264 209.04915836 498.57245279 206.10205078 493.02880859 C203.94452317 489.05693122 201.56344071 485.21654085 199.21484375 481.35546875 C198 479 198 479 198 476 C197.34 476 196.68 476 196 476 C195.52949219 475.03578125 195.05898437 474.0715625 194.57421875 473.078125 C193.94552821 471.80197704 193.31660993 470.52594126 192.6875 469.25 C192.37876953 468.61578125 192.07003906 467.9815625 191.75195312 467.328125 C190.41742293 464.63096924 189.09942775 462.13017629 187.26953125 459.734375 C186 458 186 458 186 455 C185.34 455 184.68 455 184 455 C183.43285278 453.89543457 183.43285278 453.89543457 182.85424805 452.76855469 C181.44264914 450.02369487 180.02773773 447.28057575 178.6105957 444.53857422 C177.69943457 442.77312421 176.79207414 441.00571431 175.88476562 439.23828125 C175.30791016 438.12324219 174.73105469 437.00820313 174.13671875 435.859375 C173.60780029 434.83295898 173.07888184 433.80654297 172.53393555 432.74902344 C171.0980657 430.01216563 171.0980657 430.01216563 169.30395508 427.82128906 C168 426 168 426 168 423 C167.34 423 166.68 423 166 423 C163.99338316 419.21179916 161.9958376 415.41888948 160 411.625 C159.42765625 410.54476563 158.8553125 409.46453125 158.265625 408.3515625 C157.72421875 407.3203125 157.1828125 406.2890625 156.625 405.2265625 C156.12226562 404.27346191 155.61953125 403.32036133 155.1015625 402.33837891 C154 400 154 400 154 398 C153.34 398 152.68 398 152 398 C151.72325439 397.46632813 151.44650879 396.93265625 151.16137695 396.3828125 C149.88181692 393.92009216 148.59719132 391.46004721 147.3125 389 C146.65991211 387.74123047 146.65991211 387.74123047 145.99414062 386.45703125 C143.51764865 381.72417993 140.9253852 377.15355629 137.98632812 372.69140625 C136.72387036 370.52647867 136.23296894 368.48500199 136 366 C135.34 366 134.68 366 134 366 C133.69707031 365.3709375 133.39414062 364.741875 133.08203125 364.09375 C130.73516639 359.29892456 128.27348 354.70271872 125.3984375 350.20703125 C123.64057202 347.43274634 121.93624127 344.63093184 120.25 341.8125 C119.65703125 340.82894531 119.0640625 339.84539062 118.453125 338.83203125 C117.07485597 336.14588865 116.4129417 333.97209357 116 331 C115.34 331 114.68 331 114 331 C113.73445313 330.44570313 113.46890625 329.89140625 113.1953125 329.3203125 C112.84210938 328.59585937 112.48890625 327.87140625 112.125 327.125 C111.77695312 326.40570312 111.42890625 325.68640625 111.0703125 324.9453125 C110.03442457 322.84864981 110.03442457 322.84864981 108 321 C107 318.66666667 106 316.33333333 105 314 C104.34 313.34 103.68 312.68 103 312 C101.33260252 308.39842144 99.78077195 304.90385976 99 301 C98.34 301 97.68 301 97 301 C96.56429688 300.10539062 96.12859375 299.21078125 95.6796875 298.2890625 C90.87989045 288.51169815 85.67990616 279.21804868 79.39453125 270.30078125 C77.94099274 267.90264629 76.90469873 265.43535238 75.83276367 262.84936523 C74.41223292 259.69471252 72.57384513 256.80890999 70.75 253.875 C67.15676955 247.99530169 63.79692816 242.04937935 60.57421875 235.95703125 C58.73385028 232.50006121 56.80479397 229.09898376 54.84765625 225.70703125 C54 224 54 224 54 222 C53.34 222 52.68 222 52 222 C51.484375 220.9275 50.96875 219.855 50.4375 218.75 C48.60540901 215.07277823 46.58774291 211.53793853 44.5 208 C37 195.25806452 37 195.25806452 37 192 C36.34 192 35.68 192 35 192 C34.72849121 191.47680176 34.45698242 190.95360352 34.17724609 190.41455078 C27.5184315 177.56389162 27.5184315 177.56389162 20.234375 165.0625 C18.64601613 162.40853327 17.28921645 159.6705198 15.9453125 156.88671875 C14.95694084 154.91405961 13.87056706 153.02526232 12.75 151.125 C11 148 11 148 11 146 C10.34 146 9.68 146 9 146 C8.56429688 145.09378906 8.12859375 144.18757812 7.6796875 143.25390625 C4.55925657 136.84380069 1.37209045 130.7458435 -2.7265625 124.890625 C-4.41266218 122.38733591 -5.65175799 119.69648402 -7 117 C-9.7224387 113.20803181 -12.43704376 110.74293588 -16.375 108.25 C-17.29023437 107.65703125 -18.20546875 107.0640625 -19.1484375 106.453125 C-22.15506169 104.92098226 -24.66355917 104.37399632 -28 104 C-28 103.34 -28 102.68 -28 102 C-37.7362412 102.12689414 -45.84941996 102.60638961 -54.77734375 106.94140625 C-57 108 -57 108 -59 108 C-59 108.66 -59 109.32 -59 110 C-60.42578125 111.296875 -60.42578125 111.296875 -62.3125 112.75 C-65.6165969 115.46551284 -67.37496951 117.9852188 -69 122 C-69.66 122 -70.32 122 -71 122 C-71.28875 123.0725 -71.5775 124.145 -71.875 125.25 C-72.72820109 128.09400364 -73.5636503 130.43508983 -75 133 C-75.66 133 -76.32 133 -77 133 C-77.268125 133.86625 -77.53625 134.7325 -77.8125 135.625 C-78.97111987 138.91791964 -80.38209839 141.91127875 -82 145 C-82.66 145 -83.32 145 -84 145 C-84.12375 145.556875 -84.2475 146.11375 -84.375 146.6875 C-85.05976855 149.22114364 -85.99133763 151.57921032 -87 154 C-87.66 154 -88.32 154 -89 154 C-89.268125 154.86625 -89.53625 155.7325 -89.8125 156.625 C-90.97111987 159.91791964 -92.38209839 162.91127875 -94 166 C-94.66 166 -95.32 166 -96 166 C-96.28875 166.886875 -96.5775 167.77375 -96.875 168.6875 C-97.83148748 171.50382424 -98.86798946 174.25083156 -100 177 C-100.66 177 -101.32 177 -102 177 C-102.19335938 177.61488281 -102.38671875 178.22976563 -102.5859375 178.86328125 C-102.97652344 180.07564453 -102.97652344 180.07564453 -103.375 181.3125 C-103.63023437 182.11300781 -103.88546875 182.91351562 -104.1484375 183.73828125 C-105 186 -105 186 -107 189 C-107.66 189 -108.32 189 -109 189 C-109.12375 189.7425 -109.2475 190.485 -109.375 191.25 C-109.95486701 193.80141485 -110.73708739 195.7267573 -112 198 C-112.66 198 -113.32 198 -114 198 C-114.2475 198.86625 -114.495 199.7325 -114.75 200.625 C-116.07598995 204.20517287 -117.87308965 206.84186039 -120 210 C-121.03842565 212.31648799 -122.0421975 214.64903024 -123 217 C-123.65288627 218.34013497 -124.31225595 219.67741528 -125 221 C-125.66 221 -126.32 221 -127 221 C-127.268125 221.86625 -127.53625 222.7325 -127.8125 223.625 C-129.62813619 228.78522918 -132.17651234 233.33510734 -135 238 C-135.68096422 239.32608822 -136.35330586 240.65686601 -137 242 C-137.66 242 -138.32 242 -139 242 C-139.99 244.97 -140.98 247.94 -142 251 C-142.66 251 -143.32 251 -144 251 C-144.37125 251.9590625 -144.37125 251.9590625 -144.75 252.9375 C-146.40811572 256.99988351 -148.2035584 260.99724906 -150 265 C-150.66 265 -151.32 265 -152 265 C-152.19335938 265.61488281 -152.38671875 266.22976563 -152.5859375 266.86328125 C-152.84632813 267.67152344 -153.10671875 268.47976563 -153.375 269.3125 C-153.63023437 270.11300781 -153.88546875 270.91351562 -154.1484375 271.73828125 C-155 274 -155 274 -157 277 C-157.66 277 -158.32 277 -159 277 C-160.485 281.455 -160.485 281.455 -162 286 C-162.66 286 -163.32 286 -164 286 C-164.12246094 286.57234375 -164.24492188 287.1446875 -164.37109375 287.734375 C-165.02762868 290.09953191 -165.93723512 292.07206797 -167.0625 294.25 C-167.42472656 294.95640625 -167.78695312 295.6628125 -168.16015625 296.390625 C-168.43730469 296.92171875 -168.71445312 297.4528125 -169 298 C-169.66 298 -170.32 298 -171 298 C-172.485 302.455 -172.485 302.455 -174 307 C-174.66 307 -175.32 307 -176 307 C-176.268125 307.86625 -176.53625 308.7325 -176.8125 309.625 C-177.97111987 312.91791964 -179.38209839 315.91127875 -181 319 C-181.66 319 -182.32 319 -183 319 C-183.20625 319.969375 -183.4125 320.93875 -183.625 321.9375 C-184.80049819 326.12362665 -187.05944664 329.24839827 -189.53515625 332.77734375 C-191.48275398 335.73249871 -192.73680913 338.70166828 -194 342 C-194.66 342 -195.32 342 -196 342 C-196.185625 342.8353125 -196.185625 342.8353125 -196.375 343.6875 C-197.05976855 346.22114364 -197.99133763 348.57921032 -199 351 C-199.66 351 -200.32 351 -201 351 C-201.268125 351.86625 -201.53625 352.7325 -201.8125 353.625 C-202.97111987 356.91791964 -204.38209839 359.91127875 -206 363 C-206.66 363 -207.32 363 -208 363 C-208.268125 363.86625 -208.53625 364.7325 -208.8125 365.625 C-211.33851798 372.80420898 -215.34223145 379.34735946 -219 386 C-219.66 386 -220.32 386 -221 386 C-221.185625 386.8353125 -221.185625 386.8353125 -221.375 387.6875 C-222.06543354 390.2421041 -222.89481684 392.59460135 -224 395 C-224.66 395.33 -225.32 395.66 -226 396 C-226.93845254 397.82287297 -227.80435092 399.68364553 -228.625 401.5625 C-229.07101562 402.57441406 -229.51703125 403.58632813 -229.9765625 404.62890625 C-230.48316406 405.80259766 -230.48316406 405.80259766 -231 407 C-231.66 407 -232.32 407 -233 407 C-233.28875 408.0725 -233.5775 409.145 -233.875 410.25 C-234.72820109 413.09400364 -235.5636503 415.43508983 -237 418 C-237.66 418 -238.32 418 -239 418 C-239.268125 418.86625 -239.53625 419.7325 -239.8125 420.625 C-240.97111987 423.91791964 -242.38209839 426.91127875 -244 430 C-244.66 430 -245.32 430 -246 430 C-246.12375 430.7425 -246.2475 431.485 -246.375 432.25 C-246.95486701 434.80141485 -247.73708739 436.7267573 -249 439 C-249.66 439 -250.32 439 -251 439 C-251.37125 440.2375 -251.37125 440.2375 -251.75 441.5 C-253.18704811 445.52373471 -255.02354515 449.21979024 -257 453 C-257.66 453 -258.32 453 -259 453 C-259.12375 453.7425 -259.2475 454.485 -259.375 455.25 C-259.95486701 457.80141485 -260.73708739 459.7267573 -262 462 C-262.66 462 -263.32 462 -264 462 C-264.268125 462.86625 -264.53625 463.7325 -264.8125 464.625 C-265.97111987 467.91791964 -267.38209839 470.91127875 -269 474 C-269.66 474 -270.32 474 -271 474 C-271.12375 474.7425 -271.2475 475.485 -271.375 476.25 C-271.95486701 478.80141485 -272.73708739 480.7267573 -274 483 C-274.66 483 -275.32 483 -276 483 C-276.25136719 483.84691406 -276.50273438 484.69382812 -276.76171875 485.56640625 C-278.09532659 489.26432831 -279.83397488 492.55932762 -281.8125 495.9375 C-282.17069824 496.55286621 -282.52889648 497.16823242 -282.89794922 497.80224609 C-290.26484225 510.33958818 -290.26484225 510.33958818 -297 514 C-297.99 514 -298.98 514 -300 514 C-300 514.66 -300 515.32 -300 516 C-304.93280326 517.59362199 -309.09078482 518.25534242 -314.32470703 518.2746582 C-315.01995483 518.27976913 -315.71520264 518.28488007 -316.43151855 518.29014587 C-318.70703979 518.30393501 -320.98225472 518.30309404 -323.2578125 518.30078125 C-324.85008861 518.30467251 -326.44236369 518.30900806 -328.03463745 518.31376648 C-331.36150489 518.32120452 -334.68826614 518.32095388 -338.01513672 518.31567383 C-342.27330118 518.30986557 -346.5310326 518.32685429 -350.78912544 518.3500185 C-354.07313567 518.36476007 -357.35704149 518.36562727 -360.64107895 518.36250877 C-362.2111281 518.36302122 -363.78118321 518.36824461 -365.3512001 518.37832069 C-367.54578033 518.39068397 -369.73951494 518.38389625 -371.93408203 518.37231445 C-373.80436569 518.37325859 -373.80436569 518.37325859 -375.71243286 518.3742218 C-379.28134138 517.96797508 -381.1081857 517.07186266 -384 515 C-384.763125 514.46375 -385.52625 513.9275 -386.3125 513.375 C-388.32109781 510.54808457 -388.78791319 508.31731301 -388.671875 504.859375 C-387.15564141 498.40656693 -383.34238429 492.66265553 -380 487 C-379.34 487 -378.68 487 -378 487 C-377.87625 486.2575 -377.7525 485.515 -377.625 484.75 C-377.04513299 482.19858515 -376.26291261 480.2732427 -375 478 C-374.34 478 -373.68 478 -373 478 C-372.566875 476.39125 -372.566875 476.39125 -372.125 474.75 C-371.27179891 471.90599636 -370.4363497 469.56491017 -369 467 C-368.34 467 -367.68 467 -367 467 C-366.7525 465.948125 -366.505 464.89625 -366.25 463.8125 C-365.20661951 460.13127728 -363.41305646 457.98083445 -361 455 C-359.89357601 452.7374251 -358.9120578 450.43994457 -357.9296875 448.12109375 C-356.82510217 445.60096839 -355.43204791 443.34855857 -354 441 C-353.21907049 439.46342288 -352.44958369 437.92101054 -351.6875 436.375 C-348.94810983 430.82940527 -345.99383108 425.41152972 -343 420 C-342.34 420 -341.68 420 -341 420 C-340.89558594 419.278125 -340.79117188 418.55625 -340.68359375 417.8125 C-339.93287045 414.72380986 -338.76912658 412.67051592 -337.0625 410 C-334.98949093 406.74023144 -333.34085591 403.62743629 -332 400 C-331.34 400 -330.68 400 -330 400 C-329.72736328 399.07767578 -329.72736328 399.07767578 -329.44921875 398.13671875 C-329.19785156 397.32847656 -328.94648437 396.52023437 -328.6875 395.6875 C-328.44386719 394.88699219 -328.20023438 394.08648438 -327.94921875 393.26171875 C-327 391 -327 391 -325.55957031 389.578125 C-322.97679242 386.96461901 -321.64210202 383.58904591 -320.0625 380.3125 C-319.38671875 378.93359375 -318.7109375 377.5546875 -318.03515625 376.17578125 C-317.70402832 375.49467285 -317.37290039 374.81356445 -317.03173828 374.11181641 C-315.37899441 370.72889296 -313.68831129 367.36529164 -312 364 C-311.34 364 -310.68 364 -310 364 C-309.87625 363.2575 -309.7525 362.515 -309.625 361.75 C-309.04513299 359.19858515 -308.26291261 357.2732427 -307 355 C-306.34 355 -305.68 355 -305 355 C-304.79503906 354.37351562 -304.59007812 353.74703125 -304.37890625 353.1015625 C-304.10949219 352.28429687 -303.84007812 351.46703125 -303.5625 350.625 C-303.29566406 349.81289063 -303.02882813 349.00078125 -302.75390625 348.1640625 C-302 346 -302 346 -301 344 C-300.34 344 -299.68 344 -299 344 C-298.690625 342.80375 -298.38125 341.6075 -298.0625 340.375 C-296.32174895 335.06024318 -293.44427117 330.71924123 -290.31274414 326.13818359 C-287.66055207 322.22008351 -285.80173242 318.37563587 -284 314 C-282.67653494 311.9934562 -281.34270821 309.99371825 -280 308 C-279.07720565 306.18736824 -278.15786956 304.37273331 -277.26953125 302.54296875 C-275.23507739 298.46780118 -273.06221153 294.46667615 -270.90527344 290.45532227 C-268.87279609 286.66693885 -266.90394544 282.85534123 -265 279 C-264.34 279 -263.68 279 -263 279 C-262.62875 277.7625 -262.62875 277.7625 -262.25 276.5 C-260.81295189 272.47626529 -258.97645485 268.78020976 -257 265 C-256.34 265 -255.68 265 -255 265 C-254.87625 264.2575 -254.7525 263.515 -254.625 262.75 C-254.04513299 260.19858515 -253.26291261 258.2732427 -252 256 C-251.34 256 -250.68 256 -250 256 C-249.8453125 254.948125 -249.8453125 254.948125 -249.6875 253.875 C-248.90640997 250.60862353 -247.57941257 247.9528148 -246 245 C-245.34 245 -244.68 245 -244 245 C-243.773125 244.175 -243.54625 243.35 -243.3125 242.5 C-241.99505207 238.98680552 -240.34205116 236.28754584 -238.30859375 233.16796875 C-236.16442186 229.61568397 -234.58576632 225.82710084 -233 222 C-232.34 222 -231.68 222 -231 222 C-230.79503906 221.37351562 -230.59007812 220.74703125 -230.37890625 220.1015625 C-229.97478516 218.87566406 -229.97478516 218.87566406 -229.5625 217.625 C-229.29566406 216.81289063 -229.02882813 216.00078125 -228.75390625 215.1640625 C-228 213 -228 213 -227 211 C-226.34 211 -225.68 211 -225 211 C-224.938125 210.319375 -224.87625 209.63875 -224.8125 208.9375 C-223.86890755 205.52605039 -222.3334272 203.48655226 -220.15625 200.74609375 C-218.89480878 198.84114705 -218.42938641 197.22988168 -218 195 C-217.34 195 -216.68 195 -216 195 C-215.8453125 193.9171875 -215.8453125 193.9171875 -215.6875 192.8125 C-214.92485567 189.69259139 -213.67971044 187.73441235 -212 185 C-210.8012032 182.81867042 -209.61421706 180.63081928 -208.4375 178.4375 C-207.83808594 177.32246094 -207.23867188 176.20742188 -206.62109375 175.05859375 C-205.3812757 172.71937078 -204.16754242 170.37574553 -203 168 C-202.34 168 -201.68 168 -201 168 C-200.62875 167.0409375 -200.62875 167.0409375 -200.25 166.0625 C-198.31305147 161.31697611 -196.29288359 156.58576719 -194 152 C-193.34 152 -192.68 152 -192 152 C-191.9175 151.29875 -191.835 150.5975 -191.75 149.875 C-191 147 -191 147 -189.19140625 144.29296875 C-186.8559019 140.78346756 -185.02092615 137.22239987 -183.1875 133.4375 C-179.62672981 126.19433939 -175.87839747 119.07807539 -172 112 C-171.34 112 -170.68 112 -170 112 C-169.62875 110.4840625 -169.62875 110.4840625 -169.25 108.9375 C-168.10339362 104.86621646 -166.20258527 101.59755594 -164 98 C-163.34 98 -162.68 98 -162 98 C-161.443125 96.1128125 -161.443125 96.1128125 -160.875 94.1875 C-158.93295643 88.38846758 -156.04063756 83.28572027 -153 78 C-152.27680331 76.72947414 -151.55417474 75.45862478 -150.83203125 74.1875 C-148.89694234 70.78649921 -146.95096932 67.39191366 -145 64 C-144.34 64 -143.68 64 -143 64 C-142.88011719 63.26394531 -142.76023437 62.52789062 -142.63671875 61.76953125 C-140.91824605 54.29470215 -135.70753227 47.89234938 -131 42 C-129.90751953 40.62908203 -129.90751953 40.62908203 -128.79296875 39.23046875 C-123.35030139 32.48805993 -118.26653046 26.79281796 -111 22 C-110.39285156 21.37480469 -109.78570313 20.74960937 -109.16015625 20.10546875 C-106.77621121 17.78187675 -104.3224579 16.13515919 -101.5 14.375 C-100.5615625 13.78460938 -99.623125 13.19421875 -98.65625 12.5859375 C-92.65024631 9 -92.65024631 9 -89 9 C-89 8.34 -89 7.68 -89 7 C-82.94977014 4.33442742 -77.61085476 2.48969295 -71 2 C-71 1.34 -71 0.68 -71 0 C-47.87870172 -5.55374539 -23.08733691 -5.99566148 0 0 Z " fill="#F9B927" transform="translate(884,391)"/>
<path d="M0 0 C0.99823792 -0.00960754 1.99647583 -0.01921509 3.02496338 -0.02911377 C4.10308289 -0.03336365 5.18120239 -0.03761353 6.29199219 -0.04199219 C7.95871979 -0.0505423 7.95871979 -0.0505423 9.65911865 -0.05926514 C12.01280769 -0.06871704 14.36650998 -0.07524987 16.72021484 -0.07910156 C20.31078386 -0.0887914 23.90077667 -0.11980727 27.49121094 -0.15136719 C29.77896796 -0.15789894 32.06672907 -0.16314874 34.35449219 -0.16699219 C35.95952606 -0.18551239 35.95952606 -0.18551239 37.59698486 -0.20440674 C43.55532582 -0.18671704 47.80983126 0.33806912 53.08886719 3.16113281 C53.08886719 3.82113281 53.08886719 4.48113281 53.08886719 5.16113281 C54.26449219 5.53238281 54.26449219 5.53238281 55.46386719 5.91113281 C58.41203827 7.3150238 58.99134489 8.16789018 60.08886719 11.16113281 C60.74886719 11.16113281 61.40886719 11.16113281 62.08886719 11.16113281 C63.34551697 14.06713542 64.08886719 15.95717866 64.08886719 19.16113281 C64.74886719 19.16113281 65.40886719 19.16113281 66.08886719 19.16113281 C66.94399271 22.12570869 67.21188568 24.75249996 67.20632839 27.83370113 C67.20746487 29.24439701 67.20746487 29.24439701 67.2086243 30.68359178 C67.20434722 31.7136289 67.20007014 32.74366602 67.19566345 33.80491638 C67.19482839 35.4501231 67.19482839 35.4501231 67.19397646 37.12856632 C67.19093176 40.817097 67.18074258 44.50557415 67.1706543 48.1940918 C67.16709924 50.83365439 67.16395326 53.47321432 67.16136169 56.11277771 C67.15506085 61.80506085 67.14531816 67.49732966 67.13346672 73.18960381 C67.11648382 81.43384077 67.10693474 89.67807419 67.09958798 97.92232478 C67.0876369 111.31662895 67.07268881 124.71092754 67.05444336 138.10522461 C67.05335324 138.90701856 67.05226311 139.7088125 67.05113996 140.53490324 C67.03555077 151.89737048 67.01696049 163.25983084 66.99714208 174.62229139 C66.99574877 175.42135662 66.99435546 176.22042185 66.99291992 177.04370117 C66.99152639 177.84178884 66.99013286 178.63987651 66.9886971 179.46214866 C66.96561816 192.79535022 66.95032984 206.12854736 66.94136053 219.46176583 C66.93552289 227.67833947 66.923194 235.89485213 66.90238775 244.11140174 C66.88862135 249.75077312 66.8821836 255.39012333 66.88137763 261.02951133 C66.88067744 264.27769477 66.87565386 267.52576862 66.86391449 270.77393341 C66.48463766 298.79893096 66.48463766 298.79893096 77.08886719 324.16113281 C77.52199219 324.93457031 77.95511719 325.70800781 78.40136719 326.50488281 C80.47467969 329.76843027 82.96304241 332.53126909 85.58886719 335.34863281 C86.31783203 336.14817383 86.31783203 336.14817383 87.06152344 336.96386719 C89.29607961 339.38412899 91.33443837 341.32484694 94.08886719 343.16113281 C94.08886719 343.82113281 94.08886719 344.48113281 94.08886719 345.16113281 C94.95382813 345.42796875 95.81878906 345.69480469 96.70996094 345.96972656 C101.102526 347.51855008 105.0720127 349.65547839 109.18652344 351.82128906 C111.87606332 353.06289361 114.1731347 353.72778542 117.08886719 354.16113281 C117.08886719 354.82113281 117.08886719 355.48113281 117.08886719 356.16113281 C132.31089842 356.23156959 147.53292209 356.2842893 162.75508022 356.31656933 C169.82481306 356.33196349 176.89444397 356.35290822 183.96411133 356.38745117 C190.79818232 356.42082674 197.63214781 356.43803141 204.46629524 356.44576454 C207.06192748 356.45126923 209.65755454 356.46201748 212.2531414 356.47832298 C236.3761455 357.10821567 236.3761455 357.10821567 259.08886719 350.16113281 C259.74886719 350.16113281 260.40886719 350.16113281 261.08886719 350.16113281 C261.08886719 349.50113281 261.08886719 348.84113281 261.08886719 348.16113281 C262.59277344 346.96972656 262.59277344 346.96972656 264.65136719 345.59863281 C272.31136779 340.01293326 276.66577228 332.86609998 280.08886719 324.16113281 C280.41886719 323.50113281 280.74886719 322.84113281 281.08886719 322.16113281 C281.74886719 322.16113281 282.40886719 322.16113281 283.08886719 322.16113281 C283.35699219 321.31550781 283.62511719 320.46988281 283.90136719 319.59863281 C285.13672669 316.02259214 286.56585518 312.62252373 288.08886719 309.16113281 C288.74886719 309.16113281 289.40886719 309.16113281 290.08886719 309.16113281 C290.28222656 308.55785156 290.47558594 307.95457031 290.67480469 307.33300781 C291.06539063 306.13417969 291.06539063 306.13417969 291.46386719 304.91113281 C291.71910156 304.12222656 291.97433594 303.33332031 292.23730469 302.52050781 C293.04060386 300.29485324 293.98598381 298.25181609 295.08886719 296.16113281 C295.74886719 296.16113281 296.40886719 296.16113281 297.08886719 296.16113281 C297.19199219 295.45988281 297.29511719 294.75863281 297.40136719 294.03613281 C298.18245721 290.76975634 299.50945462 288.11394761 301.08886719 285.16113281 C301.74886719 285.16113281 302.40886719 285.16113281 303.08886719 285.16113281 C303.28222656 284.53464844 303.47558594 283.90816406 303.67480469 283.26269531 C304.06539063 282.03679687 304.06539063 282.03679687 304.46386719 280.78613281 C304.84671875 279.56796875 304.84671875 279.56796875 305.23730469 278.32519531 C306.08886719 276.16113281 306.08886719 276.16113281 308.08886719 274.16113281 C308.56324219 273.04738281 309.03761719 271.93363281 309.52636719 270.78613281 C311.08886719 267.16113281 311.08886719 267.16113281 312.58105469 265.38769531 C314.63261161 262.35819416 315.0809246 259.48769467 315.77636719 255.91113281 C316.02773438 254.64785156 316.27910156 253.38457031 316.53808594 252.08300781 C316.81072266 250.63667969 316.81072266 250.63667969 317.08886719 249.16113281 C317.74886719 249.16113281 318.40886719 249.16113281 319.08886719 249.16113281 C319.09244972 247.42784446 319.09244972 247.42784446 319.09610462 245.65954018 C319.15351242 218.20583537 319.22627698 190.75220601 319.31785347 163.29859302 C319.32912111 159.91667306 319.34025965 156.53475268 319.35131836 153.15283203 C319.35352204 152.4795762 319.35572573 151.80632036 319.35799619 151.11266284 C319.39333126 140.22333339 319.41821675 129.33400402 319.43921421 118.44463857 C319.46100651 107.26420523 319.4943105 96.08383863 319.53756875 84.90346563 C319.56149224 78.62653527 319.58022682 72.34968684 319.58648109 66.07271194 C319.59253577 60.1613575 319.61254998 54.25021266 319.6431427 48.33893585 C319.65191669 46.17264894 319.65564684 44.00633463 319.65387535 41.84003067 C319.65221626 38.87428395 319.6689763 35.90917143 319.69013977 32.94351196 C319.68286841 31.66817311 319.68286841 31.66817311 319.67545015 30.36706984 C319.774258 21.93337911 321.40762827 13.96857422 327.33886719 7.69628906 C332.64914723 3.03794072 337.88707749 0.04666755 345.03173828 0.01586914 C346.03643158 0.00948929 347.04112488 0.00310944 348.07626343 -0.00346375 C349.70285385 -0.00513298 349.70285385 -0.00513298 351.36230469 -0.00683594 C352.47819977 -0.01016434 353.59409485 -0.01349274 354.74380493 -0.016922 C357.1058918 -0.02198766 359.46798583 -0.02433043 361.83007812 -0.02416992 C365.44250299 -0.02635427 369.05462146 -0.04450817 372.66699219 -0.06347656 C374.96126198 -0.06641097 377.25553322 -0.06839545 379.54980469 -0.06933594 C380.63014984 -0.07652145 381.710495 -0.08370697 382.82357788 -0.09111023 C383.8345755 -0.0880336 384.84557312 -0.08495697 385.88720703 -0.08178711 C386.77306488 -0.08321213 387.65892273 -0.08463715 388.57162476 -0.08610535 C391.37515743 0.18925163 393.53316945 1.0038841 396.08886719 2.16113281 C396.08886719 2.82113281 396.08886719 3.48113281 396.08886719 4.16113281 C396.81074219 4.38800781 397.53261719 4.61488281 398.27636719 4.84863281 C404.55344351 7.7779351 407.57777756 12.96957357 410.08886719 19.16113281 C410.88569494 21.91147038 411.21514041 24.35661148 411.22029495 27.21624374 C411.2241361 28.01900513 411.22797724 28.82176652 411.23193479 29.64885402 C411.2310683 30.52509779 411.23020182 31.40134157 411.22930908 32.30413818 C411.23376577 33.70728205 411.23376577 33.70728205 411.23831248 35.13877225 C411.24700154 38.28132592 411.24850795 41.42384151 411.25 44.56640625 C411.25462828 46.81686993 411.25965295 49.06733282 411.26504517 51.3177948 C411.27817613 57.44033751 411.28461628 63.56286925 411.28905582 69.68542385 C411.29198734 73.51417373 411.29609245 77.34292063 411.30056 81.17166901 C411.31267303 91.78665924 411.32305195 102.40164686 411.32643509 113.01664352 C411.32665466 113.69599624 411.32687422 114.37534897 411.32710044 115.07528813 C411.32731872 115.75622137 411.327537 116.4371546 411.32776189 117.13872218 C411.32820534 118.51842547 411.32865191 119.89812875 411.32910156 121.27783203 C411.32932299 121.96220507 411.32954442 122.64657811 411.32977256 123.35168973 C411.33371153 134.41458353 411.35113633 145.47741109 411.37446108 156.54027936 C411.39825315 167.91745309 411.41038339 179.29458257 411.41180301 190.67178559 C411.41284809 197.05171414 411.41869183 203.43154943 411.43662262 209.81145477 C411.45318799 215.82296908 411.45521788 221.8343209 411.44648361 227.84584999 C411.44571757 230.04189046 411.44999819 232.23793996 411.45994186 234.43395805 C411.52504029 249.71829374 411.0690491 264.40693462 404.90136719 278.66113281 C404.62873047 279.304375 404.35609375 279.94761719 404.07519531 280.61035156 C403.42732522 282.13341458 402.76047426 283.64838679 402.08886719 285.16113281 C401.42886719 285.16113281 400.76886719 285.16113281 400.08886719 285.16113281 C399.88390625 285.78761719 399.67894531 286.41410156 399.46777344 287.05957031 C399.06365234 288.28546875 399.06365234 288.28546875 398.65136719 289.53613281 C398.25111328 290.75429688 398.25111328 290.75429688 397.84277344 291.99707031 C397.08886719 294.16113281 397.08886719 294.16113281 396.08886719 296.16113281 C395.42886719 296.16113281 394.76886719 296.16113281 394.08886719 296.16113281 C393.80011719 297.04800781 393.51136719 297.93488281 393.21386719 298.84863281 C392.25737971 301.66495705 391.22087772 304.41196437 390.08886719 307.16113281 C389.42886719 307.16113281 388.76886719 307.16113281 388.08886719 307.16113281 C387.71761719 308.39863281 387.71761719 308.39863281 387.33886719 309.66113281 C385.27219245 315.44782207 382.60645574 320.49958556 379.08886719 325.53613281 C376.38955298 329.45994795 374.73869865 333.36580591 373.08886719 337.81347656 C371.84941332 340.72328819 370.18232428 342.99831807 368.26074219 345.48925781 C366.36621368 348.19211848 365.27882531 351.09229344 364.08886719 354.16113281 C363.42886719 354.16113281 362.76886719 354.16113281 362.08886719 354.16113281 C361.88390625 354.78761719 361.67894531 355.41410156 361.46777344 356.05957031 C361.06365234 357.28546875 361.06365234 357.28546875 360.65136719 358.53613281 C360.25111328 359.75429688 360.25111328 359.75429688 359.84277344 360.99707031 C359.08886719 363.16113281 359.08886719 363.16113281 358.08886719 365.16113281 C357.42886719 365.16113281 356.76886719 365.16113281 356.08886719 365.16113281 C355.80011719 366.23363281 355.51136719 367.30613281 355.21386719 368.41113281 C354.3606661 371.25513645 353.52521688 373.59622264 352.08886719 376.16113281 C351.42886719 376.16113281 350.76886719 376.16113281 350.08886719 376.16113281 C349.80011719 377.23363281 349.51136719 378.30613281 349.21386719 379.41113281 C348.3606661 382.25513645 347.52521688 384.59622264 346.08886719 387.16113281 C345.42886719 387.16113281 344.76886719 387.16113281 344.08886719 387.16113281 C343.73308594 388.41796875 343.73308594 388.41796875 343.37011719 389.70019531 C341.88897118 393.7010958 339.91211568 396.98074614 337.58886719 400.53613281 C337.18539063 401.17679688 336.78191406 401.81746094 336.36621094 402.47753906 C335.33219908 404.07803926 334.21659948 405.62522876 333.08886719 407.16113281 C332.42886719 407.16113281 331.76886719 407.16113281 331.08886719 407.16113281 C330.88648438 407.68835938 330.68410156 408.21558594 330.47558594 408.75878906 C328.4707993 412.23187013 325.74339147 414.79505756 322.90136719 417.59863281 C322.34900391 418.15873047 321.79664063 418.71882813 321.22753906 419.29589844 C311.31625925 429.16113281 311.31625925 429.16113281 307.08886719 429.16113281 C307.08886719 429.82113281 307.08886719 430.48113281 307.08886719 431.16113281 C305.79973231 431.83268214 304.50746515 432.4982214 303.21386719 433.16113281 C302.49457031 433.53238281 301.77527344 433.90363281 301.03417969 434.28613281 C299.08886719 435.16113281 299.08886719 435.16113281 297.08886719 435.16113281 C297.08886719 435.82113281 297.08886719 436.48113281 297.08886719 437.16113281 C295.48736833 437.83418299 293.88255689 438.49935508 292.27636719 439.16113281 C291.38304687 439.53238281 290.48972656 439.90363281 289.56933594 440.28613281 C287.08886719 441.16113281 287.08886719 441.16113281 284.08886719 441.16113281 C284.08886719 441.82113281 284.08886719 442.48113281 284.08886719 443.16113281 C282.991875 443.42667969 281.89488281 443.69222656 280.76464844 443.96582031 C279.31017472 444.32240097 277.85575021 444.67918241 276.40136719 445.03613281 C275.68013672 445.21015625 274.95890625 445.38417969 274.21582031 445.56347656 C271.20969087 446.30471396 268.37205615 447.04374435 265.50683594 448.23144531 C260.4189938 450.18767541 255.00617977 450.28653872 249.60874939 450.29484558 C247.71885788 450.30124306 247.71885788 450.30124306 245.79078674 450.30776978 C244.4122009 450.30742033 243.03361507 450.30695883 241.6550293 450.30639648 C240.18904536 450.30939195 238.72306221 450.31279537 237.25708008 450.3165741 C233.28766867 450.32538208 229.31827884 450.32775095 225.34885859 450.32838988 C222.86269773 450.32910257 220.37654228 450.3312411 217.89038277 450.3338871 C209.1988096 450.3431322 200.50725174 450.34722332 191.81567383 450.34643555 C183.74453729 450.34583602 175.67346785 450.35636548 167.60234827 450.37217921 C160.65002568 450.38530995 153.69772487 450.39061708 146.74539 450.38998014 C142.60347448 450.38972663 138.46161855 450.39249511 134.3197155 450.40315819 C130.416753 450.41293196 126.5139059 450.41285571 122.61093903 450.40564156 C121.1896987 450.4046069 119.76845084 450.40689078 118.34722328 450.41300201 C109.04545086 450.45036275 100.25389104 449.7192338 91.08886719 448.16113281 C91.08886719 447.50113281 91.08886719 446.84113281 91.08886719 446.16113281 C90.39921875 446.12375 89.70957031 446.08636719 88.99902344 446.04785156 C82.55250292 445.59686042 77.10368587 444.4629769 71.08886719 442.16113281 C69.06847524 441.43074404 67.04763348 440.70159845 65.02636719 439.97363281 C63.38009043 439.37067548 61.73409525 438.76694576 60.08886719 438.16113281 C60.08886719 437.50113281 60.08886719 436.84113281 60.08886719 436.16113281 C59.44949219 436.07863281 58.81011719 435.99613281 58.15136719 435.91113281 C53.88345201 434.8659291 50.05779052 433.02021455 46.08886719 431.16113281 C46.08886719 430.50113281 46.08886719 429.84113281 46.08886719 429.16113281 C45.34636719 428.87238281 44.60386719 428.58363281 43.83886719 428.28613281 C37.31743862 425.61827567 37.31743862 425.61827567 36.08886719 423.16113281 C34.41676735 422.23663429 32.74462919 421.31220497 31.07226562 420.38818359 C27.57304195 418.22335122 24.68491641 415.42585318 21.71386719 412.59863281 C21.06409912 411.98600586 20.41433105 411.37337891 19.74487305 410.7421875 C14.40145451 405.62387383 9.27650453 400.28938259 5.08886719 394.16113281 C5.08886719 393.50113281 5.08886719 392.84113281 5.08886719 392.16113281 C4.42886719 392.16113281 3.76886719 392.16113281 3.08886719 392.16113281 C1.79199219 390.36035156 1.79199219 390.36035156 0.33886719 387.84863281 C-0.19351563 386.92953125 -0.72589844 386.01042969 -1.27441406 385.06347656 C-2.08458984 383.62681641 -2.08458984 383.62681641 -2.91113281 382.16113281 C-3.3996875 381.29617188 -3.88824219 380.43121094 -4.39160156 379.54003906 C-5.93043032 376.76354643 -7.42058443 373.96380982 -8.91113281 371.16113281 C-9.47960937 370.14792969 -10.04808594 369.13472656 -10.63378906 368.09082031 C-14.32711437 361.22367039 -16.98125257 354.44455148 -19.16113281 346.97363281 C-19.39509766 346.18617676 -19.6290625 345.3987207 -19.87011719 344.58740234 C-24.84600426 326.56228706 -25.3599737 308.75096578 -25.31796587 290.16229451 C-25.31317122 286.57615077 -25.32579803 282.9900574 -25.33598328 279.40393066 C-25.353049 272.40803789 -25.35403782 265.41223539 -25.34877037 258.41632723 C-25.34470823 252.7289284 -25.34619627 247.041556 -25.35151863 241.3541584 C-25.35226705 240.54088837 -25.35301548 239.72761834 -25.35378658 238.88970377 C-25.35531821 237.23703522 -25.35685656 235.58436668 -25.35840154 233.93169815 C-25.37207959 218.48997526 -25.36671969 203.04830327 -25.35521633 187.60658158 C-25.34526543 173.49483433 -25.35826496 159.38321784 -25.38215052 145.27149075 C-25.40655035 130.74564794 -25.41614867 116.21986604 -25.4094978 101.69400316 C-25.40601056 93.55279354 -25.40820614 85.41168469 -25.42574883 77.27049065 C-25.44048088 70.34870447 -25.44109198 63.42709027 -25.42367791 56.50530743 C-25.41517814 52.97783962 -25.41299351 49.45067893 -25.42832947 45.92322731 C-25.44477258 42.09371689 -25.4300031 38.26467817 -25.41233826 34.43516541 C-25.42194326 33.32942435 -25.43154827 32.22368329 -25.44144434 31.08443493 C-25.35826868 22.30612082 -23.70025707 14.8066954 -17.53613281 8.28613281 C-12.20328576 3.43392863 -7.42129732 0.05769832 0 0 Z " fill="#FCFBFB" transform="translate(114.9111328125,458.8388671875)"/>
<path d="M0 0 C4.27859126 2.33437823 7.98212675 5.14780255 11.75 8.22265625 C15.25986522 10.89770978 19.08156467 12.92733341 23 14.9375 C23 15.5975 23 16.2575 23 16.9375 C23.52335938 17.0096875 24.04671875 17.081875 24.5859375 17.15625 C28.02651522 18.26970557 30.7215072 20.34413354 33.625 22.4375 C37.67588444 25.40815568 37.67588444 25.40815568 42 27.9375 C42 28.5975 42 29.2575 42 29.9375 C42.763125 30.205625 43.52625 30.47375 44.3125 30.75 C47.00437316 31.93943232 47.9708207 32.9083207 50 34.9375 C51.69354114 35.91454297 53.38886829 36.88896545 55.1015625 37.83203125 C57.65596519 39.3194715 60.0007944 41.04464824 62.38671875 42.78515625 C64.51619468 44.30621048 66.7420376 45.61576591 69 46.9375 C70.37893001 47.76431405 71.75363659 48.59819562 73.125 49.4375 C74.11886719 50.04078125 74.11886719 50.04078125 75.1328125 50.65625 C77 51.9375 77 51.9375 78.51171875 53.45703125 C80.12325684 55.06010982 81.6982741 56.03655564 83.6875 57.125 C84.780625 57.723125 85.87375 58.32125 87 58.9375 C87 59.5975 87 60.2575 87 60.9375 C87.78375 61.246875 88.5675 61.55625 89.375 61.875 C92 62.9375 92 62.9375 94 63.9375 C94 64.5975 94 65.2575 94 65.9375 C94.70898438 66.1953125 95.41796875 66.453125 96.1484375 66.71875 C99.21204493 68.02812742 101.83322157 69.62245948 104.625 71.4375 C105.56601562 72.0459375 106.50703125 72.654375 107.4765625 73.28125 C109.32245648 74.49279651 111.16285075 75.71273383 113 76.9375 C113 77.5975 113 78.2575 113 78.9375 C113.7425 79.22625 114.485 79.515 115.25 79.8125 C117.56739797 80.76052644 119.77917115 81.78595911 122 82.9375 C122 83.5975 122 84.2575 122 84.9375 C122.598125 85.205625 123.19625 85.47375 123.8125 85.75 C128.07511378 88.06399034 129.81875614 90.96386617 131.4296875 95.55078125 C132.95034743 101.91463889 132.69402075 107.98060154 130 113.9375 C129.34 113.9375 128.68 113.9375 128 113.9375 C127.896875 114.535625 127.79375 115.13375 127.6875 115.75 C126.90175967 118.25008286 126.03081147 119.31285082 124 120.9375 C123.34 120.9375 122.68 120.9375 122 120.9375 C122 121.5975 122 122.2575 122 122.9375 C117.61538462 125.9375 117.61538462 125.9375 115 125.9375 C114.67 126.9275 114.34 127.9175 114 128.9375 C111.92578125 130.40234375 111.92578125 130.40234375 109.3125 131.875 C106.30051882 133.60290337 103.34865972 135.32621369 100.5 137.3125 C98 138.9375 98 138.9375 96 138.9375 C95.67 139.9275 95.34 140.9175 95 141.9375 C93.1796875 143.1484375 93.1796875 143.1484375 90.875 144.3125 C87.75695416 145.9486038 84.8891776 147.64933222 82.0625 149.75 C79 151.9375 79 151.9375 77 151.9375 C77 152.5975 77 153.2575 77 153.9375 C74.9453125 155.41796875 74.9453125 155.41796875 72.125 157.125 C67.36471295 160.05723867 62.80220446 163.15896597 58.2890625 166.45703125 C55.93267115 167.98104545 53.63298561 168.9838568 51 169.9375 C51 170.5975 51 171.2575 51 171.9375 C44.25 175.9375 44.25 175.9375 42 175.9375 C42 176.5975 42 177.2575 42 177.9375 C37.61538462 180.9375 37.61538462 180.9375 35 180.9375 C35 181.5975 35 182.2575 35 182.9375 C32.8828125 184.4453125 32.8828125 184.4453125 30.125 186.0625 C29.22007812 186.60132813 28.31515625 187.14015625 27.3828125 187.6953125 C25 188.9375 25 188.9375 23 188.9375 C23 189.5975 23 190.2575 23 190.9375 C18.61538462 193.9375 18.61538462 193.9375 16 193.9375 C16 194.5975 16 195.2575 16 195.9375 C9.25 199.9375 9.25 199.9375 7 199.9375 C7 200.5975 7 201.2575 7 201.9375 C-0.53560541 206.70041087 -7.1203023 208.19613075 -16 206.9375 C-19.02205476 205.94690967 -20.48070936 204.9987378 -23 202.9375 C-23.9375 200.6875 -23.9375 200.6875 -24 198.9375 C-24.66 198.9375 -25.32 198.9375 -26 198.9375 C-27.48993626 195.95762748 -27.1480113 192.91280566 -27.14717102 189.64485168 C-27.15084771 188.8844575 -27.1545244 188.12406332 -27.1583125 187.3406269 C-27.1693729 184.77891706 -27.17319718 182.21724775 -27.17700195 179.65551758 C-27.18326489 177.82423778 -27.18991154 175.99295925 -27.19691467 174.16168213 C-27.21434162 169.1759568 -27.22488132 164.19024107 -27.2331202 159.20449281 C-27.23826738 156.09042013 -27.24434328 152.97635045 -27.25063133 149.86227989 C-27.26968921 140.12168078 -27.28391837 130.38108927 -27.2922433 120.64047509 C-27.30201513 109.39206547 -27.3283308 98.14385267 -27.36874419 86.8955124 C-27.39889736 78.20498703 -27.41371147 69.51451809 -27.41702431 60.82394141 C-27.41937596 55.63191136 -27.42835109 50.44009143 -27.45348549 45.24811745 C-27.47675679 40.3618881 -27.48100318 35.47600733 -27.47072411 30.58973694 C-27.47022839 28.79788746 -27.47655947 27.00602088 -27.49028015 25.21422386 C-27.50798965 22.76408778 -27.50089825 20.31520391 -27.48774719 17.86506653 C-27.49871644 17.15921333 -27.50968568 16.45336012 -27.52098733 15.72611743 C-27.45100122 10.30969952 -25.99018413 7.30042678 -23 2.9375 C-15.69325241 -2.72895731 -8.43300109 -4.01258242 0 0 Z " fill="#F9BA27" transform="translate(808,675.0625)"/>
<path d="M0 0 C1.19302734 -0.00708984 2.38605469 -0.01417969 3.61523438 -0.02148438 C15.53026235 0.06366976 23.95016258 2.92434446 33.8125 9.4375 C35.03259766 10.19160156 35.03259766 10.19160156 36.27734375 10.9609375 C46.53999929 17.60815515 55.3766955 26.95659422 59.8125 38.4375 C60.13476562 39.0975 60.45703125 39.7575 60.7890625 40.4375 C61.14742188 41.18 61.50578125 41.9225 61.875 42.6875 C62.21660156 43.37328125 62.55820312 44.0590625 62.91015625 44.765625 C67.99522228 59.82270364 65.77233071 80.07972602 59.8125 94.4375 C59.1525 94.4375 58.4925 94.4375 57.8125 94.4375 C57.66554688 95.00597656 57.51859375 95.57445312 57.3671875 96.16015625 C55.62338453 102.16324809 53.19622942 106.03356907 48.8125 110.4375 C48.03132813 111.23800781 47.25015625 112.03851563 46.4453125 112.86328125 C36.81363535 122.28060357 27.42002376 126.48883484 14.8125 130.4375 C14.1525 130.7675 13.4925 131.0975 12.8125 131.4375 C10.82740689 131.53471857 8.83903374 131.56826567 6.8515625 131.5703125 C5.65789062 131.57160156 4.46421875 131.57289063 3.234375 131.57421875 C1.98140625 131.57035156 0.7284375 131.56648437 -0.5625 131.5625 C-2.43035156 131.56830078 -2.43035156 131.56830078 -4.3359375 131.57421875 C-5.5321875 131.57292969 -6.7284375 131.57164062 -7.9609375 131.5703125 C-9.05841309 131.56918457 -10.15588867 131.56805664 -11.28662109 131.56689453 C-13.76982833 131.45613036 -15.82246825 131.15941178 -18.1875 130.4375 C-18.1875 129.7775 -18.1875 129.1175 -18.1875 128.4375 C-18.8165625 128.33953125 -19.445625 128.2415625 -20.09375 128.140625 C-33.59642295 125.7817243 -44.10017448 118.52013126 -52.1875 107.4375 C-52.1875 106.7775 -52.1875 106.1175 -52.1875 105.4375 C-52.8475 105.4375 -53.5075 105.4375 -54.1875 105.4375 C-62.99297322 93.01007105 -66.36490181 80.64272674 -66.4375 65.6875 C-66.458125 64.64078125 -66.47875 63.5940625 -66.5 62.515625 C-66.53314898 55.88582972 -65.70715303 50.56399859 -63.1875 44.4375 C-62.87425781 43.56996094 -62.56101562 42.70242188 -62.23828125 41.80859375 C-61.99464844 41.17050781 -61.75101562 40.53242188 -61.5 39.875 C-60.8503125 38.1734375 -60.8503125 38.1734375 -60.1875 36.4375 C-59.5275 36.4375 -58.8675 36.4375 -58.1875 36.4375 C-57.98125 35.633125 -57.775 34.82875 -57.5625 34 C-52.95995229 22.07521729 -43.20437405 13.11928947 -32.0625 7.1796875 C-30.1875 6.4375 -30.1875 6.4375 -27.1875 6.4375 C-27.1875 5.7775 -27.1875 5.1175 -27.1875 4.4375 C-17.95019536 1.05128973 -9.80989677 -0.1659066 0 0 Z " fill="#F8B927" transform="translate(438.1875,282.5625)"/>
<path d="M0 0 C5.55006877 4.23975178 10.77435535 8.93427312 15.59765625 13.984375 C15.59765625 14.644375 15.59765625 15.304375 15.59765625 15.984375 C16.25765625 15.984375 16.91765625 15.984375 17.59765625 15.984375 C29.2436795 29.75995679 31.97838846 48.55976275 30.59765625 65.984375 C29.66501166 73.73533651 27.82416683 80.87159116 24.59765625 87.984375 C23.93765625 87.984375 23.27765625 87.984375 22.59765625 87.984375 C22.49453125 88.520625 22.39140625 89.056875 22.28515625 89.609375 C20.63134821 95.32253006 17.95299553 99.00776087 13.59765625 102.984375 C12.96988281 103.5928125 12.34210938 104.20125 11.6953125 104.828125 C-2.29585337 117.984375 -2.29585337 117.984375 -10.40234375 117.984375 C-10.40234375 118.644375 -10.40234375 119.304375 -10.40234375 119.984375 C-18.58210503 122.70136747 -26.00225915 123.42133275 -34.58984375 123.296875 C-35.71326172 123.30009766 -36.83667969 123.30332031 -37.99414062 123.30664062 C-44.13929062 123.26694794 -49.52149784 122.78668553 -55.40234375 120.984375 C-55.40234375 120.324375 -55.40234375 119.664375 -55.40234375 118.984375 C-56.18609375 118.9225 -56.96984375 118.860625 -57.77734375 118.796875 C-69.97974092 116.06185494 -80.19368734 106.96033553 -87.40234375 96.984375 C-87.40234375 96.324375 -87.40234375 95.664375 -87.40234375 94.984375 C-88.06234375 94.984375 -88.72234375 94.984375 -89.40234375 94.984375 C-91.0234375 92.74609375 -91.0234375 92.74609375 -92.83984375 89.671875 C-93.73509766 88.19267578 -93.73509766 88.19267578 -94.6484375 86.68359375 C-99.25714958 77.72079457 -99.8785082 68.52349112 -99.77734375 58.609375 C-99.78894531 57.48015625 -99.80054687 56.3509375 -99.8125 55.1875 C-99.78374211 46.8093684 -99.21557108 37.61082966 -95.40234375 29.984375 C-94.74234375 29.984375 -94.08234375 29.984375 -93.40234375 29.984375 C-93.23734375 29.05625 -93.07234375 28.128125 -92.90234375 27.171875 C-90.32410533 18.22066698 -82.82190686 10.33082489 -75.40234375 4.984375 C-74.685625 4.63503906 -73.96890625 4.28570312 -73.23046875 3.92578125 C-71.22428235 3.12028762 -71.22428235 3.12028762 -70.40234375 0.984375 C-65.09465144 -2.015625 -65.09465144 -2.015625 -61.40234375 -2.015625 C-61.40234375 -2.675625 -61.40234375 -3.335625 -61.40234375 -4.015625 C-43.32411468 -12.3651576 -16.71194348 -10.82509861 0 0 Z " fill="#F8B927" transform="translate(207.40234375,291.015625)"/>
</svg>
